<svg xmlns="http://www.w3.org/2000/svg" viewBox="0 0 246.21 282.2"><defs><style>.cls-1,.cls-12,.cls-2,.cls-3,.cls-9{fill:none;}.cls-1{stroke:#91796c;stroke-width:5px;}.cls-1,.cls-12,.cls-13,.cls-2,.cls-3,.cls-9{stroke-linecap:round;stroke-miterlimit:10;}.cls-2{stroke:#ae978b;}.cls-12,.cls-2{stroke-width:6px;}.cls-12,.cls-13,.cls-3{stroke:#364038;}.cls-13,.cls-3{stroke-width:10px;}.cls-4{fill:#45cc61;}.cls-5{fill:#d3e6d7;}.cls-6{fill:#a5aaa6;}.cls-7{fill:#3fa846;}.cls-8{fill:#77e889;}.cls-9{stroke:#3fa846;stroke-width:2px;}.cls-10{fill:#edf2ee;}.cls-11{fill:#d1d3d1;}.cls-13,.cls-14{fill:#364038;}.cls-15{fill:#267231;}.cls-16{fill:#c6eace;}.cls-17{fill:#c45a30;}</style></defs><title>bola</title><g id="Capa_2" data-name="Capa 2"><g id="Capa_3" data-name="Capa 3"><path class="cls-1" d="M101.05,14.76s-10.25-27.59-47,0-47,60.46-47,60.46S-.37,95,3.74,99.48"/><path class="cls-2" d="M101.05,15.94s-22.77-27-62.49,41.86C24.09,86.17,12.22,105.35,5.3,100.85"/></g><g id="Capa_2-2" data-name="Capa 2"><path class="cls-3" d="M200.56,273.54c-7.11,1.11-12.89.34-28.32-2.63-5.08-1-8.12-3.87-7.2-6.83,3.67-11.73,4.78-31.55,4.78-31.55l-.47-14.29"/><path class="cls-3" d="M131.6,227.37s-2.95,36.52-2.16,40.17-17.74,9.66-17.74,9.66"/><circle class="cls-4" cx="143.25" cy="131.92" r="102.96"/><path class="cls-5" d="M137.4,36.38S122.82,6.65,102,15.26,94.32,51,94.32,51Z"/><path class="cls-6" d="M93.88,38.38s.25-19.62,8.08-23.12C92.69,19.2,87.55,29.57,91,41.34l2.85-3"/><path class="cls-4" d="M128.74,24.17S108.68,21.74,91,41.34c1.14,11.38.85,14.51.85,14.51l50.77-20.74-6.26-3.72a7.22,7.22,0,0,0-3.91-3.62Z"/></g><g id="Capa_6" data-name="Capa 6"><path class="cls-7" d="M226.55,86S204.48,280.82,51.8,157h0c31.26,66.89,82.21,67.21,106.14,62.91a112.67,112.67,0,0,0,25.31-6.78C198.21,207.13,255.77,164.63,226.55,86Z"/><path class="cls-8" d="M109.49,52.45c-22.8,14.24-72.15,45-35.71,124.4.84,1.82,5.28,11.45,10.34,9.51,4.78-1.85,11.89-6.6,9.44-10-42.87-60-.13-108.48,16.8-122.68A.74.74,0,0,0,109.49,52.45Z"/><ellipse class="cls-8" cx="99.76" cy="193.54" rx="10.87" ry="8.36"/><path class="cls-9" d="M77.28,143.45s2-7.57.91-8.76-2.64-2.15-2.86-3.42c0-.24.13-.48.42-.7,1.56-1.16,2.2-7.46,2.2-7.46"/><path class="cls-10" d="M73.36,174a6.66,6.66,0,0,0,3.71,1.58h.16a5.42,5.42,0,0,0,2.51-.72c2-1,3.43-4,3.67-5.45l2.1-12.64c.22-.95.33-5.2.43-6.16L88.4,127.1c.32-1.92-.53-3.63-2.45-3.94l-.62-.11a3.16,3.16,0,0,0-3.75,2.77L76.05,147.6a44.33,44.33,0,0,0-1,5L72.22,167.5c-.25,1.51-.16,4.56.72,6.06A2.26,2.26,0,0,0,73.36,174Z"/><path class="cls-10" d="M74.91,132s-3.65-3-9.26,1.88-4.83,9.47-4.83,9.47-.78,5.35,3.92,11.09,18.85,20.65,20.06,21.15,6.94,3.63,12.68-4.07a14,14,0,0,0,2.64-7,18,18,0,0,0-6-15Z"/><path class="cls-11" d="M100.14,162.65C99.46,164,93.82,175,85.58,172.79a0,0,0,0,1,0,0c.47-10,1.15-28.28,1.21-29.83,0-.11,0,0,0,0l-4.9,30s1.33,1.3,1.34,1.31c.23.32,6.91,9.17,15.19-4.08h0c2.05-4.11,1.92-6.82,1.84-7.48A0,0,0,0,0,100.14,162.65Z"/><path class="cls-3" d="M208.15,185.17s17,26.34-27.07,24.52c0,0-5.58-10.9-11.74-5.85a5.19,5.19,0,0,0-.49,7c1.52,2.06,3.57,3.49,5.78,2.19,1.59-1,2.21-2.74-1.7-6.13"/><path class="cls-12" d="M170.42,205.31c-.39,0-16.34-.68-16.34-.68"/><path class="cls-3" d="M93.81,185.17s-17,26.34,27.07,24.52c0,0,5.58-10.9,11.74-5.85a5.18,5.18,0,0,1,.48,7c-1.51,2.06-3.56,3.49-5.77,2.19-1.6-1-2.22-2.74,1.7-6.13"/><path class="cls-12" d="M131.54,205.31c.39,0,16.34-.68,16.34-.68"/><path class="cls-7" d="M133.49,29s-22,7-34.4,19.19c-.68.66-4.86-5.09-5.21-9.84,0,0-2.91,2.37-2.85,3,.19,1.71,1,6.6,1.29,8.73.19,1.2.7,2.2.93,3.28,0,.12,0,.22.07.33a1.85,1.85,0,0,0,2.88,1.09L116.84,40a39.75,39.75,0,0,1,5.2-2.63c4.1-1.69,11.87-5.64,13-6.33C135.41,30.81,133.49,29,133.49,29Z"/><path class="cls-9" d="M72.55,124.13s.44,2.33,1.08,2.82,2.46,1.75,2.46,1.75"/></g><g id="Capa_5" data-name="Capa 5"><line class="cls-13" x1="122.69" y1="129.29" x2="124" y2="150.21"/><path class="cls-14" d="M106.91,133.6s10-12,24.65-11.5"/><path class="cls-14" d="M106.53,133.28a27.93,27.93,0,0,1,4-6.4,29,29,0,0,1,5.7-5.29c1.07-.77,2.14-1.66,3.3-2.44a7.27,7.27,0,0,1,1.87-.88,6.08,6.08,0,0,1,2-.33,15.11,15.11,0,0,1,2.12.15,13.9,13.9,0,0,1,2.12.64c.34.14.68.28,1,.46s.67.42,1,.66a9.72,9.72,0,0,1,1.84,1.75.8.8,0,0,1,0,1h0a23.39,23.39,0,0,1-5.81,5.08,8.69,8.69,0,0,1-1.34.57,6.35,6.35,0,0,1-1.46.2l-1.58.06a9.07,9.07,0,0,0-1.56.26,54.65,54.65,0,0,0-6.21,2.09,52.68,52.68,0,0,0-6.29,3.06l0,0a.52.52,0,0,1-.71-.2A.53.53,0,0,1,106.53,133.28Z"/><path class="cls-14" d="M125,118.14c-.79.28,13.85-8.32-27.42,5"/><path class="cls-14" d="M125,118.14c.09-.81.52-1.65.5-2.25,0-.13,0-.28-.2-.19a.75.75,0,0,0-.22.53,1.63,1.63,0,0,0,.37,1.1c.4.45.46.44.47.55a.52.52,0,0,1-.2.23,31.22,31.22,0,0,1-3.28,2,38.68,38.68,0,0,1-7.53,3,34.6,34.6,0,0,1-8.2,1.32,25,25,0,0,1-9.13-1.25,23.55,23.55,0,0,1,6.81-6.28,30.27,30.27,0,0,1,7.81-3.42,28.28,28.28,0,0,1,8.66-1.07,18.89,18.89,0,0,1,5,.85,8.69,8.69,0,0,1,.85.32,3.84,3.84,0,0,1,1.42.94,2.24,2.24,0,0,1,.59,1.56,2,2,0,0,1-.34,1,2,2,0,0,1-.79.66,4.22,4.22,0,0,1-1.34.37A6.48,6.48,0,0,1,125,118.14Z"/><ellipse class="cls-15" cx="124.26" cy="146.29" rx="2.61" ry="4.04"/><ellipse class="cls-16" cx="124.26" cy="134.84" rx="5.74" ry="6.52"/><line class="cls-13" x1="169.06" y1="129.94" x2="167.76" y2="150.86"/><path class="cls-14" d="M184.85,134.24s-10-12-24.66-11.49"/><path class="cls-14" d="M184.46,134.57a53.43,53.43,0,0,0-6.29-3.06,54.65,54.65,0,0,0-6.21-2.09,9.07,9.07,0,0,0-1.56-.26l-1.58-.06a6.27,6.27,0,0,1-1.46-.2,8.69,8.69,0,0,1-1.34-.57,23.39,23.39,0,0,1-5.81-5.08h0a.8.8,0,0,1,0-1A9.72,9.72,0,0,1,162,120.5c.33-.24.66-.46,1-.66s.68-.33,1-.47a14.69,14.69,0,0,1,2.12-.63,15,15,0,0,1,2.12-.15,6.12,6.12,0,0,1,2.05.33,7.58,7.58,0,0,1,1.87.87c1.16.79,2.23,1.68,3.3,2.45a28.94,28.94,0,0,1,5.69,5.28,28.06,28.06,0,0,1,4,6.4.52.52,0,0,1-.73.67Z"/><path class="cls-14" d="M166.77,118.79c.79.28-13.85-8.32,27.42,5"/><path class="cls-14" d="M166.77,118.79a7.43,7.43,0,0,1-1.23,0,4.22,4.22,0,0,1-1.34-.37,1.93,1.93,0,0,1-1.13-1.69,2.24,2.24,0,0,1,.59-1.56,3.71,3.71,0,0,1,1.42-.94,7.83,7.83,0,0,1,.85-.32,18.89,18.89,0,0,1,5-.85,28.32,28.32,0,0,1,8.66,1.07,30.27,30.27,0,0,1,7.81,3.42,23.27,23.27,0,0,1,6.81,6.28,25.16,25.16,0,0,1-9.13,1.25,34.52,34.52,0,0,1-8.2-1.32,38.81,38.81,0,0,1-7.54-3,33.48,33.48,0,0,1-3.28-1.95.55.55,0,0,1-.19-.23c0-.11.07-.1.47-.55a1.63,1.63,0,0,0,.37-1.1.75.75,0,0,0-.22-.53c-.15-.09-.19.06-.2.19C166.25,117.13,166.68,118,166.77,118.79Z"/><ellipse class="cls-15" cx="167.5" cy="146.94" rx="2.61" ry="4.04"/><ellipse class="cls-16" cx="167.5" cy="135.48" rx="5.74" ry="6.52"/><path class="cls-8" d="M157.45,155s-10.87-8.5-22.36-.77c0,4.06,10.31,3.28,10.31,3.28s13.21,1.94,12-2.51"/><path class="cls-16" d="M160.19,172.26l-7.11-.12c-2.21,0-4.33,0-6.47,0-.53,0-1.06,0-1.6.05h-.8c-.27,0-.54,0-.81,0-.54,0-1.09,0-1.64,0s-1.1.07-1.66.07c-1.13,0-2.25.12-3.46.06a27.2,27.2,0,0,1-3.77-.13,12.91,12.91,0,0,1,1.34-1.42,12.4,12.4,0,0,1,1.49-1.24,17.82,17.82,0,0,1,3.33-1.86c.59-.24,1.19-.48,1.79-.69s1.24-.31,1.87-.46a20.35,20.35,0,0,1,3.83-.45,19.63,19.63,0,0,1,7.57,1.4A13.11,13.11,0,0,1,160.19,172.26Z"/><ellipse class="cls-17" cx="113.07" cy="164.34" rx="6.16" ry="3.42"/><ellipse class="cls-17" cx="179.53" cy="164.34" rx="6.16" ry="3.42"/></g></g></svg>