<svg id="Capa_1" data-name="Capa 1" xmlns="http://www.w3.org/2000/svg" viewBox="0 0 203.28 424.28"><defs><style>.cls-1{fill:#38413a;}.cls-2{fill:#364038;}.cls-3{fill:#eeebeb;}.cls-4{fill:#c34747;}.cls-5{fill:#374139;}.cls-6{fill:#a04543;}.cls-7{fill:#c0c0be;}.cls-8{fill:#c1c0bf;}.cls-9{fill:#38423a;}.cls-10{fill:#c1c1bf;}.cls-11{fill:#a04645;}.cls-12{fill:#a04644;}.cls-13{fill:#a14745;}.cls-14{fill:#c1c0be;}.cls-15{fill:#be5150;}.cls-16{fill:#a24745;}.cls-17{fill:#ece9e9;}.cls-18{fill:#e6a186;}.cls-19{fill:#c58871;}.cls-20{fill:#374038;}</style></defs><title>canya</title><path class="cls-1" d="M235.46,152.22c1.63,1.66,2.83,3.43,1.74,5.75s-3.34,2.5-5.58,1.91c-1.59-.41-3.06-1.75-4.69-1.53-7,1-1.57,12.28-5.72,15.67-3,2.43-4.87-1.24-4.94-3.64-.34-11-2.06-18.56,9.2-21.29A10,10,0,0,1,235.46,152.22Z" transform="translate(-168.1 -148.77)"/><path class="cls-2" d="M232.57,237.91c-4.75-17.35-9.47-34.71-9.37-52.92A26,26,0,0,1,226,172.93c4.43-8.52,13.48-9.41,19.44-1.87,3.34,4.23,7.18,12.83,9.11,19.87,4.09,15,8,33.37,6.05,49-.5,3.86-1.78,7.43-4.8,10.19-4.49,4.11-10.2,4.35-15,.55A23,23,0,0,1,232.57,237.91Z" transform="translate(-168.1 -148.77)"/><path class="cls-3" d="M249.43,299.74c-4.91-4.21-9-24.12-9.81-26.92,12.33-11.29,21-25.12,28.25-40,.73-1.5.8-4.76,4.18-3.29a49.73,49.73,0,0,1,1.78,12.18c.06,3.18.95,5.86,4.2,7.17,3.38,1.66,3.11,5.17,4,8.06a47.11,47.11,0,0,1,1.39,7.27,6,6,0,0,1-.15,1.52c-5.93,12.78-15.4,22.75-25.59,32.15C256.58,298.89,251.07,300.06,249.43,299.74Z" transform="translate(-168.1 -148.77)"/><path class="cls-4" d="M291.36,343.19c1.54.27,1.39,4.13,2.45,5.35,1.61,2.31,1.53,5,1.51,7.6-.06,6.4-2.35,17.18-2.91,23.57-.13,1.15-25.64,22.22-34.44,25.47-.12-4.49-2.32-25.73-2.32-28.73,1.32-3.66,5.42-6.94,8.1-8.93,4.48-3.32,7.76-8.09,12.91-10.55C283.78,356.9,288.58,348.7,291.36,343.19Z" transform="translate(-168.1 -148.77)"/><path class="cls-3" d="M258,405.18c11.65-5.8,33.12-24.23,34.44-25.47,3.77,1.4,2.59,6,2.36,8.46-.82,9-1.2,17.94-2.06,26.89-.16,1.13-.51,1.31-1.16,2.24-8.53,7.41-17.67,14.91-28.19,19.29-1.48.62-3,1.65-4.72.8C258.31,427.48,258.3,415.08,258,405.18Z" transform="translate(-168.1 -148.77)"/><path class="cls-4" d="M170.5,505a84.52,84.52,0,0,1-1-34.69c1-5.4,3.52-10.12,8.5-12.95,7.17-4.08,16.07-1.35,20.53,6.54,2.35,4.17,4,8.77,5.89,13.17C205.66,480.25,173.09,506.47,170.5,505Z" transform="translate(-168.1 -148.77)"/><path class="cls-2" d="M255.9,383.35c4.11,3.54,13,12.63,9.62,15.16-6.79,5.11-36.59-28.43-51.46-39.64-2.25-1.7-7-4.8-9.33-6.58-8.6-2-14.87-2.5-23.58-4.63-2.45-.6-5-1.87-5-5,0-6.79,12.09.48,16.15.23-.52-1.85-10.48-6-5.73-10.58,3.48-3.34,9.64,5,13.65,6.33,0-5.21-4.29-11.95-.1-12.72,7.41-1.35,6.62,11.13,10,21.48A461,461,0,0,1,255.9,383.35Z" transform="translate(-168.1 -148.77)"/><path class="cls-4" d="M258.64,437.39c11.87-4.38,23-12.54,32.91-20.09,1.4,1.23.46,3.64.24,5.26-1.62,12.11-2.13,24.38-5.46,36.22a5.23,5.23,0,0,1-1.76,2,44.35,44.35,0,0,1-21,4.72c-1.81-.06-3.66,0-5.06-1.48C259.32,454.68,258.6,446.27,258.64,437.39Z" transform="translate(-168.1 -148.77)"/><path class="cls-3" d="M174.38,502c10.83-8,27.44-21,30.05-24.91,2.13,4.66,3.16,9.78,6.8,13.81a39.77,39.77,0,0,0,5.27,5,153.38,153.38,0,0,0-23.93,25.7c-.88,1.2-1.52,3.1-3.09,3.52-1.66,0-3-1.66-3.94-2.81a117.44,117.44,0,0,1-10.77-16A4.27,4.27,0,0,1,174.38,502Z" transform="translate(-168.1 -148.77)"/><path class="cls-2" d="M276.4,514c8.25,2.53,21.56,10.29,26.11,17.09,6.85,10.26-3.91,15.36-9.42,18.2-2.9,1.49-5.84,2.9-9.53,4.72,4.08,1.84,18.56-1.45,18.27,5.73-.25,6.14-20,3.88-27.37,2.43-3.14-.61-5.9-1.72-6.26-5.35s2-5.43,4.95-6.66c7.36-3.06,20.5-10,21.31-14.22,1-4.85-12.53-11.45-22.16-15.11C271.25,517.08,272.84,514.93,276.4,514Z" transform="translate(-168.1 -148.77)"/><path class="cls-4" d="M271.43,227.08l0,1.88c-6.08,11.22-11.53,22.83-19.73,32.76a75.9,75.9,0,0,1-12,11.1c-2.21-10.16-4.44-20.33-6.6-30.5-.31-1.44-1.17-6.1-1.32-7.57,2.43,6.38,5.11,10.6,8.32,13.62,7,6.57,15.9,4.28,18.42-5,2.32-8.61,1.48-17.35.58-26.07a234.45,234.45,0,0,0-4.52-26.33c1.85,1,2.25,1.07,4,2.11C264,203.94,270.42,214.47,271.43,227.08Z" transform="translate(-168.1 -148.77)"/><path class="cls-4" d="M244.41,493.09a48.67,48.67,0,0,0,8-9.77c2.49-.76,4.93,0,7.25.59,6,1.46,13.61.64,19.61,1,2.3,1.46-.05,2.93-.81,4.8a54,54,0,0,1-6,11.48c-4.41,6.08-16.49,21.2-18.68,21.27-.55-.07-9.24-16.47-10.46-24.15A7.55,7.55,0,0,1,244.41,493.09Z" transform="translate(-168.1 -148.77)"/><path class="cls-4" d="M233.2,535.07c-25.26,10.86-35.39-1.79-37.33-3-2.65-1.69-6.7-6.52-6.39-6.95,6.51-9.43,24.19-27.51,27-29.22A38.84,38.84,0,0,0,227,501.25C229.43,506.45,234.16,529.71,233.2,535.07Z" transform="translate(-168.1 -148.77)"/><path class="cls-3" d="M252.43,483.32c3.48-7.11,5.36-11.16,6.08-19.3,9,.8,19.46-2,27.82-5.24.67.56-2.37,19.16-7,26.12C279,485,263.87,486.84,252.43,483.32Z" transform="translate(-168.1 -148.77)"/><path class="cls-5" d="M341.25,343.08c-4.46-4-2.48-5.48-4-8.09,1.71-2,3.35-4,4.95-5.93.86-5.93-4.21-19.4,3-19.63,4-.13,2,7.54,3.5,11.34,3.42-6.26,3.81-16.42,9.91-14.48,5.23,1.66.3,9.53-.77,14.9,3.95-.89,12.08-5.76,13.41-1,1,3.55-2.87,4.62-5.32,5.7-5.25,2.32-10.9,3.7-15.56,7.44C346.79,336.16,344.36,339.9,341.25,343.08Z" transform="translate(-168.1 -148.77)"/><path class="cls-3" d="M227,501.25c8,1.24,12.3-2.71,17.43-8.16,0,9.58,7.59,26.41,9.36,29.36.6,7.89-13.51,10.69-20.57,12.62C231.34,531.82,222.77,512.33,227,501.25Z" transform="translate(-168.1 -148.77)"/><path class="cls-6" d="M253.77,522.45c10.11-8.49,18.14-20.06,23.33-32.56.63-1.52,2.19-5,2.19-5,3.17-1.93,5.42-4.22,9.4-1.88-2.61,9-10.43,36.56-26.29,48C257.5,529.68,254.22,527.05,253.77,522.45Z" transform="translate(-168.1 -148.77)"/><path class="cls-6" d="M286.33,458.78c1.57-11.11,5.14-39,5.22-41.48.37-.6,3.42-7.65,7.75-8,.56,14.41-3.59,44.07-3.89,44.65C292.72,456.86,290.79,459.53,286.33,458.78Z" transform="translate(-168.1 -148.77)"/><path class="cls-3" d="M276.34,359.46c-8.32,6.8-11.85,10-20.69,17q-1.52-15.34-3-30.68c1-1.31,1.49-3.37,3.87-2.78,2.94,3.54,5.29,7.54,8.61,10.8C268.29,356.89,271.8,359.15,276.34,359.46Z" transform="translate(-168.1 -148.77)"/><path class="cls-7" d="M253.77,522.45c4.49,5.88,6.49,7.71,8.63,8.61-6.65,5.64-12,10.35-20.25,13.47-8.39-1.58-10-8.83-9-9.46C244.42,530.77,247.52,527.94,253.77,522.45Z" transform="translate(-168.1 -148.77)"/><path class="cls-6" d="M233.2,535.07c4.36,6.58,6.73,6.61,11.91,8.22-6.4,3-17.64,6.34-24.68,6.56-8.29,0-9.39-3.9-10.82-7.92.34-1.71.5-3.5,1.84-4.87C216.53,538.15,227,537.33,233.2,535.07Z" transform="translate(-168.1 -148.77)"/><path class="cls-8" d="M295.41,454c-1.22,8.59-5.77,26.11-6.72,29-2.27.92-4.51,1.26-9.4,1.88,3.71-8,5.35-16.7,7-26.12C286.67,458.46,291.55,456.82,295.41,454Z" transform="translate(-168.1 -148.77)"/><path class="cls-5" d="M297.85,395c-1.56-4-.38-6.93.46-12.33,1.66-4.8,34.15-42.1,38.93-47.63a17.46,17.46,0,0,1,4,8.09C337.12,348.05,302,390,297.85,395Z" transform="translate(-168.1 -148.77)"/><path class="cls-7" d="M299.3,409.33a48.13,48.13,0,0,1-7.75,8c.32-11.4,1.3-33.37.86-37.59.35-.64,2.78-6.29,6.27-5.29C299.35,379.71,299.35,403.52,299.3,409.33Z" transform="translate(-168.1 -148.77)"/><path class="cls-9" d="M305.48,179.07c-3.05,1.64-4.31-1.09-5.22-3.42-2.15-5.49-4.29-11-11.45-11.65a3,3,0,0,1-2.42-2.85,3.69,3.69,0,0,1,1.89-3.79c2.3-1.46,4.72-1.29,7.17-.31,5.58,2.26,11.82,11.31,12,17.37C307.47,176.18,307.31,178.09,305.48,179.07Z" transform="translate(-168.1 -148.77)"/><path class="cls-10" d="M189.48,525.09a11.67,11.67,0,0,1-4,7C178,522.24,174,516.13,170.5,505a35.58,35.58,0,0,0,3.88-3C178,510.33,189.46,524.76,189.48,525.09Z" transform="translate(-168.1 -148.77)"/><path class="cls-11" d="M185.44,532.07c.88-2.88,2.08-3.34,4-7,4.23,4.95,15,12.52,22,12-1.35,3.56,6.45,9.11,6.42,12.79C200.74,547,187.45,535.85,185.44,532.07Z" transform="translate(-168.1 -148.77)"/><path class="cls-12" d="M271.43,227.08c-2.53-10.85-7.95-20.54-12.25-30.68a16.87,16.87,0,0,0-2.1-4.15c4.31,2.06,8.62,6.39,11.51,10,1.11,1.39,3.57,4.58,4.88,6.49A118.47,118.47,0,0,0,271.43,227.08Z" transform="translate(-168.1 -148.77)"/><path class="cls-13" d="M282.45,266.11c0-.35-.18-6.41,3.88-4.89,2.07,10.66,5.44,30.38,5.91,31l-4.67,6a4.2,4.2,0,0,1-1.44-3c-1.32-8.12-2.58-16.24-4.12-24.32A6.89,6.89,0,0,1,282.45,266.11Z" transform="translate(-168.1 -148.77)"/><path class="cls-14" d="M286.33,261.22a40.81,40.81,0,0,0-3.88,4.89c-1-4.12-2-9.26-2.86-13.41a10.3,10.3,0,0,0-.52-2.37c2.26-1.49,3.08-.65,5.45-1.15Q285.42,255.2,286.33,261.22Z" transform="translate(-168.1 -148.77)"/><path class="cls-15" d="M256.51,343l-3.87,2.78L251.56,335A36.49,36.49,0,0,1,256.51,343Z" transform="translate(-168.1 -148.77)"/><path class="cls-4" d="M282.45,266.11c2,10.66,4.5,21.25,5.12,32.14a13.09,13.09,0,0,1-.85,1.21c-10,11.65-20,12.83-33.1-.15,10.65-7.49,18.59-17.43,25.53-28.26C280.22,269.38,281.35,267.75,282.45,266.11Z" transform="translate(-168.1 -148.77)"/><path class="cls-16" d="M298.68,374.42c-1.61,1.38-4.67,3.91-6.27,5.29,0-9.34-3.33-73.85-4.84-83.24.6.1,3.74-6.3,3.74-6.3S298.74,367.52,298.68,374.42Z" transform="translate(-168.1 -148.77)"/><path class="cls-17" d="M243.89,187.39c3.82-.53,9.09,26.53,8.66,39.6a24.16,24.16,0,0,1-2.18,9.68c-2.49,5.24-6.75,6-10.61,1.64-4.43-5-6.29-11.21-8.26-17.42-4-12.67-1-19.5,3.29-20.33,7.4-1.44,12.67,21.75,6.79,21.51-3.16-.14-2-15-6.72-13.92-4.15,1,4.25,27.08,9.61,26.17,5-.85,2.5-16.74.74-24.26C244.57,207.33,238.7,188.11,243.89,187.39Z" transform="translate(-168.1 -148.77)"/><path class="cls-2" d="M273.59,185.25c-4.49,16.43-9,32.85-8.86,50.09a24.59,24.59,0,0,0,2.6,11.42c4.19,8.07,12,8.25,18.4,1.77,7.28-7.4,16.23-50.39,14.34-65.21a15,15,0,0,0-4.53-9.64c-4.26-3.89-9.66-4.12-14.18-.52A21.8,21.8,0,0,0,273.59,185.25Z" transform="translate(-168.1 -148.77)"/><path class="cls-17" d="M282.88,241.11c3.71,1,11.81-29.35,12.78-44.27a31.22,31.22,0,0,0-1.11-11.21c-1.9-6.2-6-7.43-10.29-2.86-4.9,5.24-7.4,12.18-10,19.06-5.33,14-3.09,22.1,1.07,23.45,7.14,2.32,14.82-23.58,9-23.85-3.14-.15-3.56,16.92-8.13,15.21-4-1.5,7.1-30.42,12.28-28.89,4.87,1.43.68,19.29-1.86,27.68C285.68,218.48,277.83,239.81,282.88,241.11Z" transform="translate(-168.1 -148.77)"/><path class="cls-2" d="M305.54,257c-1.72-3.16-4.18-7.06.49-9.24,4.15-1.94,6.36,1.68,8.3,4.5A53.25,53.25,0,0,1,322,267.86a21.74,21.74,0,0,1,.74,4.89,3.36,3.36,0,0,1-2.64,3.74c-1.59.4-5.64-2.86-7.07-5.9-3.08,15.73-9.58,30.32-13.66,45.64-.75,2.43-2.57,9.46-3.32,11.47-1.63,4.3-5.08,18.65-6,21.65-2.32,7.23-6.25,10.49-13.31,11-16.15.71-40.1-51.58-46.58-66.2-.13,7.34,1.69,17-7.15,17.64-4.62.36-6.66-3.9-6.68-8.13,0-13.54,1.51-26.87,6.09-39.72a11.71,11.71,0,0,1,.6-1.36c1.34-2.76,2.72-5.81,6.55-4.67s3.2,4.58,2.79,7.54c-.39,2.79-.67,5.64-.8,8.69,2.94,3.51,17.56,20.53,22.67,24.46,15.4,14,23.05,9.86,32.29-.83C288.58,296.1,302.85,269.91,305.54,257Z" transform="translate(-168.1 -148.77)"/><path class="cls-18" d="M285.84,354.19c-3.48-1.47-13.66-.12-17.76-4-2.43-2.31-5.2-10.65-.32-15.14,18.54-17.07,42.79-6.59,50.54-.17,3.36,2.78,10.76,12.1,12.84,18.38,4.5,13.57,8,57.42-8.91,56.86-15.42-.51-14.94-25-17.33-32C299.43,362.06,288.53,355.14,285.84,354.19Z" transform="translate(-168.1 -148.77)"/><path class="cls-19" d="M307.68,335c14.37,9.94,17,37.55,12.48,34.11-2.63-2-8.14-19.25-15.54-26.26-9.7-9.18-32.79-4.47-33.55-6.64C269.8,332.64,294.43,325.86,307.68,335Z" transform="translate(-168.1 -148.77)"/><path class="cls-20" d="M228.37,555.39c5.52,2.85,5.52,7.92.24,11.18s-24.44,10.31-26.17,3.89c-1.6-5.93,10.89-6.24,16.05-10-18.45-5.44-21.35-18-17.34-26.05,5.42-10.64,37.4-24.82,39.08-15.92,1,5-26.43,14.9-29,23.21C209.61,547,224.84,553.57,228.37,555.39Z" transform="translate(-168.1 -148.77)"/><path class="cls-11" d="M174.38,502s-6.24-15.17-6-22.94c0,0-1.47,7.86,2.1,26" transform="translate(-168.1 -148.77)"/></svg>