<svg id="Capa_1" data-name="Capa 1" xmlns="http://www.w3.org/2000/svg" viewBox="0 0 233.11 279.98"><defs><style>.cls-1{fill:#3c453e;}.cls-2{fill:#f1dfbb;}.cls-3{fill:#c6ab74;}.cls-4{fill:#3e463c;}.cls-5{fill:#41483d;}.cls-6{fill:#c55f34;}.cls-7{fill:#dcbe7f;}.cls-8{fill:#e5d5b2;}.cls-9{fill:#847454;}.cls-10{fill:#988b71;}.cls-11{fill:#e6a387;}.cls-12{fill:#fdfdfd;}.cls-13{fill:#3c443a;}.cls-14{fill:#827253;}</style></defs><title>galeta</title><path class="cls-1" d="M270.58,364.85c2.36-1.77,6.46-2.85,9.41-3.34.37,11.61,1.05,34.84,1.05,34.84s17.13,4.3,16.52,13.25c-.16,2.27-24.75-1.15-25.6-9.25A348.86,348.86,0,0,1,270.58,364.85Z" transform="translate(-124.3 -131.15)"/><path class="cls-1" d="M222,363.82c-2.49-1.57-6.67-2.31-9.64-2.56.57,11.6,1.78,34.81,1.78,34.81s-16.72,5.68-15.38,14.55c.34,2.25,24.57-3.16,24.76-11.3A346.28,346.28,0,0,0,222,363.82Z" transform="translate(-124.3 -131.15)"/><path class="cls-2" d="M129.1,226.23c6.24-9.62,6-21.19,9.55-31.64a36.52,36.52,0,0,1,8.18-13.48A221,221,0,0,1,198.42,140a43.37,43.37,0,0,1,12.1-4.49c4-.92,7.62-2.93,11.68-4,2.25-.62,4.66,0,7,0,5.82,2.89,12,2.17,18.06,1.43,4-.49,8.11-1.27,11.84.19,13.5,5.27,27.66,8.46,41.26,13.4,7.72,2.8,13.35,8,18,14.41a44.67,44.67,0,0,0,8.45,9.08c5.42,4.33,9.63,9.6,11.07,16.65-2.56-1.69-4.12-4.28-6-6.6-4.69-5.81-10.58-10.09-16.44-14.72-11.86-9.37-25.61-14.38-38.64-21.11-8.2-4.24-16.29-6.54-25.32-3.07a25.81,25.81,0,0,1-11.82,1.36c-6.37-.61-12.23,1-17.83,3.74a63.74,63.74,0,0,1-25.47,6.32c-8.58.45-15.65,4.61-21.71,10.22-10,9.27-19.76,18.88-25.93,31.39-.67,1.35-1.49,2.58-1.41,4.17.28,5.58-1.95,9.68-7.17,12-2,.88-2.08,2.85-2.79,4.48C135.4,219.14,133.62,223.67,129.1,226.23Z" transform="translate(-124.3 -131.15)"/><path class="cls-3" d="M354.18,226.31c4.48,15.75,4.13,31.59,0,47.25-7,26.4-18.31,50.55-38.3,69.93-6.25,6.07-20.26,21.89-53.73,26C211.25,375.63,192.52,359,179.64,350c-22.39-15.66-38.81-35.72-46.27-62.4-.84-3-1.14-6.17-1.7-9.26,4,8.42,11.49,14.81,13.71,24.41A26.86,26.86,0,0,0,155.87,319c6.58,4.9,12.26,11.11,18.74,16.3,1.34,1.07,2.62,2.12,4.4,2,4.82-.33,8.72,1.9,12.36,4.56,7.6,5.54,16.4,6.93,25.37,7.4,5.31.28,10.62-.12,15.57,2.47a6.15,6.15,0,0,0,3.39.4c13.3-1.57,26.59-3.23,39.89-4.8a7.08,7.08,0,0,0,4.3-2.22c3.2-3.14,55-56.28,63.41-61.68,4-5,4-11.41,4.85-17.48C350,252.69,352.15,239.5,354.18,226.31Z" transform="translate(-124.3 -131.15)"/><path class="cls-4" d="M284.08,233c-.38,3.58-.19,7.32-1.94,10.66-2.24,4.27-5.82,6.11-10.67,5.71-4.65-.39-6.27-4.13-6.81-7.33a51.6,51.6,0,0,1,.25-20.85c.91-3.75,2.79-6.4,6.68-7.14,4.1-.77,7.15,1,9.19,4.48C283.4,223,283.78,228,284.08,233Z" transform="translate(-124.3 -131.15)"/><path class="cls-5" d="M271.81,197.2c1.22-.18,2.59-1.49,3.62,0,.92,1.36-.18,2.58-1,3.54a132.88,132.88,0,0,1-16.34,16c-.83.68-1.74,1.12-2.71.52a2.09,2.09,0,0,1-.59-3.07q6.89-12.1,13.91-24.16c.58-1,1.55-1.91,2.88-1.2,1.49.8,1.34,2.12.78,3.46s-1,2.44-1.54,3.67a31.14,31.14,0,0,1-2,4S271.15,198,271.81,197.2Z" transform="translate(-124.3 -131.15)"/><path class="cls-6" d="M215.86,256.58c-1.67,4-3.23,8.57-7.19,11.69a3,3,0,0,1-3.71.05,3.65,3.65,0,0,1-1.57-4.36,20.68,20.68,0,0,1,8-10.41C213.68,252.07,215.81,253.48,215.86,256.58Z" transform="translate(-124.3 -131.15)"/><path class="cls-6" d="M216.87,265a32.39,32.39,0,0,1,5.18-10.4,3.25,3.25,0,0,1,4-1,2.94,2.94,0,0,1,1.8,3.67,25.24,25.24,0,0,1-5,10.7,3.54,3.54,0,0,1-4.47,1.14C216.84,268.34,216.74,266.8,216.87,265Z" transform="translate(-124.3 -131.15)"/><path class="cls-6" d="M291.66,255.13c.08,2.33-6.08,11.94-7.91,12.56-2.21.73-3.56-.26-4.05-2.37-.63-2.67,5.67-12.39,8.27-12.82C290.21,252.13,291.4,253.23,291.66,255.13Z" transform="translate(-124.3 -131.15)"/><path class="cls-6" d="M276.13,257.82a36,36,0,0,1-3.84,9.73,3,3,0,0,1-3.81,1.53,2.85,2.85,0,0,1-1.82-3.63c1.06-3.64,2.26-7.28,4.95-10.14.93-1,2-1.87,3.47-1C276.24,255,276.22,256.23,276.13,257.82Z" transform="translate(-124.3 -131.15)"/><path class="cls-7" d="M311.44,323.46c9.26-5.8,19.81-10,22.8-22.5a45.88,45.88,0,0,1,9.06-17.57c4-5,4-11.41,4.85-17.48,1.88-13.22,4-26.41,6-39.6-.64-15.22-9.43-27.08-16.33-39.72-2.56-1.69-4.12-4.28-6-6.6-4.69-5.81-10.58-10.09-16.44-14.72-11.86-9.37-25.61-14.38-38.64-21.11-8.2-4.24-16.29-6.54-25.32-3.07a25.81,25.81,0,0,1-11.82,1.36c-6.37-.61-12.23,1-17.83,3.74a63.74,63.74,0,0,1-25.47,6.32c-8.58.45-15.65,4.61-21.71,10.22-10,9.27-19.76,18.88-25.93,31.39-.67,1.35-1.49,2.58-1.41,4.17.28,5.58-1.95,9.68-7.17,12-2,.88-2.08,2.85-2.79,4.48a34.45,34.45,0,0,1-8.23,11.51,14.09,14.09,0,0,0-3.83,6.14,25.67,25.67,0,0,0,0,14c1.32,4.49,3.9,8.22,4,12.92.14,6.43.58,12.84,2.39,19.07,4,8.42,11.49,14.81,13.71,24.41A26.86,26.86,0,0,0,155.87,319c6.58,4.9,12.26,11.11,18.74,16.3,1.34,1.07,2.62,2.12,4.4,2,4.82-.33,8.72,1.9,12.36,4.56,7.6,5.54,16.4,6.93,25.37,7.4,5.31.28,10.62-.12,15.57,2.47a6.15,6.15,0,0,0,3.39.4c13.3-1.57,26.59-3.23,39.89-4.8a7.08,7.08,0,0,0,4.3-2.22c3.2-3.14,6.42-6.25,9.63-9.37M254.78,214.23q6.89-12.1,13.91-24.16c.58-1,1.55-1.91,2.88-1.2,1.49.8,1.34,2.12.78,3.46s-3.5,7.64-3.5,7.64,5.55-4.26,6.58-2.74c.92,1.36-.18,2.58-1,3.54a132.88,132.88,0,0,1-16.34,16c-.83.68-1.74,1.12-2.71.52A2.09,2.09,0,0,1,254.78,214.23Zm-38.92,42.35c-1.67,4-3.23,8.57-7.19,11.69a3,3,0,0,1-3.71.05,3.65,3.65,0,0,1-1.57-4.36,20.68,20.68,0,0,1,8-10.41C213.68,252.07,215.81,253.48,215.86,256.58Zm1,8.42a32.39,32.39,0,0,1,5.18-10.4,3.25,3.25,0,0,1,4-1,2.94,2.94,0,0,1,1.8,3.67,25.24,25.24,0,0,1-5,10.7,3.54,3.54,0,0,1-4.47,1.14C216.84,268.34,216.74,266.8,216.87,265Zm59.26-7.18a36,36,0,0,1-3.84,9.73,3,3,0,0,1-3.81,1.53,2.85,2.85,0,0,1-1.82-3.63c1.06-3.64,2.26-7.28,4.95-10.14.93-1,2-1.87,3.47-1C276.24,255,276.22,256.23,276.13,257.82Zm-4.66-8.45c-4.65-.39-6.27-4.13-6.81-7.33a51.6,51.6,0,0,1,.25-20.85c.91-3.75,2.79-6.4,6.68-7.14,4.1-.77,7.15,1,9.19,4.48,2.62,4.43,3,9.43,3.3,14.47-.38,3.58-.19,7.32-1.94,10.66C279.9,247.93,276.32,249.77,271.47,249.37Zm12.28,18.32c-2.21.73-3.56-.26-4.05-2.37-.63-2.67,5.67-12.39,8.27-12.82,2.24-.37,3.43.73,3.69,2.63C291.74,257.46,285.58,267.07,283.75,267.69Z" transform="translate(-124.3 -131.15)"/><path class="cls-5" d="M208.78,199.31c-.67,1.49.64,2.5,1.62,3.29a133.25,133.25,0,0,0,18.95,12.82c.94.52,2.64,1.26,3.49.5,1.07-1,.11-2.65-.69-3.6q-9-10.68-18-21.27c-.76-.88-1.88-1.61-3.06-.66s-.93,2.32-.14,3.54,1.45,2.22,2.17,3.33a31,31,0,0,0,2.64,3.55S209.52,197.62,208.78,199.31Z" transform="translate(-124.3 -131.15)"/><path class="cls-8" d="M269.87,222.07c-.06-2,.55-3.7,3.38-3.88,2.59-.16,5.2,3.35,5.12,6.79,0,2.05-.9,3.65-3.58,3.87S269.87,226.06,269.87,222.07Z" transform="translate(-124.3 -131.15)"/><path class="cls-9" d="M324.23,221.31c7.88,1.12,7.64,8,5.93,11.65a7.26,7.26,0,0,1-7.79,4.24c-4-.38-7.5-2-9-6.06-2.12-5.85,3-10.4,10.84-9.83" transform="translate(-124.3 -131.15)"/><path class="cls-10" d="M318,225c1.9-3.49,4.84-1.76,7.43-1.37a1.8,1.8,0,0,1,1.43,2.26c-.89,3.39-3,1.63-5.83,2.17C317.82,227.65,317.32,226.78,318,225Z" transform="translate(-124.3 -131.15)"/><path class="cls-4" d="M203.93,229.36c-.05-4,.32-8,2.74-11.4,3.65-5.14,10.56-5.22,13,.54,2.71,6.43,3.54,13.7,3.56,20.72,0,4.46-1.93,8.23-6.62,9.4-4.88,1.2-7.85-1.66-9.75-5.76A30.22,30.22,0,0,1,203.93,229.36Z" transform="translate(-124.3 -131.15)"/><path class="cls-8" d="M208.6,224.58c.19-4,1.2-6,4.77-6.08,3.25-.07,4.71,2.87,4.8,5.94s-1.63,5-4.79,5.08A4.56,4.56,0,0,1,208.6,224.58Z" transform="translate(-124.3 -131.15)"/><path class="cls-11" d="M257.82,273c0,5,.12,10,.13,15,0,2.72,1.76,13.38-7.43,13.38-3.79,0-6.93-2.76-8.78-6.82-3.18-6.94-3.3-13.16-3.53-22.49C244.64,274.35,251.23,273.65,257.82,273Z" transform="translate(-124.3 -131.15)"/><path class="cls-12" d="M257.82,273c-6.59.7-13.18,1.4-19.61-.95.12-12.45.12-12.45,11-12.57,8.53-.1,8.54-.1,8.71,8.59C257.93,269.66,257.85,271.31,257.82,273Z" transform="translate(-124.3 -131.15)"/><path class="cls-13" d="M214.73,339.53c-4.89.15-8.7-2.11-11.73-5.64-4-4.67-7.76-9.53-11.58-14.35-1.44-1.82-2.36-3.94-.25-5.74s4.21-.67,5.73,1c4,4.42,8.06,8.85,11.72,13.57,3.15,4.06,6.63,4.47,10.92,2.28,4.93-2.53,13.28-9.64,13.28-9.64s-1.72-11.46,9.21-12.63c4-.44,7.38,2.89,8,6.77.79,5-3.29,12.6-11.81,10.82-3.65,3.15-8.92,8-13.13,10.38C221.87,338.19,218.52,339.6,214.73,339.53Z" transform="translate(-124.3 -131.15)"/><path class="cls-13" d="M315.14,301.32c4.51-.15-4.51,33.17-16.92,36.08-7.58,1.78-20.81-15.44-20.81-15.44s-10,3.1-10.89-8c-.32-4.19,4.19-8.2,9-7.52,9,1.3,6.81,10,6.81,10s11.18,12.26,14,12C302.71,327.79,310.3,301.47,315.14,301.32Z" transform="translate(-124.3 -131.15)"/><path class="cls-9" d="M307.19,266h0c-8.76-2.34-14.88.29-19.25,8.28-5.41,3.34-7.3,9.21-5.3,16.06,3.24,11.06,23.24,17.3,33.05,6.06C325.12,285.63,320.29,269.4,307.19,266Z" transform="translate(-124.3 -131.15)"/><path class="cls-10" d="M290.77,276.23c2.36-7.32,11.27-10.14,17.85-7.09,5.19,2.4,3.8,6.43-1.39,7.84a54.45,54.45,0,0,0-7.7,3.24C294.58,282.42,289.09,281.46,290.77,276.23Z" transform="translate(-124.3 -131.15)"/><path class="cls-14" d="M312.12,190.08c-2.18,4.9-7.3,7.66-12.12,6.53-6.73-1.57-10.93-6.38-10.9-12.46a10.63,10.63,0,0,1,11.07-10.91C313.69,173.52,314.69,184.3,312.12,190.08Z" transform="translate(-124.3 -131.15)"/><path class="cls-10" d="M306.88,177.16a3.82,3.82,0,0,1-1.76,5.23c-2.65,1.25-5.83,2.81-8-.28s.82-4.92,2.87-6.3C302.27,174.25,305.69,174.84,306.88,177.16Z" transform="translate(-124.3 -131.15)"/><path class="cls-9" d="M164.89,261.76a7.38,7.38,0,0,1-7.61,7A7.37,7.37,0,0,1,158,254,7.51,7.51,0,0,1,164.89,261.76Z" transform="translate(-124.3 -131.15)"/><path class="cls-10" d="M158.3,261.39c-1.29-.2-2.88.36-2.82-2.13.06-2.28,1.48-2.51,2.83-2.51s2.65.26,2.69,2.33C161,261.68,159.3,261,158.3,261.39Z" transform="translate(-124.3 -131.15)"/><path class="cls-9" d="M182.38,297c-5.28-.09-9.74-4.94-9.75-10.6,0-6,4.45-10.94,9.92-11,5.72,0,11.77,5.64,11.58,10.84C193.92,291.81,188.17,297.06,182.38,297Zm2.05-10.63c2.06-.52,5.67.45,5.58-3.51-.08-3.14-2.92-3.54-5.56-3.54-2.81,0-5.75.36-5.86,3.82C178.45,286.89,181.75,286,184.43,286.34Z" transform="translate(-124.3 -131.15)"/><path class="cls-10" d="M184.43,286.34c-2.68-.31-6,.55-5.84-3.23.11-3.46,3-3.81,5.86-3.82,2.64,0,5.48.4,5.56,3.54C190.1,286.79,186.49,285.82,184.43,286.34Z" transform="translate(-124.3 -131.15)"/><path class="cls-14" d="M194.65,201.07c0,10.32-6.56,18.13-15.2,18.14s-16.92-8.2-16.94-16.94c0-8.34,8-15.31,17.58-15.3C188.85,187,194.66,192.61,194.65,201.07Zm-16.54-11.83a27.46,27.46,0,0,0-3.05.61c-3.05.84-5.3,2.61-4.2,6,1,3.11,3.63,3.32,6.53,2.49a42.91,42.91,0,0,1,6.28-1.18c1.75-.22,3.36-.54,3.68-2.58.3-1.87-.79-3.11-2.24-4.08C183.39,189.38,181.46,189.06,178.11,189.24Z" transform="translate(-124.3 -131.15)"/><path class="cls-10" d="M178.11,189.24c3.35-.18,5.28.14,7,1.29,1.45,1,2.54,2.21,2.24,4.08-.32,2-1.93,2.36-3.68,2.58a42.91,42.91,0,0,0-6.28,1.18c-2.9.83-5.53.62-6.53-2.49-1.1-3.42,1.15-5.19,4.2-6A27.46,27.46,0,0,1,178.11,189.24Z" transform="translate(-124.3 -131.15)"/></svg>