<svg id="Capa_1" data-name="Capa 1" xmlns="http://www.w3.org/2000/svg" viewBox="0 0 301.15 312.16"><defs><style>.cls-1{fill:#c34747;}.cls-2{fill:#eeebeb;}.cls-3{fill:#9e3939;}.cls-4{fill:#d8d0d0;}.cls-5{fill:#3b443c;}.cls-6{fill:#3d463f;}.cls-7{fill:#3c453d;}.cls-8{fill:#3b4038;}.cls-9{fill:#d96a6a;}.cls-10{fill:#d76565;}.cls-11{fill:#c54c4c;}.cls-12{fill:#d9d1d1;}</style></defs><title>mitjo</title><path class="cls-1" d="M746.88,418.06c-.84,2.1-1.86,2-2.62,2.83-14,16.08-29.16,30.79-46.74,42.95-17.15,11.85-35.86,20.75-54.63,29.61-15.32,7.23-31.1,11.14-48.1,9.44-2.8-.28-5.65,0-8.48-.06-8.35-.21-16.33-2.22-24.2-4.9-9.31-3.17-16.68-9.36-24.36-15.09.1-1.14-8.17-7.24-12.27-14.91-16-20.48-25.44-44.2-34-68.35-.79-2.23-.06-3.32,2.17-4,17.15-5.33,33.61-12.45,50-19.68,14.73-6.5,29.81-12.17,43.93-20,4.76-2.66,9.05-6.19,14.31-7.95.72,2.36,1.5,4.7,2.16,7.08,2.91,10.5,4.5,21.34,8.13,31.66-.41,9.62,5.72,16.26,15.22,16.25,8.53,0,15.67-3.73,22.06-9,19.08-15.71,40.49-21.66,64.85-16,6.13,1.44,11.46,5.16,17.79,5.9,6.86,4.73,10.64,11.49,12.9,19.29A102.91,102.91,0,0,1,746.88,418.06Zm-93.66,56.78c9.74-1.32,18.15-5.14,24.2-13.17,1-1.36,2.41-3.16.64-4.91-1.59-1.58-3.31-1-4.9.31-6.31,5-13.21,8.71-21.34,9.83-2.43.33-4.08,1.85-3.73,4.41C648.46,474.11,650.59,475,653.22,474.84Z" transform="translate(-445.73 -264.47)"/><path class="cls-2" d="M506.43,285a86.8,86.8,0,0,0,20.46-5.59c12.14-4.84,24.33-9.5,36.83-13.3,1.22-.37,16.14-5,23.46,3.51,13,11.78,27.48,43.93,26.87,44.38a11.64,11.64,0,0,0-2,1.46c-11.6,13.36-26.73,21.74-42.24,29.37-28.18,13.86-57.35,25-88.44,30.61-13.78,2.51-16.95,1.39-23.07-11-.88-1.78-1.44-3.73-2.4-5.47-3.74-6.77-5.39-14.53-9.86-21-.65-.34-.13-8.42-.14-9.37,0-11.14,8.16-16.5,15.85-21.84,4.76-3.32,13.65-8.51,21.16-14.25" transform="translate(-445.73 -264.47)"/><path class="cls-2" d="M487.68,332" transform="translate(-445.73 -264.47)"/><path class="cls-3" d="M537.75,482.84c7.68,5.73,15,11.92,24.36,15.09,7.87,2.68,15.85,4.69,24.2,4.9,2.83.07,5.68-.22,8.48.06,17,1.7,32.78-2.21,48.1-9.44,18.77-8.86,37.48-17.76,54.63-29.61,17.58-12.16,32.78-26.87,46.74-42.95.76-.87,1.29-2.16,2.62-2.83a49.47,49.47,0,0,1-.44,5.59c-2.31,11.8-14.59,25.8-25.85,35.63a371,371,0,0,1-30.09,23.64c-2.65,1.35-5.47,2.43-7.52,4.73-15,7.28-30,14.26-45.78,19.68-4.55,1.57-9.16,3-13.74,4.51-3.25.8-6.68,1-9.6,2.94-6.45.09-12.61,2.61-19.1,2.3l-8.13.7c-19.07-.51-36.55-5.35-50.93-18.65C534.59,493.47,535.61,488.08,537.75,482.84Z" transform="translate(-445.73 -264.47)"/><path class="cls-3" d="M599.94,340c.64,2.63,1.28,5.27,1.93,7.9-5.26,1.76-9.55,5.29-14.31,7.95-14.12,7.87-29.2,13.54-43.93,20-16.4,7.23-32.86,14.35-50,19.68-2.23.7-3,1.79-2.17,4,8.59,24.15,18.06,47.87,34,68.35,2.43,3.12,9,12.54,12.27,14.91-2,4.54-.81,11.47-2,16.29-3.56-3.55-14-15.94-16.46-20.29-16.21-29.12-29.63-60.77-41.06-92.06,3.32-1,6.63-.88,10-1.86,28.52-8.28,57.09-16.47,83.69-30.09C581.27,350,590.57,345,599.94,340Z" transform="translate(-445.73 -264.47)"/><path class="cls-4" d="M599.94,340c-9.37,5-18.67,10-28.1,14.84-26.6,13.62-55.17,21.81-83.69,30.09-3.34,1-15,2.57-17.4,3.08-8.29,1.77-12.72-.95-14.85-9.15-2.69-10.4-5.6-20.74-8.38-31.12-.85-3.2-1.73-6.4-1.46-9.77,4.47,6.42,6.12,14.18,9.86,21,1,1.74,1.52,3.69,2.4,5.47,6.12,12.4,9.29,13.52,23.07,11,31.09-5.64,60.26-16.75,88.44-30.61,15.51-7.63,30.64-16,42.24-29.37a11.64,11.64,0,0,1,2-1.46c.78,9-2.18,16.21-9.81,21.47C602.61,336.55,600.35,337.53,599.94,340Z" transform="translate(-445.73 -264.47)"/><path class="cls-5" d="M533.17,476.93c1-1.1,2.26-2.84,4.16-1.59,1.45,1,.58,6.37.42,7.5-3.82,26.79,0,34.73,1.38,43.91.45,3.1,2.65,2.37,4.36,2.88,5.14,1.55,8,7.39,6.32,12.87A9.5,9.5,0,0,1,537.64,549c-4.38-1.53-6.6-4.94-5.78-9.26.73-3.86-.59-6.84-1.64-10.27-2.88-9.48-3.38-20.58-3.27-30.38C527,495.93,529.79,480.56,533.17,476.93Z" transform="translate(-445.73 -264.47)"/><path class="cls-6" d="M613.86,514.78c2.92-1.9,6.35-2.14,9.6-2.94,4,3.18,8.3,6.1,12,9.58,5.81,5.4,6.62,10.28,3.41,17.57-2.63,6-6.48,11.21-10.29,16.47s-2.06,9.78,4.27,11.44a42.44,42.44,0,0,0,7.4.94,13.69,13.69,0,0,1,5.78,1.35c1.34.77,2.42,1.88,2.24,3.58s-1.45,2.52-2.94,3c-8.08,2.84-20.85-2-25.3-9.55-3.23-5.49-3.08-8.71.88-13.69a100.2,100.2,0,0,0,10.51-15.75c2.26-4.31,1.87-7.48-2.62-10.53C623.66,522.76,618.2,519.45,613.86,514.78Z" transform="translate(-445.73 -264.47)"/><path class="cls-6" d="M586.63,517.78l8.13-.7c1,12.6,1.75,25.21,3,37.78.52,5.32-1,9.23-5.7,11.6-6.38,3.21-12.84,6.27-19.34,9.23-2.25,1-4.74,1.08-6-1.62s.32-4.58,2.53-5.68c5.66-2.81,11.37-5.51,17.15-8,2.47-1.08,3.46-2.31,3.19-5.24C588.39,542.68,587.57,530.22,586.63,517.78Z" transform="translate(-445.73 -264.47)"/><path class="cls-7" d="M683,487.65c2-2.3,4.87-3.38,7.52-4.73,2.58,11,1.38,22.09.31,33.14a8.33,8.33,0,0,1-6,7.35,10.43,10.43,0,0,1-10.29-2.14A5.66,5.66,0,0,1,673,514c1.63-3.25,3.62-6.59,7.06-8.09a4.74,4.74,0,0,0,3.21-4.38C683.91,496.88,684.15,492.26,683,487.65Z" transform="translate(-445.73 -264.47)"/><path class="cls-8" d="M613.84,489.92a20.06,20.06,0,0,1-9.94-4.52c-1.46-1.27-2.55-2.85-1.54-4.82s2.95-2,4.8-1.46c1.6.45,3,1.41,4-1.07,5.41-13.28,16.61-19.49,29.67-21.63,9.75-1.59,18-5.48,25.94-10.72,7.73-5.09,16-8.09,25.45-6.18,1.45.29,2.6.16,3.49-1.16a5.4,5.4,0,0,1,1.37-1.41,3.29,3.29,0,0,1,4.87.57c2,2.29,4.1,12.5-.95,12.75s-5.63-3.68-7.48-3.81a57.53,57.53,0,0,0-11.42,1.27c-7,1.38-12.61,6-18.36,9.85-6.9,4.66-14.62,6.37-22.53,7.36-11.56,1.45-24.17,14.22-21.27,18C623.46,487.51,621.21,491,613.84,489.92Z" transform="translate(-445.73 -264.47)"/><path class="cls-9" d="M612.16,386.63c8.51,7.31,17.4,7.53,27.08,2.11a130.08,130.08,0,0,1,51.85-16.27c14.85-1.38,29,1.37,41,11.34-6.33-.74-11.66-4.46-17.79-5.9-24.36-5.69-45.77.26-64.85,16-6.39,5.27-13.53,9-22.06,9C617.88,402.89,611.75,396.25,612.16,386.63Z" transform="translate(-445.73 -264.47)"/><path class="cls-10" d="M653.22,474.85c-2.63.14-4.76-.74-5.13-3.54-.35-2.56,1.3-4.08,3.73-4.41,8.13-1.12,15-4.82,21.34-9.83,1.59-1.27,3.31-1.89,4.9-.31,1.77,1.75.4,3.55-.64,4.91C671.37,469.7,663,473.52,653.22,474.85Z" transform="translate(-445.73 -264.47)"/><path class="cls-11" d="M477.58,299.21c5.41-8.77,13.78-13.81,22.81-17.93,3.53-1.62,5.17.55,6,3.67.29,13.68,2.58,26.86,9.57,38.89-4.38.71-6.26,1.4-9,3.22a87.54,87.54,0,0,1-9-35.39c-11.28,4.22-22.21,23.85-11.81,40.26-1.56,2.66-3.26,2.41-6.22,6.5-5.06-3.59-6-9.24-6.91-14.7C471.57,315.08,473.48,306.91,477.58,299.21Z" transform="translate(-445.73 -264.47)"/><path class="cls-12" d="M479.37,338a12.21,12.21,0,0,1,14.15-6.05S482,340,492.33,356.79a20,20,0,0,0,2.08,2.45,14.55,14.55,0,0,1-10.78-1.16c-3.87-2-7.2-8.33-6.27-13.26C477.79,342.6,478.18,340,479.37,338Z" transform="translate(-445.73 -264.47)"/><path class="cls-12" d="M516,323.84c-1.91,3.18-2,4.76-2.59,7.35-1.64,7.56.87,13.31,7.28,17.92-4.69,1.65-8.94,1.95-12.77-1.82-3.65-3.61-5.8-9.69-4.61-14.63C503.77,330.74,504.4,324.35,516,323.84Z" transform="translate(-445.73 -264.47)"/><path class="cls-1" d="M686,419.94l-.51.45.41-.55Z" transform="translate(-445.73 -264.47)"/><path class="cls-8" d="M564.94,458.82c-3.76-8,9.36-9.88,23.29-14.77s25.91-10.25,29.28-4.51-16,12.35-26.42,15.63C582.19,458,568.15,465.64,564.94,458.82Z" transform="translate(-445.73 -264.47)"/><path class="cls-8" d="M651.9,422.59c-4.42-7.62,8.48-10.65,21.94-16.73s24.93-12.43,28.78-7-14.85,13.68-25,17.84C669,420.24,655.69,429.11,651.9,422.59Z" transform="translate(-445.73 -264.47)"/><circle class="cls-8" cx="161.25" cy="186.17" r="7.54"/><circle class="cls-8" cx="231.34" cy="153.59" r="7.54"/><path class="cls-8" d="M618.81,455.42c-1.08-1.48-3.76,1.67-6.72,3.11s-7.29.49-7.66,2c-.55,2.2,5.17,1.1,8.19,0S620,457.07,618.81,455.42Z" transform="translate(-445.73 -264.47)"/><path class="cls-8" d="M674.65,429c-.27-1.82,3.85-1.45,7-2.51s5.54-4.76,6.82-4c1.94,1.18-2.9,4.41-5.83,5.75S675,431,674.65,429Z" transform="translate(-445.73 -264.47)"/></svg>