<svg id="Capa_1" data-name="Capa 1" xmlns="http://www.w3.org/2000/svg" viewBox="0 0 176.44 289.41"><defs><style>.cls-1{fill:#39433a;}.cls-2{fill:#556157;}.cls-3{fill:#d9c661;}.cls-4{fill:#566359;}.cls-5{fill:#cec7c6;}.cls-6{fill:#555b56;}.cls-7{fill:#8da4d5;}.cls-8{fill:#3b443b;}.cls-9{fill:#6a7fae;}.cls-10{fill:#667cac;}.cls-11{fill:#89a0d1;}.cls-12{fill:#f2f3f2;}.cls-13{fill:#eeebea;}.cls-14{fill:#434d45;}.cls-15{fill:#3d473f;}</style></defs><title>pingui</title><path class="cls-1" d="M822.53,521.93a74.61,74.61,0,0,1,24.88-36.68c-11.36-2.81-17.88-10.59-22.94-20,2.33-17.77,7.63-34,20.67-47.32,10.11-10.29,21.2-18.5,35.22-22.42A30.13,30.13,0,0,1,890.63,394a36.12,36.12,0,0,1,14.2,5.54,79.83,79.83,0,0,1,22.9,23.41c8.14,12.65,7.8,25.95,1.42,39-3.22,6.6-13.41,13.34-19.24,17.38-1.29.89-.29,1.05,3,3.69,5.36,4.31,8.46,10.68,13.61,15.21,16.26,21.11,26,45.11,30.74,71.15a67.87,67.87,0,0,1,.59,23.28c-.33,2-.43,4.09-3.09,4.42-2.18-2-2.09-4.78-2.47-7.37-2.74-18.82-6.4-37.39-14-55a77.19,77.19,0,0,0-26.58-33c-21.4-15.21-42.38-5.34-53.25,12.62a87.36,87.36,0,0,0-6.6,14.54c-.63,1.67-.91,3.61-2.85,4.47a2.24,2.24,0,0,1-1.46-.23c-1.06-3.75-.09-7.47.3-11.18a14.5,14.5,0,0,0-.29-5.87c-1.85-6-6.09-7.63-11.37-4.14a53.53,53.53,0,0,0-9.29,8.12C825.81,521.22,824.87,523.31,822.53,521.93Z" transform="translate(-802.87 -393.22)"/><path class="cls-2" d="M822.53,521.93c4.68-2.57,7.2-7.58,11.79-10.32,3-1.78,5.67-4.42,9.39-2.63,4.36,2.11,5.95,6.25,5.79,10.71s-1.17,8.8-1.81,13.19c.75,3-.66,5.68-.87,8.54a9.6,9.6,0,0,1-.31,1.39,19.4,19.4,0,0,0-.8,4.15,12.08,12.08,0,0,1-.29,1.43,15.11,15.11,0,0,0-.35,5.19,46.13,46.13,0,0,1-2,13.66c-2.44,6.61-2.73,13.63-4,20.47A153.39,153.39,0,0,1,833,612.39c-1.43,4-2.84,8.2-6.91,10.56-9.67,4.21-15.57,2-19.44-8.15-4.45-11.62-4.57-23.82-2.58-35.9C807.38,559,812.37,539.62,822.53,521.93Z" transform="translate(-802.87 -393.22)"/><path class="cls-3" d="M845.87,542.67l-.14-.24c1.21-3.11,1.09-6.63,3-9.53,2.52-5.78,4.75-11.71,7.6-17.32,12.43-24.47,39.24-29.76,60.28-12.11,15,12.57,23.65,28.9,29.06,47.36,4.41,15.06,6.7,30.51,9.12,45.94a3.39,3.39,0,0,1,0,4.51c-1.94,5.73-3.64,11.6-8.15,16-2.26-2.58-1.34-5.68-1.44-8.61.11-24.66-5.47-48.22-14.44-71-4.47-11.37-12.1-20.67-21.82-28.06-15.41-11.7-32.48-8.4-42.48,8.35a92.72,92.72,0,0,0-11,30.39,233.31,233.31,0,0,0-4.29,53.14c.33,8,2,15.84,3,23.75.32,3.2,1.89,6,3,8.88.82,2.07,2.29,4.19.52,6.51a43.46,43.46,0,0,1-9-2.28c-5.52-8.64-6.45-18.68-8.37-28.36-2.82-14.19-.32-28.36,1-42.5,0-.25.43-.45.71-.64.77-4.52,1.94-9,1.7-13.64,1.07-1.69-.29-3.85,1.06-5.48l-.06-.38C845.64,545.94,844.57,544,845.87,542.67Z" transform="translate(-802.87 -393.22)"/><path class="cls-4" d="M954.74,601.28a17.88,17.88,0,0,0,0-4.51c3.46-4.06,2.48-9.24,2.42-13.67-.25-18.14-6.11-35.11-12.66-51.8-3.85-9.78-9.95-18.36-15.26-27.36-1.06-1.8-1.12-2.4-2.75-5.7,3.07,1.24,5,3.82,6.89,6.28,16.16,21.15,31.18,43,41.71,67.62a65.15,65.15,0,0,1,3.08,8.41c2,7.3,1.71,14.39-4.34,19.76S961.29,604.31,954.74,601.28Z" transform="translate(-802.87 -393.22)"/><path class="cls-5" d="M857.65,640.66A58.05,58.05,0,0,1,853,625.74c5-2.11,10.17-.51,15.08.08a89.63,89.63,0,0,0,30.62-1.88c14.91-3.37,29.45-8,43.08-15.1,1.45-.77,2.92-1.65,4.69-1q.07,4.73.13,9.47a83.37,83.37,0,0,1-17.91,14.47c-1.51,1-3.47,1.31-4.29,3.19-4.87,1.55-9.32,4.73-14.83,3.87-7.6,1.28-15.39,1.1-22.91,3a18.81,18.81,0,0,1-16.09,0A81.1,81.1,0,0,1,857.65,640.66Z" transform="translate(-802.87 -393.22)"/><path class="cls-6" d="M890.63,394c-8.49,2.56-17.37,4.19-25,9-19.71,12.54-33.18,26.14-41.18,62.26-9-13.17-6.63-26.5-.25-39.68,11.13-23,25.22-30.9,49-32.31A164.92,164.92,0,0,1,890.63,394Z" transform="translate(-802.87 -393.22)"/><path class="cls-7" d="M918.68,666.67c-7.42-4.65-8.29-12.22-8.83-19.93,5.16-2.18,10.08-5.11,16-5,3.27,7.51,9.53,7.52,16.3,6.69a67.43,67.43,0,0,1,26.52,1.85c3.73,1,6.47,3.29,6.7,7.58a6.51,6.51,0,0,1-3.35,2c-14.75,3.8-29.57,7.16-44.91,7.4C924.23,667.34,921.49,666.71,918.68,666.67Z" transform="translate(-802.87 -393.22)"/><path class="cls-7" d="M835.75,675.83c-1.1-5.79,2.2-9.3,6.43-12.29,6.79-4.79,14.79-7.25,21.92-11.37,1.84-1.07,3.57-2.34,5.35-3.52,6-.06,12.07-1.64,17.89,1.06-.06,3.52-.36,8-1.27,10.12-.25.59-26.36,14.46-40.73,16.28C842.18,676.51,838.87,678.24,835.75,675.83Z" transform="translate(-802.87 -393.22)"/><path class="cls-8" d="M842,566.88c-2.82,24.3-1.46,48.21,6.65,71.5C840.51,634.71,826,625,826.12,623c9.29-14.39,10.57-31.08,13.64-47.27C840.32,572.73,839.7,569.39,842,566.88Z" transform="translate(-802.87 -393.22)"/><path class="cls-9" d="M918.68,666.67c.74-.29,51.31-2.88,56.65-8.79.56,3.84-1.69,6.24-4.38,8.33-4.08,3.17-8.67,4.32-13.9,4.89C944.07,672.51,930.85,673.53,918.68,666.67Z" transform="translate(-802.87 -393.22)"/><path class="cls-9" d="M835.75,675.83a94.88,94.88,0,0,0,39.51-10.74c3-1.6,4.68-2.19,10.81-5.26-1.33,3-2.42,5.19-3.93,6.7-10.26,10.29-22.57,16.09-37.2,16.1C840.62,682.64,836.36,681.4,835.75,675.83Z" transform="translate(-802.87 -393.22)"/><path class="cls-10" d="M887.34,649.71c-6.07,1.35-12.05,1.38-17.89-1.06,1.75-2,1.5-4.43,1.11-6.82a115.2,115.2,0,0,0,16.09,0C886.81,644.45,887.23,646.63,887.34,649.71Z" transform="translate(-802.87 -393.22)"/><path class="cls-9" d="M925.81,641.76c-5.31,1.7-10.12,5-16,5q-.14-3.94-.29-7.91c5-1,9.12-1.6,15.24-4.57C925.27,636.53,925.34,639.49,925.81,641.76Z" transform="translate(-802.87 -393.22)"/><path class="cls-11" d="M909,430.7a25,25,0,0,1,6,.58c6.82,1.39,9.35,6,6.82,12.56a28.93,28.93,0,0,1-8.39,11.61,78.92,78.92,0,0,1-23.44,14,18.46,18.46,0,0,1-10.74,1.1c-8.21-1.82-12.15-8.46-9.75-16.52a21.84,21.84,0,0,1,8.85-12.31C887.91,435.37,898.52,430.86,909,430.7Z" transform="translate(-802.87 -393.22)"/><path class="cls-12" d="M855.18,447.86c-8.13-.07-13.47-4.68-13.38-11.56a14.76,14.76,0,0,1,14.47-14.2,12.12,12.12,0,0,1,12.46,12.24C868.74,442.24,863.05,447.92,855.18,447.86Z" transform="translate(-802.87 -393.22)"/><path class="cls-13" d="M909.64,416.87c.32,1,2.65,5.77-.3,8.25s-6.44,2.19-9.84.74a14.32,14.32,0,0,1-2.17-1.19c-4.77-3.15-6.66-8.21-4.42-11.77s6.38-3.87,12-.95A11.17,11.17,0,0,1,909.64,416.87Z" transform="translate(-802.87 -393.22)"/><path class="cls-14" d="M907.53,419.65c-.33,3.18-2.52,4.64-5.58,4.18-3.43-.53-5.88-2.45-5.74-6.23.12-3.14,2.1-4.93,5.25-4.6C905,413.37,907.78,417.28,907.53,419.65Z" transform="translate(-802.87 -393.22)"/><path class="cls-13" d="M946.46,607.83c-16.38,9.42-34.22,14.89-52.56,18.64-12.08,2.47-24.33,1.37-36.49-.23-1.47-.2-2.95-.34-4.43-.5-1.26-9.45-4.15-28.61-3.23-43.08,1.38-21.77,3.81-43.4,14.13-63.16,4.64-8.87,11.38-15.5,21.59-17.7,11.7-2.53,20.68,2.9,28.72,10.34,8.63,8,15.42,17.39,19.36,28.62C941.18,562.47,946.83,584.57,946.46,607.83Z" transform="translate(-802.87 -393.22)"/><path class="cls-10" d="M879.6,452.26c3.22,2.49,3.11,2.66,4,2.55,2.12-.23,25.57-11,27.64-11.6,1.73-.46,3.44-.35,4.11,1.67.62,1.85-.19,3.23-1.9,4.09-5.35,2.68-10.67,5.4-16,8-5.07,2.46-10.23,4.75-15.3,7.22a3.89,3.89,0,0,1-5-.81c-2.29-2.49-2.25-5.75-1.25-8.53C876.58,453,878.1,451.09,879.6,452.26Z" transform="translate(-802.87 -393.22)"/><path class="cls-15" d="M865.8,436.11c-.25,4.71-4.6,8.77-9.1,8.51s-7.46-3.94-7.14-9,4-8.64,8.56-8.49C862.85,427.33,866.08,431.08,865.8,436.11Z" transform="translate(-802.87 -393.22)"/></svg>