<?xml version="1.0" encoding="utf-8"?>
<!-- Generator: Adobe Illustrator 25.0.0, SVG Export Plug-In . SVG Version: 6.00 Build 0)  -->
<svg version="1.1" id="Capa_1" xmlns="http://www.w3.org/2000/svg" xmlns:xlink="http://www.w3.org/1999/xlink" x="0px" y="0px"
	 viewBox="0 0 1190.6 841.9" style="enable-background:new 0 0 1190.6 841.9;" xml:space="preserve">
<style type="text/css">
	.st0{fill:#39433A;}
	.st1{fill:#556157;}
	.st2{fill:#D9C661;}
	.st3{fill:#566359;}
	.st4{fill:#CEC7C6;}
	.st5{fill:#555B56;}
	.st6{fill:#8DA4D5;}
	.st7{fill:#3B443B;}
	.st8{fill:#6A7FAE;}
	.st9{fill:#667CAC;}
	.st10{fill:#89A0D1;}
	.st11{fill:#F2F3F2;}
	.st12{fill:#EEEBEA;}
	.st13{fill:#434D45;}
	.st14{fill:#3D473F;}
</style>
<g>
	<path class="st0" d="M526.9,404.9c4.6-14.5,12.5-26.7,24.9-36.7c-11.4-2.8-17.9-10.6-22.9-20c2.3-17.8,7.6-34,20.7-47.3
		c10.1-10.3,21.2-18.5,35.2-22.4c3.4-0.9,6.7-1.8,10.3-1.5c5.1,0.9,9.9,2.7,14.2,5.5c9.3,6.2,16.9,14.1,22.9,23.4
		c8.1,12.7,7.8,26,1.4,39c-3.2,6.6-13.4,13.3-19.2,17.4c-1.3,0.9-0.3,1,3,3.7c5.4,4.3,8.5,10.7,13.6,15.2
		c16.3,21.1,26,45.1,30.7,71.2c1.4,7.6,1.9,15.5,0.6,23.3c-0.3,2-0.4,4.1-3.1,4.4c-2.2-2-2.1-4.8-2.5-7.4c-2.7-18.8-6.4-37.4-14-55
		c-5.8-13.5-14.7-24.6-26.6-33c-21.4-15.2-42.4-5.3-53.3,12.6c-2.8,4.6-4.7,9.5-6.6,14.5c-0.6,1.7-0.9,3.6-2.8,4.5
		c-0.5,0.1-1,0-1.5-0.2c-1.1-3.8-0.1-7.5,0.3-11.2c0.2-2,0.3-3.9-0.3-5.9c-1.8-6.1-6.1-7.6-11.4-4.1c-3.5,2.3-6.5,5.1-9.3,8.1
		C530.2,404.2,529.2,406.3,526.9,404.9z"/>
	<path class="st1" d="M526.9,404.9c4.7-2.6,7.2-7.6,11.8-10.3c3-1.8,5.7-4.4,9.4-2.6c4.4,2.1,5.9,6.2,5.8,10.7
		c-0.1,4.4-1.2,8.8-1.8,13.2c0.7,3-0.7,5.7-0.9,8.5c-0.1,0.5-0.2,0.9-0.3,1.4c-0.5,1.3-0.6,2.7-0.8,4.2c-0.1,0.5-0.2,1-0.3,1.4
		c-0.6,1.7-0.4,3.5-0.3,5.2c-0.1,4.6-0.6,9.2-2,13.7c-2.4,6.6-2.7,13.6-4,20.5c-1.5,8.4-3.2,16.7-6.1,24.7c-1.4,4-2.8,8.2-6.9,10.6
		c-9.7,4.2-15.6,2-19.4-8.2c-4.4-11.6-4.6-23.8-2.6-35.9C511.7,442,516.7,422.6,526.9,404.9z"/>
	<path class="st2" d="M550.2,425.7l-0.1-0.2c1.2-3.1,1.1-6.6,3-9.5c2.5-5.8,4.8-11.7,7.6-17.3c12.4-24.5,39.2-29.8,60.3-12.1
		c15,12.6,23.6,28.9,29.1,47.4c4.4,15.1,6.7,30.5,9.1,45.9c1.2,1.5,1.1,3,0,4.5c-1.9,5.7-3.6,11.6-8.2,16c-2.3-2.6-1.3-5.7-1.4-8.6
		c0.1-24.7-5.5-48.2-14.4-71c-4.5-11.4-12.1-20.7-21.8-28.1c-15.4-11.7-32.5-8.4-42.5,8.4c-5.6,9.4-9,19.7-11,30.4
		c-3.3,17.5-5,35.3-4.3,53.1c0.3,8,2,15.8,3,23.7c0.3,3.2,1.9,6,3,8.9c0.8,2.1,2.3,4.2,0.5,6.5c-4.1-0.8-6.1-1.1-9-2.3
		c-5.5-8.6-6.4-18.7-8.4-28.4c-2.8-14.2-0.3-28.4,1-42.5c0-0.3,0.4-0.4,0.7-0.6c0.8-4.5,1.9-9,1.7-13.6c1.1-1.7-0.3-3.8,1.1-5.5
		l-0.1-0.4C550,428.9,548.9,427,550.2,425.7z"/>
	<path class="st3" d="M659.1,484.3c0.2-2.3,0.2-2.9,0-4.5c3.5-4.1,2.5-9.2,2.4-13.7c-0.2-18.1-6.1-35.1-12.7-51.8
		c-3.8-9.8-9.9-18.4-15.3-27.4c-1.1-1.8-1.1-2.4-2.8-5.7c3.1,1.2,5,3.8,6.9,6.3c16.2,21.1,31.2,43,41.7,67.6
		c1.2,2.7,2.3,5.5,3.1,8.4c2,7.3,1.7,14.4-4.3,19.8C672.3,488.6,665.7,487.3,659.1,484.3z"/>
	<path class="st4" d="M562,523.6c-2.5-5.1-3.8-10.4-4.7-14.9c5-2.1,10.2-0.5,15.1,0.1c10.4,1.2,20.6,0.4,30.6-1.9
		c14.9-3.4,29.5-8,43.1-15.1c1.5-0.8,2.9-1.6,4.7-1c0,3.2,0.1,6.3,0.1,9.5c-6.4,6.8-11.4,10.3-17.9,14.5c-1.5,1-3.5,1.3-4.3,3.2
		c-4.9,1.6-9.3,4.7-14.8,3.9c-7.6,1.3-15.4,1.1-22.9,3c-5.4,2.4-10.7,2.4-16.1,0C570.4,524.7,566.3,524.5,562,523.6z"/>
	<path class="st5" d="M595,277c-8.5,2.6-17.4,4.2-25,9c-19.7,12.5-33.2,26.1-41.2,62.3c-9-13.2-6.6-26.5-0.3-39.7
		c11.1-23,25.2-30.9,49-32.3C581.3,276,588.5,276.5,595,277z"/>
	<path class="st6" d="M623.1,549.7c-7.4-4.7-8.3-12.2-8.8-19.9c5.2-2.2,10.1-5.1,16-5c3.3,7.5,9.5,7.5,16.3,6.7
		c8.9-1.1,17.8-0.6,26.5,1.8c3.7,1,6.5,3.3,6.7,7.6c-0.9,1-2,1.7-3.4,2c-14.8,3.8-29.6,7.2-44.9,7.4
		C628.6,550.3,625.9,549.7,623.1,549.7z"/>
	<path class="st6" d="M540.1,558.8c-1.1-5.8,2.2-9.3,6.4-12.3c6.8-4.8,14.8-7.2,21.9-11.4c1.8-1.1,3.6-2.3,5.3-3.5
		c6-0.1,12.1-1.6,17.9,1.1c-0.1,3.5-0.4,8-1.3,10.1c-0.3,0.6-26.4,14.5-40.7,16.3C546.5,559.5,543.2,561.2,540.1,558.8z"/>
	<path class="st7" d="M546.4,449.9c-2.8,24.3-1.5,48.2,6.6,71.5c-8.2-3.7-22.7-13.4-22.6-15.4c9.3-14.4,10.6-31.1,13.6-47.3
		C544.7,455.7,544.1,452.4,546.4,449.9z"/>
	<path class="st8" d="M623.1,549.7c0.7-0.3,51.3-2.9,56.7-8.8c0.6,3.8-1.7,6.2-4.4,8.3c-4.1,3.2-8.7,4.3-13.9,4.9
		C648.4,555.5,635.2,556.5,623.1,549.7z"/>
	<path class="st8" d="M540.1,558.8c13.9-0.8,27.1-4.2,39.5-10.7c3-1.6,4.7-2.2,10.8-5.3c-1.3,3-2.4,5.2-3.9,6.7
		c-10.3,10.3-22.6,16.1-37.2,16.1C545,565.6,540.7,564.4,540.1,558.8z"/>
	<path class="st9" d="M591.7,532.7c-6.1,1.4-12.1,1.4-17.9-1.1c1.8-2,1.5-4.4,1.1-6.8c5.5,0.3,10.6,0.4,16.1,0
		C591.2,527.4,591.6,529.6,591.7,532.7z"/>
	<path class="st8" d="M630.2,524.7c-5.3,1.7-10.1,5-16,5c-0.1-2.6-0.2-5.3-0.3-7.9c5-1,9.1-1.6,15.2-4.6
		C629.6,519.5,629.7,522.5,630.2,524.7z"/>
	<path class="st10" d="M613.4,313.7c2.7,0,4.3,0.2,5.9,0.6c6.8,1.4,9.3,6,6.8,12.6c-1.8,4.6-4.7,8.5-8.4,11.6
		c-7,6-14.8,10.7-23.4,14c-3.5,1.3-7,1.9-10.7,1.1c-8.2-1.8-12.1-8.5-9.7-16.5c1.5-5.1,4.4-9.4,8.8-12.3
		C592.3,318.4,602.9,313.8,613.4,313.7z"/>
	<path class="st11" d="M559.5,330.8c-8.1-0.1-13.5-4.7-13.4-11.6c0.1-7.6,6.8-14.2,14.5-14.2c7.1,0,12.4,5.3,12.5,12.2
		C573.1,325.2,567.4,330.9,559.5,330.8z"/>
	<path class="st12" d="M614,299.9c0.3,1,2.7,5.8-0.3,8.3c-3,2.5-6.4,2.2-9.8,0.7c-0.8-0.3-1.5-0.7-2.2-1.2
		c-4.8-3.1-6.7-8.2-4.4-11.8c2.2-3.5,6.4-3.9,11.9-0.9C612.1,296.7,613.1,298.2,614,299.9z"/>
	<path class="st13" d="M611.9,302.6c-0.3,3.2-2.5,4.6-5.6,4.2c-3.4-0.5-5.9-2.4-5.7-6.2c0.1-3.1,2.1-4.9,5.2-4.6
		C609.3,296.4,612.1,300.3,611.9,302.6z"/>
	<path class="st12" d="M650.8,490.8c-16.4,9.4-34.2,14.9-52.6,18.6c-12.1,2.5-24.3,1.4-36.5-0.2c-1.5-0.2-3-0.3-4.4-0.5
		c-1.3-9.5-4.2-28.6-3.2-43.1c1.4-21.8,3.8-43.4,14.1-63.2c4.6-8.9,11.4-15.5,21.6-17.7c11.7-2.5,20.7,2.9,28.7,10.3
		c8.6,8,15.4,17.4,19.4,28.6C645.6,445.5,651.2,467.6,650.8,490.8z"/>
	<path class="st9" d="M584,335.2c3.2,2.5,3.1,2.7,4,2.6c2.1-0.2,25.6-11,27.6-11.6c1.7-0.5,3.4-0.4,4.1,1.7c0.6,1.8-0.2,3.2-1.9,4.1
		c-5.3,2.7-10.7,5.4-16,8c-5.1,2.5-10.2,4.8-15.3,7.2c-2,1-3.6,0.6-5-0.8c-2.3-2.5-2.3-5.7-1.3-8.5C580.9,336,582.5,334.1,584,335.2
		z"/>
	<path class="st14" d="M570.2,319.1c-0.3,4.7-4.6,8.8-9.1,8.5c-4.5-0.3-7.5-3.9-7.1-9c0.3-5,4-8.6,8.6-8.5
		C567.2,310.3,570.4,314.1,570.2,319.1z"/>
</g>
<path class="st0" d="M552.1,415.9c0,0-5.1,16.1-7.5,38.8c-2.5,22.7,1.3-1.5,1.9-4.8c0.6-3.3,5-27.4,6.7-34S552.1,415.9,552.1,415.9z
	"/>
</svg>
