<svg id="Capa_1" data-name="Capa 1" xmlns="http://www.w3.org/2000/svg" viewBox="0 0 296.63 459.11"><defs><style>.cls-1{fill:#364038;}.cls-2{fill:#47dbcb;}.cls-3{fill:#657bab;}.cls-4{fill:#7e5d2d;}.cls-5{fill:#45b2a6;}.cls-6{fill:#dbcea1;}.cls-7{fill:#45b1a5;}.cls-8{fill:#b7781d;}.cls-9{fill:#8ba2d5;}.cls-10{fill:#8ca2d5;}.cls-11{fill:#8ca2d4;}.cls-12{fill:#8ba2d4;}.cls-13{fill:#667bab;}.cls-14{fill:#fefefe;}.cls-15{fill:#667cab;}.cls-16{fill:#667baa;}.cls-17{fill:#fff;}</style></defs><title>player</title><path class="cls-1" d="M305.3,490.89c3.37-1.73,6.17-4.35,10.15-4.06,3.53,11.54,1,23.1-3.47,33.65-.76,1.81-1.74,3.54-2.8,5.66a61,61,0,0,1,6.16,1.64,5.8,5.8,0,0,1,4.09,6.6c-.37,3-2,5.84-4.88,6.23-5.17.69-10.61-.81-15.32-3.12-5.44-2.67-6.49-8.66-2.46-13.9,5.56-7.21,7.83-15.62,9.31-24.34A18.71,18.71,0,0,0,305.3,490.89Z" transform="translate(-108.32 -88.99)"/><path class="cls-1" d="M244,495.59c1-2.85,3.66-.1,5.59.78,1.59.72,3.81-.53,5.39.23,2.33,11.14,6.1,23.29,12.91,32.52,4.09,5.54,3.31,10.1-4.47,14.07-3.65,1.87-11.15,5.46-15.86,4.84-2.89-.39-5.43-4.21-5.15-7.3.29-3.29,2.58-4.88,5.41-5.74,2.35-.72,4.77-1.17,7.73-1.88C248,522.27,243.44,508.55,244,495.59Z" transform="translate(-108.32 -88.99)"/><polygon class="cls-2" points="145.77 315.56 144.78 377.55 156.65 378.37 200.46 376.69 204.65 370.81 192.45 305.28 145.77 315.56"/><path class="cls-3" d="M366.91,210.73c-4.6,0-6.5-1.35-9.48-6.76-2.35,3.25-4.58,6.5-7,9.6-1.26,1.6-3.05,3.11-5.07,1.39s-.35-3.36.7-4.8c4.22-5.83,11.36-22.64,12.25-24.42,1.18-2.38,2.41-5.3,5.69-4.46,3.59.91,3.19,4.22,3,7s-.76,5.59-1.12,8.38c-.78,6,.72,7.29,6.15,4.78,4.34-2,8.35-4.73,12.55-7.07,2.34-1.32,4.82-2.76,7.28-.37s1.14,4.93-.05,7.33c-2.81,5.69-12.69,18.5-14.19,20.55,5.94.07,10.78-1.49,15.63-2.68,4.69-1.15,11.41-2,11.74,3.33.22,3.63-18.79,19-21.87,14.72-2.87-4,6-8.36,7.67-10-4.64.78-7.87,1.35-11.11,1.87s-6.92,1.08-9.09-2.18c-2.29-3.44-.54-6.65,1.61-9.61,1.94-2.66,8.69-11.36,8.44-11.21C378.74,207.26,370.1,210.73,366.91,210.73Z" transform="translate(-108.32 -88.99)"/><path class="cls-2" d="M294.48,174.7c14.91,12.46,27.33,27,36.46,44.2,1.65,3.11,1.45,4.75-2.14,5.52-24.83,5.34-128.77,23-129.87,18.14s-1.44-11.35-2-17a42.83,42.83,0,0,0,5.18-1.66q37.68-17.46,74.21-37.26C282.64,183.15,289.24,179.9,294.48,174.7Z" transform="translate(-108.32 -88.99)"/><path class="cls-4" d="M323.46,458.83c2.7,10.44,3.19,20.31-7,27.44-9.5,5.88-34.82,10.38-47,11.17-13.94.91-23.35-.65-28.2-1.85-6.39-1.59-12.55-3.76-16.5-9.52-3.7-5.41-4.22-11.68-3.88-18.06C228.07,467.58,319.13,459.23,323.46,458.83Z" transform="translate(-108.32 -88.99)"/><path class="cls-2" d="M182.72,184.77c-6.39-14.25-13.47-28.07-24.19-39.65-1.52-1.63-.82-2.86-.1-4.41,1.93-4.19,4.43-8.17,4.63-13,.11-2.79,2.21-2.26,4-2.21,13.5.3,26.53,3.41,39.47,6.89,10.2,2.73,20.54,5,30.32,9.16-2.21.42-3.88,1.88-5.53,3.18-15.66,12.35-31.26,24.79-46.9,37.16A4.36,4.36,0,0,0,182.72,184.77Z" transform="translate(-108.32 -88.99)"/><path class="cls-5" d="M294.48,174.7c-5.24,5.2-11.84,8.45-18.16,11.9q-36.48,19.88-74.21,37.26a42.83,42.83,0,0,1-5.18,1.66q-2-6.48-3.91-13c5.24-3.14,10.51-6.26,15.73-9.43,22.46-13.66,44.16-28.47,65.77-43.43A103.1,103.1,0,0,1,294.48,174.7Z" transform="translate(-108.32 -88.99)"/><path class="cls-2" d="M274.52,159.71c-21.61,15-43.31,29.77-65.77,43.43-5.22,3.17-10.49,6.29-15.73,9.43l-6-17c24.08-14.1,48.13-28.26,72.74-41.45a2.87,2.87,0,0,0,1.84-2.14A58.74,58.74,0,0,1,274.52,159.71Z" transform="translate(-108.32 -88.99)"/><path class="cls-5" d="M261.59,152a2.87,2.87,0,0,1-1.84,2.14c-24.61,13.19-48.66,27.35-72.74,41.45l-4.29-10.82a4.36,4.36,0,0,1,1.73-2.88c15.64-12.37,31.24-24.81,46.9-37.16,1.65-1.3,3.32-2.76,5.53-3.18A114.31,114.31,0,0,1,261.59,152Z" transform="translate(-108.32 -88.99)"/><path class="cls-2" d="M232.71,387l13.87,7.29c.53,2.48,1.64,4.6,1.28,7.52-1.13,9.11-2.53,24.72-3.16,33.89-3.25,2-4.3,5.92-8.57,6.06-5.1.16-9.53-3.68-14.54-3.09C222,434,224.75,403.93,232.71,387Z" transform="translate(-108.32 -88.99)"/><path class="cls-2" d="M303.37,438c5-4,6-12.15,13.88-13.1,2.3,11.28,5.4,22.41,6.21,34l-13,1.2c-3.13.44-4.53-1.34-4.9-4.08C304.76,450,304.09,444,303.37,438Z" transform="translate(-108.32 -88.99)"/><path class="cls-2" d="M221.16,446.36a7.94,7.94,0,0,0,1.88-.45c9.16-3.67,15.85.19,21.58,7,0,1.94.11,3.88-.06,5.81-.23,2.74.26,4.19.15,7.23-7.28.43-16.64,1.61-23.92,2C220.6,460.87,221.35,453.51,221.16,446.36Z" transform="translate(-108.32 -88.99)"/><path class="cls-6" d="M246.58,394.24,232.71,387c-2.38-1.77-4.67-3.67-7.15-5.26-10.43-6.66-18.16-15.76-24.2-26.4a16.38,16.38,0,0,0-4.92-5.42,66.1,66.1,0,0,1-20.9-23.48,22.71,22.71,0,0,1-2.72-11c.19-8.67,5.7-12.79,14-10.43-.38,6.55,1.76,12.69,3.11,19a5.14,5.14,0,0,0,2.66,3.44c6.17,3.38,12.62,5.7,19.83,4.43,11.89-2.1,21.57-8.73,31.27-15.32a3.84,3.84,0,0,0,3.09-3l6.61-4c0,.66.08,1.31.11,2,.09,2.54,1,4.7,3.79,4.82,3.29.15,3.86-2.55,4.14-5,.26-2.26.16-4.57.22-6.85,3.36-2,10.05-3.92,13.9-4.25.1,3.12-3,7.31-2.64,10.4.23,2,1.24,3.88,3.79,3.76,2.26-.11,3.17-1.89,3.39-3.67.37-3.09.35-7.14.45-10.26,8.33.13,17.9,8.19,18,7.05,4.64,1.28,8.85,3.59,13.23,5.54,10.7,4.75,21.6,8.32,33.56,5.19,3.29-.86,4.69-2.41,5-6.13.74-8.89,1.83-17.74,2.07-26.67a5.79,5.79,0,0,0,1-.27c5.19-2.49,10.58-3.94,15.26.53,4.92,4.7,4.48,10.9,2.8,16.8-3,10.46-10.6,17.51-19,23.55a22.07,22.07,0,0,0-8.14,11.24,73.3,73.3,0,0,1-29,37c-3.16,2.1-16.44,11.25-19.87,13.83-1.48.69-3,1.38-4.44,2.09C276.68,397,262.21,401.75,246.58,394.24Zm54.95-35c3.55,0,6.53,0,9.51,0,3.48,0,4.92-1.95,4.2-5.16-2.73-12.11-7.11-23-19.15-29.23-24.81-12.77-60.38-7.05-66.83,28.89-2,11.3.54,13.92,12.22,12.12C261.58,362.74,281.72,359.87,301.53,359.21Z" transform="translate(-108.32 -88.99)"/><path class="cls-2" d="M295.4,388a101.48,101.48,0,0,1,10-7.07c1.12,3.37,3,6.89,4.16,10.26-2.65,3.1-.71,5.06,1.71,6.9q2.07,8.85,4.13,17.71c-5.68,5.52-10.27,1.18-15-1.68A135,135,0,0,1,295.4,388Z" transform="translate(-108.32 -88.99)"/><path class="cls-7" d="M244.71,466a311.4,311.4,0,0,1,3.09-63.71s1.1-4.14-4.46-9.72c0,0,8.87,5.13,18.86,5.5s29.42-8.36,35.08-11.45a6.65,6.65,0,0,0-1.52,4.92c.37,2.86,9.78,43.58,10.46,68.9l-8.49.77s-5.26-46.25-8.82-60.68a43.93,43.93,0,0,1-11.55,6.33s3.92,48.27,3.74,55.87l-9.44.85s-1.58-45-4.13-54.26c0,0-6.34.26-11.23-3.28,0,0-2.74,46.52-.4,59Z" transform="translate(-108.32 -88.99)"/><path class="cls-1" d="M236.63,435.9c6.71-1.91,18.48-12.5,23.93-11.06s1,4.68-3.17,7.67c-2.23,1.58-4.64,3.64-7.12,5.34,3.09,1.62,7.1,1.68,10.19,3.07,2,.89,2.83,2.7,2.07,4.54-1.47,3.57-11.8-.31-15.82-1,2.06,3.57,11.77,10,6.94,13.61-3.18,2.39-10.63-7.46-13.75-9.84-3.32-2.53-8.57-4.11-16.86-2.35-4.12.88-9,2-12.07,2.18-4.81.21-7.22-2.51-6.23-7.16a49.38,49.38,0,0,1,13.6-25.33c1.78-1.78,4.18-3.3,6.26-1.77,2.3,1.68,1,3.84-.38,6.87-.44.94-9.86,12.36-11.72,19.91C216,439.48,231.72,437.29,236.63,435.9Z" transform="translate(-108.32 -88.99)"/><path class="cls-8" d="M227.42,402.26c-1.89-.61-4.15.88-7.12-2.49-5.46-5.17-10.4-4.4-17.32-4.71-13.74-.63-22.46-10.59-21.68-23.56-8.83.39-14.28-4.27-17.21-12.2-.69-1.87-1.93-2.42-3.54-3a18.15,18.15,0,0,1-9.91-25c1.12-2.34,1.85-4.24.76-6.93-1.31-3.2-.3-6.48,1.18-9.6,4.06-8.52,11.81-12.73,19.56-17a2.6,2.6,0,0,1,1.43-.33c16,2.19,30.69-4.36,45.78-7.42,31.53-6.39,63.34-11,95-16.65A377.14,377.14,0,0,0,352,264.22a11.79,11.79,0,0,1,9.7.85c8.81,4.75,15,14.57,14.22,24.41a6.51,6.51,0,0,0,2,5.66c4,4.21,5.81,9.26,4.2,15.07a7.82,7.82,0,0,0,.59,5.67c4.52,10.3,1.27,19.91-8.6,25.44-2,1.11-3,2.83-4.31,4.45-4.7,5.55-7.9,11.88-11.24,18.27-2.62,5-7.44,7.94-13.38,8.33-1.5.1-3,.07-3.81,1.72-5,9.83-13.84,14.29-23.94,16.91-2.61.26-5.28-1.55-7.86.18-1.12-3.37-3-6.89-4.16-10.26,3-2.31,6.71-4.66,9.87-6.76a73.3,73.3,0,0,0,29-37A22.07,22.07,0,0,1,352.37,326c8.44-6,16.05-13.09,19-23.55,1.68-5.9,2.12-12.1-2.8-16.8-4.68-4.47-10.07-3-15.26-.53a5.79,5.79,0,0,1-1,.27c-.52-3.1.72-6.4-.81-9.63-9.45,9.18-15.86,10.56-25.29,5-3-1.78-5.35-2.25-8.48-.44a11,11,0,0,1-9.2.63c-4-1.46-7.24-1.24-10.25,1.89a12.29,12.29,0,0,1-3,1.72l-3,1c-4.35.16-8.7.29-13-.89-1.57-.47-3.61.74-5.19.27-1.46-1.29-7.46,6-10.82,7.6-2.36.28-14.6,3-18.74.05l-7.91,4.74c-2.8,0-5.54,1.4-8.37.54-3.56-1.08-5.56.28-7.63,3.36-7,10.36-19.58,12.39-29.52,5.05-1.39-1-2.57-2.14-4.41-1.2-8.32-2.36-13.83,1.76-14,10.43a22.71,22.71,0,0,0,2.72,11,66.1,66.1,0,0,0,20.9,23.48,16.38,16.38,0,0,1,4.92,5.42c6,10.64,13.77,19.74,24.2,26.4,2.48,1.59,4.77,3.49,7.15,5.25Q230.06,394.61,227.42,402.26Z" transform="translate(-108.32 -88.99)"/><path class="cls-9" d="M352.4,285.36c-.24,8.93-1.33,17.78-2.07,26.67-.31,3.72-1.71,5.27-5,6.13-12,3.13-22.86-.44-33.56-5.19-4.38-2-8.59-4.26-13.23-5.54-.05-1.79-.13-3.59-.14-5.38,0-6,.43-12.11-3-17.52a12.29,12.29,0,0,0,3-1.72c3-3.13,6.26-3.35,10.25-1.89a11,11,0,0,0,9.2-.63c3.13-1.81,5.45-1.34,8.48.44,9.43,5.56,15.84,4.18,25.29-5C353.12,279,351.88,282.26,352.4,285.36Z" transform="translate(-108.32 -88.99)"/><path class="cls-10" d="M243.71,316.51c-9.7,6.59-19.38,13.22-31.27,15.32-7.21,1.27-13.66-1.05-19.83-4.43A5.14,5.14,0,0,1,190,324c-1.35-6.27-3.49-12.41-3.11-19,1.84-.94,3,.18,4.41,1.2,9.94,7.34,22.56,5.31,29.52-5.05,2.07-3.08,4.07-4.44,7.63-3.36,2.83.86,10.12-1.59,10.12-1.59s0,3.48,0,5c.06,3.11,0,6.22.1,9.32S239.84,316.39,243.71,316.51Z" transform="translate(-108.32 -88.99)"/><path class="cls-11" d="M261.67,304.4q0-7.44-.08-14.86c8.89-3.54,5.71-6,8.77-6.81,1.67-.45,2,.67,4.15,1.23,2.69,6.89-.6,11.09-.54,17.19C270.12,301.48,265,302.38,261.67,304.4Z" transform="translate(-108.32 -88.99)"/><path class="cls-11" d="M280.51,301.14c.51-5.63-1.19-11-1.07-16.55,4.25,1.18,8.6,1.05,12.95.89-2.95,6.58-1.76,13.56-2,20.4-.06,1.81.06-2.46,0-.66C287,303.9,285.59,301.25,280.51,301.14Z" transform="translate(-108.32 -88.99)"/><path class="cls-12" d="M255.64,290.72c-1.46,6.31-1.77,12.41-2.23,18.78l-6.61,4q-1.06-10.51-2.12-21C247.25,288.55,252.09,290.18,255.64,290.72Z" transform="translate(-108.32 -88.99)"/><path class="cls-13" d="M246.8,313.52c-.14,1.66-1.43,2.64-3.09,3-3.87-.12-4.89-2.75-5-5.95s-3.17-22.22,2.9-23C247.41,286.85,247.38,306.5,246.8,313.52Z" transform="translate(-108.32 -88.99)"/><path class="cls-1" d="M301.53,359.21c-19.81.66-39.95,3.53-60,6.62-11.68,1.8-14.25-.82-12.22-12.12,6.45-35.94,42-41.66,66.83-28.89,12,6.19,16.42,17.12,19.15,29.23.72,3.21-.72,5.15-4.2,5.16C308.06,359.22,305.08,359.21,301.53,359.21Zm3.08-18.16a16.66,16.66,0,0,0-6.13-7.6c-11.51-8.52-24.39-10.74-38.15-7.68-10.81,2.4-18.1,9.16-22.18,19.47-1,2.53-.32,3.3,2.3,2.91q4.41-.64,8.86-1c1.29-.09,3,0,3.17,1.63s-1.45,2.12-2.69,2.35a94.75,94.75,0,0,1-10.3,1.53c-4.15.29-4.3,3-3.77,5.9.64,3.44,3.18,1.24,4.73,1,10.15-1.37,20.28-2.92,30.42-4.43,11.33-1.69,19.81-6.24,31.26-6.05,1.11,0,5.65,4.84,6.21,2.91.78-2.69-2.33-6.77-5.26-6.65-4.63.18-9.25.62-13.88.83-1.62.08-4.09.16-4.2-1.59-.14-2.22,2.41-2.31,4.18-2.46C294.12,341.76,299.07,341.45,304.61,341.05Z" transform="translate(-108.32 -88.99)"/><path class="cls-14" d="M304.61,341.05c-1.83,1.82-10.49.71-15.43,1.13-1.77.15-4.32.24-4.18,2.46.11,1.75,2.58,1.67,4.2,1.59,4.63-.21,9.25-.65,13.88-.83,2.93-.12,6,4,5.26,6.65-.56,1.93-4.37,1.1-5.49,1.09a182.12,182.12,0,0,0-32,2.05c-10.14,1.51-20.17,3.39-30.33,4.76-1.55.21-4.18,2.08-4.82-1.36-.53-2.87-.38-5.61,3.77-5.9a94.75,94.75,0,0,0,10.3-1.53c1.24-.23,2.91-.66,2.69-2.35s-1.88-1.72-3.17-1.63q-4.45.33-8.86,1c-2.62.39-3.3-.38-2.3-2.91,4.08-10.31,11.37-17.07,22.18-19.47,13.76-3.06,26.64-.84,38.15,7.68C301,335.31,305.56,340.1,304.61,341.05Z" transform="translate(-108.32 -88.99)"/><path class="cls-15" d="M280.11,310.64c-.22,1.78-1.13,3.56-3.39,3.67-2.55.12-3.56-1.77-3.79-3.76-.37-3.09.91-24.55,1.79-27.36,1.06-3.41,5.23-3.9,5.9,1.4C281.32,290.14,280.48,307.55,280.11,310.64Z" transform="translate(-108.32 -88.99)"/><path class="cls-13" d="M294.58,284c6.23-.92,3.94,25.74,3.7,26.84-.45,2.08-1,4.26-3.64,4.56-3,.34-4-1.6-4.38-4.09C290.31,309.5,286,285.27,294.58,284Z" transform="translate(-108.32 -88.99)"/><path class="cls-16" d="M261.45,311.25c-.28,2.48-.85,5.18-4.14,5-2.81-.12-3.7-2.28-3.79-4.82,0-.65-.25-14.81,1-21.1.55-2.79,2-4.36,3.53-4.36,3.11,0,3.44,2.31,3.54,3.54C261.91,293.31,261.71,309,261.45,311.25Z" transform="translate(-108.32 -88.99)"/><path class="cls-1" d="M309.56,391.18c2.58-1.73,5.24-.42,7.86-.18,4.92.46,9.63,2.32,14.13,4.52,11.24,5.49,12,13.51,1.63,20.41-5.05,3.37-10.14,7.06-15.93,8.94-7.52,2.44-17.83,25.24-22.79,22-5.94-3.94,4.06-10.26,5.85-15-2.84-.58-12.46,4.35-13.79.61a3.71,3.71,0,0,1,.94-4.06c1.65-1.78,9.29-2.88,12.2-4.61-4.26-1.93-13.69-2.62-15.36-6.34-1-2.23.2-4.9,2.14-5.43,4.6-1.25,22.24,8,29,3.8,4.38-2.74,9.34-4.23,13.58-7.15,2.51-1.73,3.15-3.12-.35-4.68-5.63-2.49-11.85-3.2-17.37-5.88C308.53,396.75,306.91,394.28,309.56,391.18Z" transform="translate(-108.32 -88.99)"/><path class="cls-17" d="M173.57,297.5c-13.8-9.93,4.32-46.22,12.12-50.43,9.89-5.34,29.26-7.26,59-9,34.77-2.06,53.62-23.69,92.13-18.27,14,2,30.85,38.8,15.59,46C331.49,275.72,180.77,302.69,173.57,297.5Z" transform="translate(-108.32 -88.99)"/><path class="cls-17" d="M168.28,138.28c8.39-14,10.88-46.29-14.24-48.66s-39.17,1.78-43.52,15.43-2,33.43,4.75,40.15,22.55,8.31,28.68,8.31S162.35,148.17,168.28,138.28Z" transform="translate(-108.32 -88.99)"/></svg>