<svg id="Capa_1" data-name="Capa 1" xmlns="http://www.w3.org/2000/svg" viewBox="0 0 314.61 336.93"><defs><style>.cls-1{fill:#364038;}.cls-2{fill:#ddbf7f;}.cls-3{fill:#c5aa72;}.cls-4{fill:#73674c;}.cls-5{fill:#867857;}.cls-6{fill:#887959;}.cls-7{fill:#877858;}.cls-8{fill:#877959;}.cls-9{fill:#867757;}.cls-10{fill:#74684e;}.cls-11{fill:#867858;}.cls-12{fill:#73674d;}.cls-13{fill:#73684e;}.cls-14{fill:#8a7c5c;}.cls-15{fill:#766a50;}.cls-16{fill:#72664c;}.cls-17{fill:#8b7c5d;}.cls-18{fill:#867859;}.cls-19{fill:#897958;}.cls-20{fill:#c5aa71;}.cls-21{fill:#374138;}.cls-22{fill:#c6ab72;}.cls-23{fill:#3a433a;}.cls-24{fill:#bfa66f;}.cls-25{fill:#877857;}.cls-26{fill:#74674d;}.cls-27{fill:#d0b57a;}.cls-28{fill:#6e634a;}.cls-29{fill:#6d6149;}.cls-30{fill:#695e47;}.cls-31{fill:#6d6249;}.cls-32{fill:#c2a870;}</style></defs><title>sac</title><path class="cls-1" d="M350.77,407.9c1.2,13.3-8,19.33-18.93,25.89,4.31,0,7.29,0,10.26,0s5.54.59,6.26,3.69c.76,3.27-1.59,4.72-4.34,5.59-4.3,1.05-18.23-.74-19.46-1.3-3-1.35-5.68-3-6.13-6.58s1.62-6.05,4.34-7.84c3.88-2.55,8-4.69,11.9-7.22s7.38-5.76,7.07-11.16C342.91,404.65,347.47,405.23,350.77,407.9Z" transform="translate(-98.27 -106.45)"/><path class="cls-2" d="M383.81,271.05c8,11.18,15.92,22.43,21.29,35.23,1.47,3.5,3.11,6.94,3.76,10.73,1.78,9.48-3,16.73-8.36,23.6A36,36,0,0,0,393,357.13c-1.5,8.62-7.85,14-15.65,16.6-8.3,2.74-15.05,6.84-19.78,14.19a7,7,0,0,1-5.34,3.26c-7.6.87-15.25,1.1-22.87,1.71-2.91.24-5.46-1.34-8.06-2.39a65.89,65.89,0,0,0-25.75-5.19,16.51,16.51,0,0,0-4,.31c-2.37.61-5.49.74-5.93,3.68C285.17,392,288,392.87,290,394c1.1.64,2.79.89,2.79,2.48s-1.55,2-2.72,2.58c-1.81.85-3.65,1.83-5.65,1.91-8,.35-15.94.85-23.89-.45a9,9,0,0,1-7.16-5.43c-4.71-9.71-11-12.63-21.62-10.32a17.4,17.4,0,0,0-5.21,1.69c-8.54,5.06-17.85,4.25-27.13,3.76a10.74,10.74,0,0,1-3.44-.57c-9.26-3.85-19-6.1-28.7-8.42-5.14-1.22-8.88-3.62-10.21-9.5s-6.4-9.08-12.67-9.41c-7.7-.4-7.78-.38-9.77-7.58-2.12-7.69-7.85-12.24-14.24-15.95-4.07-2.37-6.57-5-7-10s-3.18-9.07-6.11-12.94a10.54,10.54,0,0,1-2.1-8.9c1-5.24.29-10.62,1.08-15.89C123.21,259.66,149.06,237.3,179,219c15-9.2,27.44-20.91,33.72-38.08,2.11-5.77,5.56-11,9.33-15.86,7.65-9.93,16.76-17.92,28.95-21.82,10.19,11.23,24.62,13.35,40,5.86a31.9,31.9,0,0,1,13,17.73c5.05,18.29,13.83,34.75,23.6,50.84,4.31,7.1,7.89,14.68,15.07,19.45,3.59,2.38,7.48,4.3,11.18,6.53,9.8,5.89,17.68,13.94,25.16,22.45C380.53,267.79,382.2,269.39,383.81,271.05Z" transform="translate(-98.27 -106.45)"/><path class="cls-3" d="M106.28,291.09c1.59,5.36,1.1,10.78.2,16.15-.47,2.75-.31,4.95,1.55,7.39,3.84,5,7.21,10.4,7.12,17.14,0,2.11,1.31,3.32,3,4.2,9.51,4.88,17.29,11.22,18.89,22.67.44,3.13,2.81,2.25,4.62,2.29,11,.22,14.37,2.78,17.47,13.59.75,2.63,2.82,3.67,5.06,4.31,7.16,2,14.6,3.33,21.49,6,8.64,3.4,17.59,4.19,26.6,4.88,4.26.32,7.87-2.35,11.7-3.83a40.58,40.58,0,0,1,14.47-3.08c7.49-.06,12.66,3.54,15.23,9.92,1.84,4.59,4.48,6.84,9,6.86,9.83,0,19.9,2.28,29.65-2.91-2.35-1.77-5.28-1.84-7.17-4-2.83-3.2-2.73-4.88,1.06-6.88,5.29-2.81,11.07-2.29,16.61-1.63a61.76,61.76,0,0,1,20,5.56c7.17,3.52,14.59.36,21.88.77s12.15-2.73,16.07-8.78c3.29-5.08,8.95-7.25,14.67-8.75A22.56,22.56,0,0,0,392,354.2c.66-5.27,3.47-9.58,6.79-13.62a49.55,49.55,0,0,0,8.77-14.91c1-2.83-.78-6,1.3-8.66,2,4.11,1.8,8.73,3.16,13,1,1.94-.26,4.18.83,6.11.49,18.64-4.36,35.48-16.84,49.72a51.46,51.46,0,0,1-22.65,14.88c-12.65,8.78-46.24,8.63-53.49,9.4-19.74,2.07-39.13-1.05-58.52-3.68-14.82-2-29.66-3.83-44.6-4.33a199.78,199.78,0,0,1-34.6-3.88,30.66,30.66,0,0,0-4-.31c-3.61.68-6.77-.85-10-2.09-4.11-3.34-9.41-3.77-14.07-5.78-22.69-9.78-40.35-25-51.72-47.15L99,331c-.93-1.95-1-14.68,0-17A99,99,0,0,1,106.28,291.09Z" transform="translate(-98.27 -106.45)"/><path class="cls-3" d="M272,107.14c8.43,1.81,17,3.12,25.19,5.88,4.94,1.66,9.26,4,9.89,9.93.37,5.77-4,7.71-8.12,9.25-7.3,2.74-14.73,2.23-21.94-.7a37.64,37.64,0,0,1-7.85-4.35,32.21,32.21,0,0,0-15.81-5.66c-1.63-.17-3.37,0-4.62-1.43a9.28,9.28,0,0,1,.17-5C250.59,110.28,259.26,104.42,272,107.14Z" transform="translate(-98.27 -106.45)"/><path class="cls-3" d="M291,149.05c-3.21,4.62-8.11,6-13.2,5.93a48.16,48.16,0,0,1-21-4.56c-2.93-1.42-5.84-3.25-5.83-7.23l3.92-2a1.34,1.34,0,0,1,1.16-.45c1.81,1.06,3.78,1.9,5.13,3.61.11,2.05,1.67.71,2.51,1.06h.66a8.46,8.46,0,0,1,1.33.15c2.47.41,5,.49,7.39,1.35.45.1.89.24,1.33.38,4.61,1.78,8.25-2,12.51-2.18C287.69,147.1,289.85,147.57,291,149.05Z" transform="translate(-98.27 -106.45)"/><path class="cls-4" d="M238.09,118.07a3.7,3.7,0,0,1,2.94,1.05c.29.39.79.8.75,1.24-.46,5.47,2.69,11.37,1.64,16.83-4.94,1.84-7.16.42-8.46-2.77a11.43,11.43,0,0,1-.91-5.77c-.43-3,.17-5.56.84-8.36C235.26,118.72,235.72,116.92,238.09,118.07Z" transform="translate(-98.27 -106.45)"/><path class="cls-5" d="M253,139.89l-5.29-1.59a29.59,29.59,0,0,1-.54-14.42c.22-.5.27-2,.7-1.64,1.81,1.39,8.11,4.6,10.09,8.86C254.66,133.08,254.69,137,253,139.89Z" transform="translate(-98.27 -106.45)"/><path class="cls-6" d="M208.13,138.12a22.88,22.88,0,0,1,7.94-4.85c2.87,2.69,3.32,6.38,4.14,9.93L213,148C211.16,144.8,210,141.3,208.13,138.12Z" transform="translate(-98.27 -106.45)"/><path class="cls-6" d="M193,154.07a24.89,24.89,0,0,1,4.91-6.22c2.73,2.57,4.23,5.92,5.84,9.2a33.09,33.09,0,0,1-6.59,7.33C194.64,161.42,194.06,157.66,193,154.07Z" transform="translate(-98.27 -106.45)"/><path class="cls-7" d="M217.27,126.23a38.24,38.24,0,0,1-10.22,1.87c-.84-3.48-1-6.88,1-10.08a13.1,13.1,0,0,1,7-1.73c1.42,1.45,1.29,3.25.94,5A6.52,6.52,0,0,0,217.27,126.23Z" transform="translate(-98.27 -106.45)"/><path class="cls-4" d="M248.11,122.91l-.36,15.39-3.7-.39a7,7,0,0,1-1-1.28c-1.3-3.81-1.76-7.65-.18-11.5.68-1.67,1.31-3.44,3.59-3.5C247.33,121.61,248,121.89,248.11,122.91Z" transform="translate(-98.27 -106.45)"/><path class="cls-8" d="M200.19,145.14a10.51,10.51,0,0,1,4.46-4.2c4.64.84,4.3,5.69,6.72,8.32l-5.26,5C203.2,151.81,201.72,148.46,200.19,145.14Z" transform="translate(-98.27 -106.45)"/><path class="cls-6" d="M238.09,118.07c-3.33,2.58-2.34,6.85-4,10.1-.5.35-3.85-1.4-5.11-2-1.25-3.46-.14-6.68,1-9.89A19.62,19.62,0,0,1,238.09,118.07Z" transform="translate(-98.27 -106.45)"/><path class="cls-9" d="M219,116.22h7c2,3.5,0,6.58-1,9.77h-6A8.53,8.53,0,0,1,219,116.22Z" transform="translate(-98.27 -106.45)"/><path class="cls-10" d="M193,154.07c3.21,2.7,3.24,6.69,4.16,10.31a6.73,6.73,0,0,1-3,2.78c-3.73,1-3.54-2.31-4.46-4.25a6.19,6.19,0,0,1,.14-5.17Z" transform="translate(-98.27 -106.45)"/><path class="cls-6" d="M218.91,132a20.79,20.79,0,0,1,8.12-2.83c.38,3.51,2.26,6.56,3.07,9.94-1.92,1-3.83,2-6.1,1.84C220.69,138.9,221.05,134.75,218.91,132Z" transform="translate(-98.27 -106.45)"/><path class="cls-11" d="M246.92,122.14c-4.36,2.46-3.84,6.68-3.74,10.67a36.25,36.25,0,0,0,.87,5.1c-.93-.06-2.45.23-3.06-.84-3-5.21-1.17-12,0-17.95,1.9.73,6.32,2.45,6.22,2.66S247,122.14,246.92,122.14Z" transform="translate(-98.27 -106.45)"/><path class="cls-12" d="M230.1,139.13c-2.5-2.86-4.84-5.76-3.07-9.94a1,1,0,0,1,.88-.16c5.34-.32,7.7,3.18,6.13,9.1A6.1,6.1,0,0,1,230.1,139.13Z" transform="translate(-98.27 -106.45)"/><path class="cls-13" d="M181.1,164.26l3.79-2.3c4,2.09,4.75,4.38,3.17,9.1a3.58,3.58,0,0,1-2.85,1.08C180.51,172.25,179.21,169.76,181.1,164.26Z" transform="translate(-98.27 -106.45)"/><path class="cls-12" d="M218.91,132c4.37,1.47,3,6.17,5.09,8.95-1.29.69-2,1.8-3.79,2.23-2.81-2.72-2.87-6.57-4.14-9.93Z" transform="translate(-98.27 -106.45)"/><path class="cls-6" d="M188.06,171.06c0-3.39-.68-6.56-3.17-9.1l5-4.22c.91,3.38.53,7.35,4.32,9.42A12.22,12.22,0,0,1,188.06,171.06Z" transform="translate(-98.27 -106.45)"/><path class="cls-10" d="M200.19,145.14c3.33,2.14,4.31,5.82,5.92,9.08l-2.32,2.83c-3.18-2.28-4.72-5.61-5.84-9.2Z" transform="translate(-98.27 -106.45)"/><path class="cls-10" d="M211.37,149.26c-4.37-1-3.34-6.47-6.72-8.32a7.63,7.63,0,0,1,3.48-2.82c3.75,2.23,4.78,5.81,4.88,9.85Z" transform="translate(-98.27 -106.45)"/><path class="cls-14" d="M181.1,164.26c.74,3,.08,7.1,5.11,7.82-.13.1-10.06,2.17-11.5-1.38S178.28,165.88,181.1,164.26Z" transform="translate(-98.27 -106.45)"/><path class="cls-12" d="M225,126c-1.23-3.42,1.5-6.43,1-9.77l4,0c.78,3.41-.32,6.63-1,9.89Z" transform="translate(-98.27 -106.45)"/><path class="cls-15" d="M208,118c-.23,3.36.8,6.86-1,10.08l-.76.11c-4.91.07-5.78-2.07-3.21-7.91A8.45,8.45,0,0,1,208,118Z" transform="translate(-98.27 -106.45)"/><path class="cls-16" d="M219,116.22V126l-1.76.22c-1.2,0-1.87-.55-2.17-3.49a38.64,38.64,0,0,1,0-6.45Z" transform="translate(-98.27 -106.45)"/><path class="cls-4" d="M253,139.89c.21-3.76-1-8.34,5-8.8l.58.61c.76,3.56,1.81,7.21-2.57,9.37l-1.09.16Z" transform="translate(-98.27 -106.45)"/><path class="cls-17" d="M203.08,120.3c.91,2.7-2.56,7.18,3.21,7.91-3.15,1-7.43,2.38-8.79-.94S200.28,122,203.08,120.3Z" transform="translate(-98.27 -106.45)"/><path class="cls-18" d="M234,138.13c-1-3.72-.68-8.67-6.53-9.14,1.45-1.18,3.57-.5,5.26-.56.44.06.91-.32,1.36-.26,2.81,3.66.05,10,6.46,9.77C238.58,138.37,237.38,138.06,234,138.13Z" transform="translate(-98.27 -106.45)"/><path class="cls-2" d="M249.14,123.1c1-1,0-1.47-.39-3a35.19,35.19,0,0,1,22.35,6.71c7.37,5.33,15.64,6.86,24.44,5.18,5.24-1,9.63-3.52,11.55-9,2,5.14.73,7.85-4.89,10.21-5.32,2.22-10.85,4-15.28,7.93-3.24-.56-5.44-3.38-8.68-4-2.49-1-5.17-1.37-7.71-2.23-4.09-1.54-8.7-1.36-12.5-3.82h0Z" transform="translate(-98.27 -106.45)"/><path class="cls-19" d="M279,136.23a14.62,14.62,0,0,1,7.92,4.86c0,1.35,0,2.7.05,4-3.91,2.88-8,5.16-13,3,5.3-2,5-6.25,4.42-10.66A2.19,2.19,0,0,1,279,136.23Z" transform="translate(-98.27 -106.45)"/><path class="cls-1" d="M168.2,395.82c4.31,1.51,6.38,2.2,10,2.09,1.73,8.64,6.34,15.48,13.08,21,2.19,1.79,4.66,3.26,6.67,5.21,4.1,4,2.92,9-2.52,10.87a18.26,18.26,0,0,1-5.84,1.06q-9.72,0-19.44-.34c-3.23-.13-6.06-1.38-6.09-5.2s2.77-5.24,6-5.31c4.13-.08,8.27.4,13.24.69C174.43,417.37,168.4,408,168.2,395.82Z" transform="translate(-98.27 -106.45)"/><path class="cls-3" d="M374.79,339.61a87.14,87.14,0,0,1-19.31,42.1c-3.17,3.82-7.28,5.89-13.22,4.54-7-1.58-13.9-3-20.46-5.87-1.4-.61-3.74-.44-3.44-2.81.24-1.86,1.57-3.15,3.38-4,5.31-2.56,11.09-3.53,16.75-4.41,15.15-2.34,26.21-9.62,32-24.18C371.32,343,371.83,340.44,374.79,339.61Z" transform="translate(-98.27 -106.45)"/><path class="cls-3" d="M162.35,329.26c9.76,7.54,28,20.58,45.34,25.26-6,3.75-11.34,6.84-18.65,5.66-5.68-.92-11.61-.27-17.43-.2-10.73.12-11.32-3.82-12.46-12.21a23,23,0,0,1,.13-7.46C160,336.76,159,326.68,162.35,329.26Z" transform="translate(-98.27 -106.45)"/><path class="cls-20" d="M193.74,316.81c.39-.54.79-1.07,1.18-1.6,5-7,5-6.95,10.58-.32,2.13,2.55,4.57,2.69,6.84.32a6.24,6.24,0,0,1,5.17-2.27c10.89.53,21.52-1.33,32-4.07a17.73,17.73,0,0,1,10.77,1.06c4.82,1.88,9.29,2.39,14.4,2.9,2.67.27,3.08,1.11,2.14,3.33S275,320.73,274,323c-1.75-4.65-6.42-4.63-10-6-12.46-4.54-24.75-1.11-37,1.48-10.43,2.21-20.75,3.93-30.83-1.34A8,8,0,0,0,193.74,316.81Z" transform="translate(-98.27 -106.45)"/><path class="cls-1" d="M280.11,229.1c2.17.73,4.1,2.62,3.78,5.24s-2.46,3.33-4.68,3.66c-5,.72-26.3-2.32-32-2.94-2.64-.29-4.88-1.29-5.93-3.83-1.18-2.9.21-5.85,2.79-6.18C252.63,224,278.08,228.42,280.11,229.1Z" transform="translate(-98.27 -106.45)"/><path class="cls-20" d="M274,227.9c-9.95-1.4-19.82-3.57-30-2.85,2-2.16,4.83-.29,7.28-1.4-2.43-4.56-6.46-8.73-4.13-14.61,3.7,1.41,6.21,4.62,9.85,6.25,9.2,4.13,16.18,3.1,23.43-4,1-1,1.66-2.59,3.53-2.24.09,7.2-3.35,12.37-9.26,16.11C273.58,225.87,271.66,226.3,274,227.9Z" transform="translate(-98.27 -106.45)"/><path class="cls-21" d="M259,178c-1.65,2.63-4.28,5-5.93,7.62-3.68.23-5.27-1.09-5.82-4.76-.31-2.07-1.55-2.6-3-3.46-2.14-1.29-3.43-3.24-2.86-5.84a6.06,6.06,0,0,1,4.68-4.66c7.21-2.08,18.13.41,17.16,5.87C262.86,174.91,259.92,174.24,259,178Z" transform="translate(-98.27 -106.45)"/><path class="cls-21" d="M282,188c-1.68-4.72-5.76-8.12-7.12-13,.8-4.13,3.78-5,7.39-5,4.18,0,16.78,2.69,11.41,7.33C290,180.46,293.36,186.77,282,188Z" transform="translate(-98.27 -106.45)"/><path class="cls-22" d="M389.13,321c.54,2.77-1.53,2.06-2.78,1.89-2.6-.35-5.17-.94-7.73-1.49-5.83-1.25-5.64-1.2-3.92-7.22,1.14-4,2.81-7.31,6.26-9.69,1.13-.78,2.31-2,3.09,0C386.11,309.83,388.29,315.19,389.13,321Z" transform="translate(-98.27 -106.45)"/><path class="cls-22" d="M152,279.54c3.71,6.3-5.23,13.5-7.84,20.17-.42,1.05-1.47,1.3-2.44,1.51-3.77.82-5.84,5-9.82,5.43a1.07,1.07,0,0,1-1-.68c-1.9-6,4.47-11.8,6.79-17.67a2.25,2.25,0,0,1,2.53-1.24c5,1,7.15-2.19,8.9-6C149.52,280.15,151,277.85,152,279.54Z" transform="translate(-98.27 -106.45)"/><path class="cls-20" d="M270.14,248c2.17,1.88,4.65,4,4.21,7-.52,3.55-4.17,4.23-7,4.66-4.56.68-9.27,1.16-13.8-.38-3-1-5.3-2.81-5.52-6.33s2.43-4.75,5.14-5.81A12.77,12.77,0,0,0,267,251.51C268.91,250.91,269.22,249.25,270.14,248Z" transform="translate(-98.27 -106.45)"/><path class="cls-23" d="M270.14,248c2.05,1.23,1.33,4.13-1.37,4.64-4.41.84-8.91,1-13.23-.69-2.22-.85-3.8-3-2.36-4.83C257.2,242.12,265.29,245.06,270.14,248Z" transform="translate(-98.27 -106.45)"/><path class="cls-24" d="M283.77,324.88c1.56-3.21,3.12-6.43,4.94-10.16,1.92,3.17,2.32,6.32,3.17,9.3C289.15,324,286.38,323.69,283.77,324.88Z" transform="translate(-98.27 -106.45)"/><path class="cls-25" d="M258,131.08a33.14,33.14,0,0,1,13.06,3,3.72,3.72,0,0,1-1.72,1.26c-2.6.88-3.13,3.15-3.72,5.44-.44,1.72-.15,3.7-1.66,5.07,0,0-3.33,1.2-7.95-4.77C258.47,138.09,258,134.53,258,131.08Z" transform="translate(-98.27 -106.45)"/><path class="cls-25" d="M269,134.11l2.1,0a24.54,24.54,0,0,1,7.92,2.16v.88a8,8,0,0,0-3.8,6.56,5.45,5.45,0,0,1-2.14,4.29c-2.62-1-5.6-.36-8.1-1.84C268,142.69,268.64,138.45,269,134.11Z" transform="translate(-98.27 -106.45)"/><path class="cls-26" d="M273.06,148c.36-2.26,2-4.13,2.5-6.36.54-2.53,0-6.13,3.44-5.37,1,1.58,1.06,4.23,1,6-.1,4-1.51,6.54-6.07,5.87A3.71,3.71,0,0,1,273.06,148Z" transform="translate(-98.27 -106.45)"/><path class="cls-16" d="M271.09,134.07c1.86,5.36-1.71,9.78-6.13,12.05l-1-.28C264.51,141.45,265.07,136.12,271.09,134.07Z" transform="translate(-98.27 -106.45)"/><path class="cls-27" d="M228.09,297.93c-2.35,1.92-6,1.13-8.33.32-.61-.22-.4-1.25.13-1.64C222.37,294.78,226.21,296.94,228.09,297.93Z" transform="translate(-98.27 -106.45)"/><path class="cls-5" d="M285,198.08c-3.51,10.54-11.72,16.24-22.12,15.17-3.52-.36-6.91-1.23-8.45-5-.16-1.15.4-2.77-1.73-2.68-2.7-.44-2.77-4.09-5.51-4.48.2-6,11.14-33.71,27.72-26.09C282.29,178.36,284,194.71,285,198.08Z" transform="translate(-98.27 -106.45)"/><path class="cls-16" d="M284,209c-6.85,17.31-32.4,12.95-36.81,0-.86-2.52,0-5.33,0-8,.74-.22,1-2.3,2.34-.32,1,1.52,1.58,3.53,3.53,4.32a3.67,3.67,0,0,1,2,2c2.39,4.59,8,6.48,14.58,4.58,5.56-1.59,10.34-4.37,12.69-10.14.54-1.34,1.1-2.81,2.66-3.42C287,201.94,285.34,205.61,284,209Z" transform="translate(-98.27 -106.45)"/><path class="cls-28" d="M266.78,208.31a1.3,1.3,0,1,1-2.57.24,1.17,1.17,0,0,1,1.18-1.29A1.19,1.19,0,0,1,266.78,208.31Z" transform="translate(-98.27 -106.45)"/><path class="cls-29" d="M264.64,200.86c-.7-.05-1.3-.27-1.39-1.07a1.23,1.23,0,0,1,1.4-1.53,1.18,1.18,0,0,1,1.18,1.29A1.26,1.26,0,0,1,264.64,200.86Z" transform="translate(-98.27 -106.45)"/><path class="cls-30" d="M255,207.06a1.84,1.84,0,0,1-2-2c.69-.87,1.57-1.34,2.46-.45S255.91,206.37,255,207.06Z" transform="translate(-98.27 -106.45)"/><path class="cls-31" d="M274.24,202.06c-.28-.41-.75-.8-.69-1.06a1.28,1.28,0,0,1,.94-.76c.68-.06,1.26.36,1,1.12C275.41,201.66,274.77,201.78,274.24,202.06Z" transform="translate(-98.27 -106.45)"/><path class="cls-1" d="M313.91,308.09c.75,1.46,1.55,2.9,2.26,4.38,1.15,2.39.81,4.59-1.32,6.21s-4.45,1-6.29-.71-3.63-3.76-6.15-6.42c.22,2.19.41,3.49.46,4.79a18.58,18.58,0,0,1-.5,6.38c-.84,2.69-2.29,5.21-5,5.67s-3.84-2.65-5.5-4.37c-1.73-1.47-2-3.75-3.23-6-1.85,2.29-2.57,5.18-4.88,6.82-.47.47-.95.92-1.4,1.4-1.95,2.06-4.07,4.77-7.06,3.5-2.8-1.19-1.65-4.44-1.28-6.76.34-2.15.41-2.54.91-6.23.25-1.8-.33-2.46-1.86-2.7-5.91-.93-11.58-2.84-17.34-4.36-2.15-.56-4.28.06-6.38.58-9.84,2.39-19.76,4.27-30,4-2.61-.06-5.18,1.85-7.26,3.4-2.68,2-4.82.47-7.18-1.87-4.47-4.43-10.4.76-11.22,1-4.52,5.35-12.33,2.68-7.63-5.81,3.44-6.21-2.07-9.24-6-14.06-3.94,0-4.13-6.72.49-8.91,2-.95,1.8-3.89,2.5-5.93a48.27,48.27,0,0,1,22.19-27.22,26.34,26.34,0,0,1,5.46-2.42c3.22-1,6.09-.08,7.75,2.91,1.56,2.81.76,5.61-1.55,7.7-2.94,2.69-6.22,5-9.14,7.71a24.11,24.11,0,0,0-6.11,7.76c5.69.64,11.19,1.18,16.67,1.87A100.91,100.91,0,0,1,247,288.8c7.51,3.38,14.73,4.11,22.58,1.78,9.82-2.9,19.41-2.42,28.22,3.45,2.07,1.37,3.63,1,5.28-.65,3.08-3,5.26-6.4,5-11a30.69,30.69,0,0,0-.92-6.39c-.94-3.5-2.52-7.34,2.17-9.51,3-1.39,6.93,1.18,9.13,6a26.92,26.92,0,0,1,.35,22.27A24.86,24.86,0,0,1,315,301C313.18,303.57,312.61,305.48,313.91,308.09Z" transform="translate(-98.27 -106.45)"/><path class="cls-32" d="M216.32,294.67a22.45,22.45,0,0,1,9.49,2.37s-8.7.84-9.49,1.26Z" transform="translate(-98.27 -106.45)"/><path class="cls-32" d="M192.78,291.8l1,2.08s2.3-3.26,3.79-3.46Z" transform="translate(-98.27 -106.45)"/><path class="cls-32" d="M180.1,296.94l3.68-.45s2.83,7.51,5.64,8.83L186.11,311A21.66,21.66,0,0,1,180.1,296.94Z" transform="translate(-98.27 -106.45)"/><path class="cls-20" d="M192.78,317.78s5.24-6.79,5.51-7.85c0,0,5,1.48,6.46,1.07a17.7,17.7,0,0,0,1.53,5.94c1.37,2.88,5.06,2,5.06,2a13.2,13.2,0,0,0,2.64-6.72s29.36,1.13,35.38-1.87l26.46,4.18-1.38,6-5.74-4.85-13.16-2.93-12.81.79-25.19,3.56-4.49,2.75h-3.42l-8.58-2.35Z" transform="translate(-98.27 -106.45)"/><polygon class="cls-20" points="204.63 212.71 209.26 210.54 204.14 205.1 204.63 212.71"/><path class="cls-20" d="M314.88,309.93s6.3-6.38,3.93-15.19l-7,10.18Z" transform="translate(-98.27 -106.45)"/></svg>