<svg xmlns="http://www.w3.org/2000/svg" viewBox="0 0 353.57 280.09"><defs><style>.cls-1{fill:#af4646;}.cls-2{fill:#893737;}.cls-3{fill:#f0d6d6;}.cls-4{fill:#d6c2c2;}.cls-5{fill:#d6c3c3;}.cls-6{fill:#5e4545;}.cls-7{fill:#c28d7a;}.cls-8{fill:#e5a2a2;}.cls-9{fill:#dfa57a;}.cls-10{fill:#dfa57b;}.cls-11{fill:#384139;}.cls-12{fill:#e1b68c;}.cls-13{fill:#efd5d4;}.cls-14{fill:#eed3d1;}</style></defs><title>santa1</title><g id="Capa_2" data-name="Capa 2"><g id="Capa_1-2" data-name="Capa 1"><path class="cls-1" d="M87.83,41.22c9.76-22.53,28.61-33.51,50.93-40.11,2-.59,18-2.34,30.24.31,17.43,3.77,32.2,13.06,44.58,26.08,5,5.27,8.37,11.34,12,17.66,1.93,3.38,1.59,7.87-3.83,4.22a34.35,34.35,0,0,0-24.3-5.94c-26.46,3.68-52.76,8.35-78.75,14.65-5.86-5.8-18.05-7.7-26.29-6.16-1.83-.9.13,1-.35-2.44S89.6,43.78,87.83,41.22Z"/><path class="cls-2" d="M352.56,189a65.79,65.79,0,0,1-16.25,29.66c-2.37,2.48-5.15,4.7-8.73,5.41-1.52-2.79-1.18-5.08.9-7.72,3.07-3.89,6.45-7.55,8.93-11.93,7.31-12.93,9.72-27,10.08-41.6.14-5.23-.18-10.46-.29-15.7a54.71,54.71,0,0,1,5.63,16.71C353.93,170.17,353.76,184.41,352.56,189Z"/><path class="cls-3" d="M118.68,58.09c26-6.3,52.29-11,78.75-14.65,8.48-1.19,16.95-.65,24.61,4.13,2.64,1.65,7.07,4.35,9.39,7.51a21.69,21.69,0,0,1,3.94,17.53c-.73,3.52.7,3.34,3.19,3.57,7.85.74,14.08-2.84,20.35-6.82,4.49-2.85,9.32-5,15-3.33,3.5,1,6.08,3,6.58,6.68.4,2.91,2.05,3.22,4.46,3.48,4.31.46,8.5,1.5,11.85,4.6,5.38,5,6,10,1.81,16.33.26-2.37-1-3.63-3-4.56a74.39,74.39,0,0,0-11.79-3.91,142.78,142.78,0,0,0-35.25-5.23c-5.71-.12-13.33-2.39-16.78,5.65-1-3.12-3.13-5.52-5.11-8,2.3-5-.33-7.62-4.52-9.76-15.55-8-32.24-9.67-49.35-9.2-21.81.59-41.28,7.32-56,23.85-4.24,4.77-8.8,5.21-13.91,6.11-1.3.24-2.64.24-3.94.47C80,95.9,64,105.86,47.55,114.81q-6.16,3.34-.95,8L43.67,125c-3.36-1.21-5.23-5.69-6-9.92C34.72,100,43.51,90.64,55.3,87.2c5.15-1.51,9.81-2.54,13.84-7.31,5.16-6.11,13-4.87,19.89-2,4.23,1.81,8,4.6,12.08,6.9,1.75,1,3.79,2.06,5.63.87s-.23-3-.11-7.07c.25-8.36,2.37-12.81,9.14-18C116.81,59.89,118.16,59.47,118.68,58.09Z"/><path class="cls-4" d="M231.72,89.07c3.45-8,11.07-5.77,16.78-5.65a142.78,142.78,0,0,1,35.25,5.23,74.39,74.39,0,0,1,11.79,3.91c2,.93,3.3,2.19,3,4.56-.69,1-.65,2.79-1.34,4-18-6-34.92-11.66-54.12-10.84-3.44.14-6.89.61-10.34-.06Z"/><path class="cls-1" d="M43.67,125c9.69-7.41,36.62-21.29,53.05-24.5q9-1.75,18-3.48c1.19,6.32-.16,12.61-.28,18.91-8.75,7.2-14.84,15.63-13,27.8a3.48,3.48,0,0,1-.37,2.38c-3.53,4.62-5.52,10.08-8.36,15.07-.76-2.1,2.23-4.33-.6-6.83-4.41,8.72-13.2,12.55-19.88,18.72a21.18,21.18,0,0,1-10.14,4.87c-3.75.82-5.25,2.54-3.44,6.26-7.06-2.72-13.06-.85-17.77,4.71A55,55,0,0,0,28.5,217l-.86,1.06a52.87,52.87,0,0,1-13-19c-4.54-11.6-4.94-23.77-4.93-36,0-1.77,1.08-4.15-1.71-5.07,6.68-11,16.58-18.65,26.67-26.14C37.67,129.64,40.65,127.3,43.67,125Z"/><path class="cls-3" d="M87.83,41.22c2.7,1.54,3.73,4.86,4.21,8.27s.27,4.57-.33,6.68c-.23-1.24.51-2.9-.89-3.63-1.71-.91-2.7.69-3.72,1.68C83.2,58,78.73,60,73.2,59.06c-4.31-.72-6-5-9.47-6.88C64.93,40.16,79.09,36.23,87.83,41.22Z"/><path class="cls-5" d="M63.73,52.18c3.42,1.93,5.16,6.16,9.47,6.88,5.53.94,10-1.08,13.9-4.84,1-1,2-2.59,3.72-1.68,1.4.73.66,2.39.89,3.63C88.54,68.78,76.47,71.56,69.86,67.23,64.25,63.55,63.07,58.3,63.73,52.18Z"/><path class="cls-2" d="M28.5,217c-.28.35-11-10.6-13.9-17.92-4.54-11.6-4.94-23.77-4.93-36,0-1.77,1.08-4.15-1.71-5.07a37.6,37.6,0,0,0-7.2,15c-1,4.52-1,16.15,0,20,2.56,10.46,10,21.34,16.47,27.37a14.57,14.57,0,0,0,10.48,3.68C29.65,221.94,28.57,219.42,28.5,217Z"/><path class="cls-3" d="M92.72,161.18c2.84-5,4.83-10.45,8.36-15.07a3.48,3.48,0,0,0,.37-2.38c-1.89-12.17,4.2-20.6,13-27.8,6.56-2.26,13.5-2.59,20.25-3.88,6.6,1.61,12-.81,17-4.9,5.09-3.48,10.48-6,16.9-5a38.5,38.5,0,0,0-.73,4.36c-.17,3.44.42,6.67,3.72,8.56s6.65,1.15,9.68-1.09c4.09-3,4.94-7.17,4.31-11.89.92-1.07,2-.62,3.17-.52,5.73.45,9.42,5.5,14.9,6.46,5.93,1.52,11.85,3.06,18,1.07l11.17,3.83c11.7,6.6,15.26,13.28,13.45,26.61-.37,2.75,1,3.47,2.55,4.67,5.69,4.55,9.52,10.14,9.93,17.66.79,4.54-4.32,5.79-5.24,9.64-2.37,9.88-9.43,15.72-18.55,19.22a9.05,9.05,0,0,0-5.24,4.26c-3,5.72-7.41,10.19-12.06,14.45-8,7.33-20.39,10.48-27.45,5.47-5.26-3.74-9.09-2.54-13.69-.29-.3.14-.59.3-.9.42-13.74,5.49-26.77,6.09-38-5.56-1.77-1.85-3.94-1.4-6.06-1.44-3.13-.06-6.45.57-9-1.8-4.83-4.4-9.26-9.05-10-16.06-.43-4-1.84-7.39-5.73-9.72A22.8,22.8,0,0,1,98.17,171c-1.39-2.8-3.32-2.13-5.39-1-.09-2.66-1.41-2.95-1.5-5.61C91.4,164.15,92.7,161.49,92.72,161.18Z"/><path class="cls-4" d="M92.78,170c2.07-1.13,4-1.8,5.39,1a22.8,22.8,0,0,0,8.58,9.42c3.89,2.33,5.3,5.69,5.73,9.72.75,7,5.18,11.66,10,16.06,2.6,2.37,5.92,1.74,9,1.8,2.12,0,4.29-.41,6.06,1.44,11.21,11.65,24.24,11.05,38,5.56.31-.12.6-.28.9-.42,4.6-2.25,8.43-3.45,13.69.29,7.06,5,19.44,1.86,27.45-5.47,4.65-4.26,9.1-8.73,12.06-14.45a9.05,9.05,0,0,1,5.24-4.26c9.12-3.5,16.18-9.34,18.55-19.22.92-3.85,6-5.1,5.24-9.64,6.05,16.48-6.27,34.9-21.14,37.89-3.6.72-3.84,1.9-3.33,5.3,1,6.5,2.24,13,1.51,19.75-1.44,13.2-12.36,24.88-25.6,25.7a19.24,19.24,0,0,1-14.6-5.4c-4.2-4.13-8.11-3.68-12.56-1.27a49.84,49.84,0,0,1-17.8,5.71c-7,.89-13.53-.23-20-2.32-5.12-1.65-7.28-6.06-9.19-10.53-.72-1.69-1-3.47-3.15-4.09-11.5-3.33-20.31-10.72-24.16-21.59a29.17,29.17,0,0,1-.81-4.06,2.06,2.06,0,0,1-.31-2.71c-1.43-2.49-.92-5.1-.24-7.6C108.17,193.44,87.52,181.24,92.78,170Z"/><path class="cls-1" d="M347.2,147.13c-2.26-5.62-5.95-10.27-9.87-14.8-11.16-12.88-23.11-25.35-38.8-32.22-17.37-7.6-36.21-10.63-55.41-9.81-3.44.14-6.89.61-10.34-.06a87,87,0,0,1,0,22.69c11.7,6.6,15.26,13.28,13.45,26.61-.37,2.75,1,3.47,2.55,4.67,5.69,4.55,9.52,10.14,9.93,17.66,6.05,16.48-6.27,34.9-21.14,37.89-3.6.72-3.84,1.9-3.33,5.3,1,6.5,2.24,13,1.51,19.75-1.44,13.2-12.36,24.88-25.6,25.7a19.24,19.24,0,0,1-14.6-5.4c-4.2-4.13-8.11-3.68-12.56-1.27a49.84,49.84,0,0,1-17.8,5.71c-7,.89-13.53-.23-20-2.32-5.12-1.65-7.28-6.06-9.19-10.53-.72-1.69-1-3.47-3.15-4.09-11.5-3.33-20.31-10.72-24.16-21.59a29.17,29.17,0,0,1-.81-4.06c-.11-.9-.21-1.81-.31-2.71-1.43-2.49-.92-5.1-.24-7.6.87-3.21.29-5.72-2.67-7.47a17.89,17.89,0,0,1-8.43-8c-2.49-3.29-4-6.88-3.42-11.11l-.27-8C87.88,170.7,81.69,177.72,73,182.62c-4.07,2.3-8.16,2.38-12.44,2.52,2.22,1.56,3.57,3.84,5,6,4.91-4.57.82,40-4,40.94-7.16,12.81-17.08,14.19-28.49,3.8-1.55,3-1.68,12.79,2.29,20.13,6.8,12.59,18,21.45,33.66,22.15,13.78.62,27.54,1.57,41.34,1.84,22.63.45,45.21-1.48,67.83-1.09,12.47.22,25,.23,37.43-.05,8.78-.19,17.56-.9,26.32-1.58,12.88-1,25.72-2.82,38.6-3.18C297.33,273.67,304,271,314,257.6c8-10.73,8.07-17.32,8.33-18.18-.22-2,4.91-15,5.25-15.34-1.52-2.79-1.18-5.08.9-7.72,3.07-3.89,6.45-7.55,8.93-11.93,7.31-12.93,9.72-27,10.08-41.6C347.63,157.6,347.31,152.37,347.2,147.13Z"/><path class="cls-6" d="M61.61,232.1c5.13-13.28,4.13-27.15,4-40.94,4.91-4.57,10.32-8.18,17-9.59,6-1.25,11.64,1,13.13,6,2.11,7-7.47,12.47-8.21,13,3.76-.26,7.07-.6,9-.56,7.8.14,14,4.21,9.91,10.95-2.49,4.12-12,3.12-15.18,3.79,5.37,1.58,10.51,2.18,12.23,6,3.08,6.88-1.88,11.41-9.43,12.2a29.82,29.82,0,0,1-18.4-4C71,226.05,66.39,231.13,61.61,232.1Z"/><path class="cls-4" d="M198.58,71.15c-16.52-2.89-32.78-3.06-48.91,2-1.34.33-2.7.6-4,1-.72.21-15.5,7.88-17,10-4,2.27-14,12.64-13.95,12.93q-9,1.74-18,3.48C80.29,103.71,49.8,121,46.6,122.85q-5.2-4.69.95-8C64,105.86,80,95.9,98.89,92.54c1.3-.23,2.64-.23,3.94-.47,5.11-.9,9.67-1.34,13.91-6.11,14.72-16.53,34.19-23.26,56-23.85,17.11-.47,33.8,1.23,49.35,9.2,4.19,2.14,6.82,4.74,4.52,9.76C220.77,78.33,202.05,71.76,198.58,71.15Z"/><path class="cls-2" d="M73,182.62c-4.07,2.3-8.16,2.38-12.44,2.52l-1.88-.94c-1.81-3.72-.31-5.44,3.44-6.26a21.18,21.18,0,0,0,10.14-4.87c6.68-6.17,10.29-16.88,19.88-18.72,3.71-.71,1.92,5.46,1,7.52C87.46,175.11,81.69,177.72,73,182.62Z"/><path class="cls-7" d="M168.57,102.15c1-2.25,1.66-4.7,3-6.7,2.93-4.35,7.41-4.13,11,0,1.69,2,2.07,4.32,3,6.6,1.75,4.41-.22,8.87-4.31,11.88-3,2.24-6.25,3.06-9.68,1.09s-3.89-5.12-3.72-8.56A38.5,38.5,0,0,1,168.57,102.15Z"/><path class="cls-8" d="M162.43,133.89c.73-1.81,8.58-5.74,12.35-9.17.83-.75,1-1,2.32-.22,4.34,2.54,15.65,5.17,15,8.55-.51,2.49-7.76,4.76-14.54,4.94C175.52,138.05,161.3,136.69,162.43,133.89Z"/><path class="cls-9" d="M203.62,108c-4.14-3.44-.24-8.3,4.89-7.83a85.11,85.11,0,0,1,9.11,1.77c4.08.83,7,4.22,4,7.13C216.94,113.55,208.33,111.94,203.62,108Z"/><path class="cls-10" d="M134.65,112.05c-4.74-3.38-2.2-7,3.46-8.68a22.46,22.46,0,0,1,7.53-1.27c3.63-.11,7.8,1.33,6,5.05C148.89,113,140.18,116,134.65,112.05Z"/><path class="cls-11" d="M196.44,80.85c5.86.08,10.33,3.1,14.38,6.93,1.9,1.8,3.46,4,6.71,3.2a2.35,2.35,0,0,1,2.83,2.17c.24,1.54-.77,2.4-2,3.13-2.85,1.74-5.44.83-7.87-.85-2.72-1.88-5.23-4.07-8-5.81-3-1.86-6.25-2.89-9.93-1.66-1.82.61-4.19,1.19-5-1.53-.69-2.42,1.13-3.53,3-4.44A12.8,12.8,0,0,1,196.44,80.85Z"/><path class="cls-12" d="M232.78,90.24c-.35-.39-.37-1.61-1.06-2.75-1.69-2.81-3.13-3.94-5.11-6.42-5.84-2.74-11.47-6-18-7h0c-3.5-1.06-6.57-2.41-10-2.95-16.47-3.21-31.33-3.74-52.94,3-3.32,1-16.15,8.19-18.14,9.81C121.24,89,114.67,96.73,114.68,97c1.19,6.32-.16,12.61-.28,18.91,6.56-2.26,13.5-2.59,20.25-3.88-3.15-4.89,17-9,17-4.9,5.09-3.48,10.48-6,16.9-5,1-2.25,1.66-4.7,3-6.7,2.93-4.35,7.41-4.13,11,0,1.69,2,2.29,4.67,3,6.6.92-1.08,2-.63,3.17-.53,5.73.45,9.42,5.5,14.9,6.46-2.28-4.88,19.48-2.88,18,1.07l11.17,3.83A87,87,0,0,0,232.78,90.24Zm-14.38,6c-2.85,1.74-5.44.83-7.87-.85-2.72-1.88-5.23-4.07-8-5.81-3-1.86-6.25-2.89-9.93-1.66-1.82.61-4.19,1.19-5-1.53-.69-2.42,1.13-3.53,3-4.44a12.8,12.8,0,0,1,5.81-1.14c5.86.08,10.33,3.1,14.38,6.93,1.9,1.8,3.46,4,6.71,3.2a2.35,2.35,0,0,1,2.83,2.17C220.6,94.69,219.59,95.55,218.4,96.28Z"/><path class="cls-11" d="M146.61,91c-3.21,1.26-4.64,3.37-6,6-2,4-5.09,6-9.65,5a3.34,3.34,0,0,1-2.76-3.12c-.14-1.46.63-3,2-3,6-.07,6.49-5.71,9.45-8.85l6-3.11c3.28.11,6.62-.56,9.78.91,1.85.86,3.88,1.71,3.23,4.24s-2.89,2.24-4.87,1.78C151.36,90.32,149.22,90,146.61,91Z"/><path class="cls-13" d="M139.7,87.15c-2.6,1.37-5.2,5.2-8,2.95-3.79-3-.53-6.68,2.74-9s7.12-4.94,11.25-5.88a14.14,14.14,0,0,1,7,0c1.73.51,3.34,1.88,2.77,4.11-.47,1.8-2.2,2.15-3.79,2.8C149.66,82.82,141.87,86,139.7,87.15Z"/><path class="cls-14" d="M206.62,75.11a39,39,0,0,1,6.62,4.29,2.92,2.92,0,1,1-3.38,4.76c-4.88-3.46-10.45-4.51-16.24-5.3-3-.41-6.17-3.5-3-5.73C193.4,71.17,201.67,72.84,206.62,75.11Z"/><path class="cls-3" d="M40.89,188.91c4.71-5.56,10.54-7.91,17.78-5.71,6.09,1.85,7.07,5.09,7.85,7.61,4.09,13.16.16,28-4.91,41.29-6.32,16.57-21.62,15.48-29.23,6.51a23,23,0,0,1-4.7-14.52C28.86,201.82,34,197,40.89,188.91Z"/><path class="cls-2" d="M299.54,181a3,3,0,0,1-1.68,1.19c-6.19,2.35-11.32-2.35-15.72-6.92-5.89-6.13-11.83-12.13-15.45-20-1.33-2.89-2.44-5.83-2.1-9.11.12-1.2.34-2.39,1.72-2.71,1.21-.27,1.7.73,2.25,1.57,7.87,11.86,18.56,21,29.27,30.08C299.94,176.91,300.45,179.11,299.54,181Z"/><path class="cls-6" d="M294.27,189.09c1.72,11.94-.16,24.18,3,36-9.3,2.58-18.69,4.4-28.42,4-9.38-.41-13.55-6.36-10.19-15.14.92-2.4.28-3.29-1.7-4.17-4.16-1.86-6.36-5.11-5.18-9.6s4.91-5.37,9.07-5.24c3.31.1,6.61,0,10.24,0,.27-1.4-1-2.67-1.54-4.09-1.34-3.6-1.16-7,1.61-9.69,3-2.86,6.62-2.71,10.25-1.2a23.89,23.89,0,0,1,8.23,5.51C291,186.87,292.07,188.73,294.27,189.09Z"/><path class="cls-3" d="M321.57,200c2.53,8.14,9.24,30.67,3.21,37.59-2.23,2.56-19.13,11.55-27.49-4.45-4.75-9.09-5-36-3-44.08.67-2.82.93-6.37,5.27-8.1,6.65-2.67,12.51-.41,16,5A56.43,56.43,0,0,1,321.57,200Z"/></g></g></svg>