<svg xmlns="http://www.w3.org/2000/svg" viewBox="0 0 357 240"><defs><style>.cls-1{fill:#a52a04;}.cls-2{fill:#c03600;}.cls-3{fill:#e25c33;}.cls-4{fill:#f28268;}.cls-5{fill:#ddc5bf;}.cls-6{fill:#59514f;}</style></defs><title>Taquilla Vermella Vertical</title><g id="Capa_2" data-name="Capa 2"><g id="Capa_2-2" data-name="Capa 2"><rect class="cls-1" width="238" height="240" rx="10.85"/><rect class="cls-2" x="117" width="240" height="240" rx="10.85"/><path class="cls-1" d="M357,8.72V234.33a5.67,5.67,0,0,1-5.67,5.67H337.61c-1.27,0-1.31-1-1.31-2.3V2.3c0-1.27,0-2.3,1.31-2.3h10.67A8.71,8.71,0,0,1,357,8.72Z"/><rect class="cls-3" x="231.49" y="12.99" width="14.26" height="46.77" rx="4.39" transform="translate(202.24 274.99) rotate(-90)"/><path class="cls-4" d="M223.35,31h6.52a3.87,3.87,0,0,1,3.87,3.87v4.75a2.15,2.15,0,0,1-2.15,2.15h-10a2.15,2.15,0,0,1-2.15-2.15V34.86A3.87,3.87,0,0,1,223.35,31Z" transform="translate(190.24 262.99) rotate(-90)"/><rect class="cls-5" x="192.37" y="24.87" width="14.26" height="23" rx="4.39" transform="translate(163.13 235.87) rotate(-90)"/><rect class="cls-6" x="197.41" y="26.87" width="4.17" height="19" rx="1.1" transform="translate(163.13 235.87) rotate(-90)"/><rect class="cls-1" x="146" y="56.47" width="7.23" height="127.2" rx="3.62"/><rect class="cls-3" x="143" y="56.47" width="7.23" height="127.2" rx="3.62" transform="translate(293.23 240.14) rotate(-180)"/><rect class="cls-1" x="162" y="56.47" width="7.23" height="127.2" rx="3.62"/><rect class="cls-3" x="159" y="56.47" width="7.23" height="127.2" rx="3.62" transform="translate(325.23 240.14) rotate(180)"/><rect class="cls-1" x="178" y="56.47" width="7.23" height="127.2" rx="3.62"/><rect class="cls-3" x="175" y="56.47" width="7.23" height="127.2" rx="3.62" transform="translate(357.23 240.14) rotate(-180)"/><rect class="cls-1" x="278" y="56.47" width="7.23" height="127.2" rx="3.62"/><rect class="cls-3" x="275" y="56.47" width="7.23" height="127.2" rx="3.62" transform="translate(557.23 240.14) rotate(180)"/><rect class="cls-1" x="294" y="56.47" width="7.23" height="127.2" rx="3.62"/><rect class="cls-3" x="291" y="56.47" width="7.23" height="127.2" rx="3.62" transform="translate(589.23 240.14) rotate(180)"/><rect class="cls-1" x="310" y="56.47" width="7.23" height="127.2" rx="3.62"/><rect class="cls-3" x="307" y="56.47" width="7.23" height="127.2" rx="3.62" transform="translate(621.23 240.14) rotate(-180)"/></g></g></svg>