<?xml version="1.0" encoding="utf-8"?>
<!-- Generator: Adobe Illustrator 24.0.2, SVG Export Plug-In . SVG Version: 6.00 Build 0)  -->
<svg version="1.1" id="Capa_1" xmlns="http://www.w3.org/2000/svg" xmlns:xlink="http://www.w3.org/1999/xlink" x="0px" y="0px"
	 viewBox="0 0 232 260" style="enable-background:new 0 0 232 260;" xml:space="preserve">
<style type="text/css">
	.st0{fill:#656F75;}
	.st1{fill:#818F99;}
	.st2{fill:#E2B083;}
	.st3{fill:#C43A33;}
</style>
<g>
	<path class="st0" d="M149.9,219.3L149.9,219.3c-4.3,0-7.8-3.5-7.8-7.8v-76.8c0-4.3,3.5-7.8,7.8-7.8h0c4.3,0,7.8,3.5,7.8,7.8v76.8
		C157.7,215.8,154.2,219.3,149.9,219.3z"/>
	<path class="st0" d="M75.3,219.3L75.3,219.3c-4.3,0-7.8-3.5-7.8-7.8v-76.8c0-4.3,3.5-7.8,7.8-7.8h0c4.3,0,7.8,3.5,7.8,7.8v76.8
		C83.1,215.8,79.6,219.3,75.3,219.3z"/>
	<path class="st1" d="M149.9,215L149.9,215c-4.3,0-7.8-3.5-7.8-7.8v-76.8c0-4.3,3.5-7.8,7.8-7.8h0c4.3,0,7.8,3.5,7.8,7.8v76.8
		C157.7,211.5,154.2,215,149.9,215z"/>
	<path class="st1" d="M75.3,215L75.3,215c-4.3,0-7.8-3.5-7.8-7.8v-76.8c0-4.3,3.5-7.8,7.8-7.8h0c4.3,0,7.8,3.5,7.8,7.8v76.8
		C83.1,211.5,79.6,215,75.3,215z"/>
	<path class="st1" d="M92.5,153h-8.3c-0.1,0-0.2-0.1-0.2-0.2V65.3h8.8v87.4C92.8,152.9,92.6,153,92.5,153z"/>
	<path class="st1" d="M142,153h-8.3c-0.1,0-0.2-0.1-0.2-0.2V65.3h8.8v87.4C142.2,152.9,142.1,153,142,153z"/>
	<path class="st2" d="M150.7,95.7l-76.6-1c-4.3-0.1-7.9-3.8-8.4-8.6c-0.1-0.7,0-1.5,0-2.2L68,57.6c0.1-5.4,4-9.8,8.7-9.7l72.6,0.9
		c4.7,0.1,8.5,4.5,8.4,9.9l1.6,26.4c0,0.7,0.1,1.5,0,2.2C158.6,92.1,155,95.8,150.7,95.7z"/>
	<path class="st3" d="M150.7,99.6l-76.6-1c-4.3-0.1-7.9-3.8-8.4-8.6c-0.1-0.7,0-1.5,0-2.2L68,61.5c0.1-5.4,4-9.8,8.7-9.7l72.6,0.9
		c4.7,0.1,8.5,4.5,8.4,9.9l1.6,26.4c0,0.7,0.1,1.5,0,2.2C158.6,96,155,99.7,150.7,99.6z"/>
	<path class="st2" d="M133.5,187.1H91.8c-14.4,0-26-11.7-26-26v-19.1c0-14.4,11.7-26,26-26h41.7c14.4,0,26,11.7,26,26V161
		C159.5,175.4,147.8,187.1,133.5,187.1z"/>
	<path class="st3" d="M133.5,182.3H91.8c-14.4,0-26-11.7-26-26v-19.1c0-14.4,11.7-26,26-26h41.7c14.4,0,26,11.7,26,26v19.1
		C159.5,170.7,147.8,182.3,133.5,182.3z"/>
</g>
</svg>
