<svg xmlns="http://www.w3.org/2000/svg" viewBox="0 0 1920 1154.22"><defs><style>.cls-1{fill:#edf7f3;}.cls-2{fill:#515e57;}.cls-3{fill:#121413;}.cls-4{fill:#44ad82;}.cls-5{fill:#d3f2e6;}.cls-6{fill:#a52a04;}.cls-7{fill:#c03600;}.cls-8{fill:#e25c33;}.cls-9{fill:#f28268;}.cls-10{fill:#ddc5bf;}.cls-11{fill:#59514f;}.cls-12{fill:#bca6a0;}.cls-13{fill:#f4e7e4;}.cls-14{fill:#fff;}.cls-15{fill:#68513c;}.cls-16{fill:#936d47;}.cls-17{fill:#e2dddc;}.cls-18{fill:#b2855d;}.cls-19{fill:#c1eae9;}.cls-20{fill:#bfc1c0;}.cls-21{fill:none;stroke:#f2f2f2;stroke-linecap:round;stroke-width:3px;}.cls-21,.cls-25{stroke-miterlimit:10;}.cls-22{fill:#4baa44;}.cls-23,.cls-25{fill:#5cc153;}.cls-24{fill:#a5300c;}.cls-25{stroke:#5cc153;}.cls-26{fill:#46aa49;}</style></defs><title>Passadis</title><g id="Capa_2" data-name="Capa 2"><g id="Capa_2-2" data-name="Capa 2"><rect class="cls-1" x="462" y="193.31" width="114" height="192"/><rect class="cls-1" x="462" y="577.31" width="114" height="192"/><rect class="cls-1" x="1344" y="577.31" width="114" height="192"/><rect class="cls-1" x="1344" y="193.31" width="114" height="192"/><rect class="cls-2" x="1728" y="385.31" width="192" height="192"/><rect class="cls-2" x="1728" y="577.31" width="192" height="192"/><rect class="cls-2" x="1728" y="193.31" width="192" height="192"/><rect class="cls-2" y="385.31" width="192" height="192"/><rect class="cls-2" y="577.31" width="192" height="192"/><rect class="cls-2" y="193.31" width="192" height="192"/><rect class="cls-3" x="1536" y="961.31" width="192" height="192"/><rect class="cls-3" x="1536" y="769.31" width="192" height="192"/><rect class="cls-3" x="1536" y="577.31" width="192" height="192"/><rect class="cls-3" x="1728" y="1.31" width="192" height="192"/><rect class="cls-3" x="1536" y="193.31" width="192" height="192"/><rect class="cls-3" x="1536" y="1.31" width="192" height="192"/><rect class="cls-3" x="192" y="961.31" width="192" height="192"/><rect class="cls-3" x="192" y="769.31" width="192" height="192"/><rect class="cls-3" x="192" y="577.31" width="192" height="192"/><rect class="cls-3" x="192" y="193.31" width="192" height="192"/><rect class="cls-3" x="1344" y="1.31" width="192" height="192"/><rect class="cls-4" x="1343.13" y="3.27" width="114" height="192" transform="matrix(-1, 0.01, -0.01, -1, 2801.55, 178.3)"/><rect class="cls-1" x="576" y="1.31" width="192" height="192"/><rect class="cls-5" x="578.61" y="3.31" width="187.39" height="187.6" rx="9.91"/><rect class="cls-1" x="768" y="1.31" width="192" height="192"/><rect class="cls-5" x="770.61" y="3.31" width="187.39" height="187.6" rx="9.91"/><rect class="cls-1" x="960" y="1.31" width="192" height="192"/><rect class="cls-5" x="962.61" y="3.31" width="187.39" height="187.6" rx="9.91"/><rect class="cls-1" x="576" y="193.31" width="192" height="192"/><rect class="cls-5" x="578.61" y="195.31" width="187.39" height="187.6" rx="9.91"/><rect class="cls-1" x="768" y="193.31" width="192" height="192"/><rect class="cls-5" x="770.61" y="195.31" width="187.39" height="187.6" rx="9.91"/><rect class="cls-1" x="960" y="193.31" width="192" height="192"/><rect class="cls-5" x="962.61" y="195.31" width="187.39" height="187.6" rx="9.91"/><rect class="cls-1" x="1152" y="1.31" width="192" height="192"/><rect class="cls-5" x="1154.61" y="3.31" width="187.39" height="187.6" rx="9.91"/><rect class="cls-1" x="1344" y="1.31" width="192" height="192"/><rect class="cls-5" x="1346.61" y="3.31" width="187.39" height="187.6" rx="9.91"/><rect class="cls-1" x="1152" y="193.31" width="192" height="192"/><rect class="cls-5" x="1154.61" y="195.31" width="187.39" height="187.6" rx="9.91"/><rect class="cls-1" x="576" y="385.31" width="192" height="192"/><rect class="cls-5" x="578.61" y="387.31" width="187.39" height="187.6" rx="9.91"/><rect class="cls-1" x="384" y="385.31" width="192" height="192"/><rect class="cls-5" x="386.61" y="387.31" width="187.39" height="187.6" rx="9.91"/><rect class="cls-1" x="768" y="385.31" width="192" height="192"/><rect class="cls-5" x="770.61" y="387.31" width="187.39" height="187.6" rx="9.91"/><rect class="cls-1" x="960" y="385.31" width="192" height="192"/><rect class="cls-5" x="962.61" y="387.31" width="187.39" height="187.6" rx="9.91"/><rect class="cls-1" x="576" y="577.31" width="192" height="192"/><rect class="cls-5" x="578.61" y="579.31" width="187.39" height="187.6" rx="9.91"/><rect class="cls-1" x="768" y="577.31" width="192" height="192"/><rect class="cls-5" x="770.61" y="579.31" width="187.39" height="187.6" rx="9.91"/><rect class="cls-1" x="960" y="577.31" width="192" height="192"/><rect class="cls-5" x="962.61" y="579.31" width="187.39" height="187.6" rx="9.91"/><rect class="cls-1" x="1152" y="385.31" width="192" height="192"/><rect class="cls-5" x="1154.61" y="387.31" width="187.39" height="187.6" rx="9.91"/><rect class="cls-1" x="1344" y="385.31" width="192" height="192"/><rect class="cls-5" x="1346.61" y="387.31" width="187.39" height="187.6" rx="9.91"/><rect class="cls-1" x="1152" y="577.31" width="192" height="192"/><rect class="cls-5" x="1154.61" y="579.31" width="187.39" height="187.6" rx="9.91"/><rect class="cls-1" x="576" y="769.31" width="192" height="192"/><rect class="cls-5" x="578.61" y="771.31" width="187.39" height="187.6" rx="9.91"/><rect class="cls-1" x="768" y="769.31" width="192" height="192"/><rect class="cls-5" x="770.61" y="771.31" width="187.39" height="187.6" rx="9.91"/><rect class="cls-1" x="960" y="769.31" width="192" height="192"/><rect class="cls-5" x="962.61" y="771.31" width="187.39" height="187.6" rx="9.91"/><rect class="cls-1" x="1152" y="769.31" width="192" height="192"/><rect class="cls-5" x="1154.61" y="771.31" width="187.39" height="187.6" rx="9.91"/><rect class="cls-1" x="1344" y="769.31" width="192" height="192"/><rect class="cls-5" x="1346.61" y="771.31" width="187.39" height="187.6" rx="9.91"/><rect class="cls-1" x="576" y="961.31" width="192" height="192"/><rect class="cls-5" x="578.61" y="963.31" width="187.39" height="187.6" rx="9.91"/><rect class="cls-1" x="768" y="961.31" width="192" height="192"/><rect class="cls-5" x="770.61" y="963.31" width="187.39" height="187.6" rx="9.91"/><rect class="cls-1" x="960" y="961.31" width="192" height="192"/><rect class="cls-5" x="962.61" y="963.31" width="187.39" height="187.6" rx="9.91"/><rect class="cls-1" x="1152" y="961.31" width="192" height="192"/><rect class="cls-5" x="1154.61" y="963.31" width="187.39" height="187.6" rx="9.91"/><rect class="cls-1" x="1344" y="961.31" width="192" height="192"/><rect class="cls-5" x="1346.61" y="963.31" width="187.39" height="187.6" rx="9.91"/><path class="cls-4" d="M462,193.31H576a0,0,0,0,1,0,0V367.09a18.22,18.22,0,0,1-18.22,18.22H462a0,0,0,0,1,0,0v-192A0,0,0,0,1,462,193.31Z"/><path class="cls-4" d="M462,577.31h95.78A18.22,18.22,0,0,1,576,595.52V769.31a0,0,0,0,1,0,0H462a0,0,0,0,1,0,0v-192A0,0,0,0,1,462,577.31Z"/><path class="cls-4" d="M1344,577.31h114a0,0,0,0,1,0,0V751.09a18.22,18.22,0,0,1-18.22,18.22H1344a0,0,0,0,1,0,0v-192a0,0,0,0,1,0,0Z" transform="translate(2802 1346.61) rotate(-180)"/><path class="cls-4" d="M1344,193.31h95.78A18.22,18.22,0,0,1,1458,211.52V385.31a0,0,0,0,1,0,0H1344a0,0,0,0,1,0,0v-192A0,0,0,0,1,1344,193.31Z" transform="translate(2802 578.61) rotate(180)"/><rect class="cls-3" x="192" y="1.31" width="192" height="192"/><rect class="cls-4" x="462" y="1.31" width="114" height="192"/><rect class="cls-4" x="1344" y="1.31" width="114" height="192" transform="translate(2802 194.61) rotate(180)"/><rect class="cls-4" x="1344" y="769.31" width="114" height="192" transform="translate(2802 1730.61) rotate(180)"/><rect class="cls-4" x="1344" y="961.31" width="114" height="192" transform="translate(2802 2114.61) rotate(180)"/><rect class="cls-4" x="462" y="961.31" width="114" height="192" transform="translate(1038 2114.61) rotate(180)"/><rect class="cls-4" x="462" y="769.31" width="114" height="192" transform="translate(1038 1730.61) rotate(180)"/><rect class="cls-6" x="192.5" y="193.31" width="190.4" height="192" rx="10.85"/><rect class="cls-7" x="286.1" y="193.31" width="192" height="192" rx="10.85"/><path class="cls-6" d="M478.1,202V379.63a5.67,5.67,0,0,1-5.67,5.68h-9.58a1.31,1.31,0,0,1-1.31-1.31V194.61a1.31,1.31,0,0,1,1.31-1.3h6.53A8.71,8.71,0,0,1,478.1,202Z"/><rect class="cls-8" x="377.69" y="203.7" width="11.41" height="37.42" rx="4.29" transform="translate(160.99 605.8) rotate(-90)"/><path class="cls-9" d="M372,218.1h3.67A3.87,3.87,0,0,1,379.5,222v2.6a2.15,2.15,0,0,1-2.15,2.15h-7.1a2.15,2.15,0,0,1-2.15-2.15V222A3.87,3.87,0,0,1,372,218.1Z" transform="translate(151.39 596.2) rotate(-90)"/><rect class="cls-10" x="346.4" y="213.21" width="11.41" height="18.4" rx="4.29" transform="translate(129.69 574.51) rotate(-90)"/><rect class="cls-11" x="350.43" y="214.81" width="3.34" height="15.2" rx="1.1" transform="translate(129.69 574.51) rotate(-90)"/><rect class="cls-6" x="309.3" y="238.48" width="5.78" height="101.76" rx="2.18"/><rect class="cls-8" x="306.9" y="238.48" width="5.78" height="101.76" rx="2.18" transform="translate(619.58 578.73) rotate(-180)"/><rect class="cls-6" x="322.1" y="238.48" width="5.78" height="101.76" rx="2.18"/><rect class="cls-8" x="319.7" y="238.48" width="5.78" height="101.76" rx="2.18" transform="translate(645.18 578.73) rotate(180)"/><rect class="cls-6" x="334.9" y="238.48" width="5.78" height="101.76" rx="2.18"/><rect class="cls-8" x="332.5" y="238.48" width="5.78" height="101.76" rx="2.18" transform="translate(670.78 578.73) rotate(180)"/><rect class="cls-6" x="414.9" y="238.48" width="5.78" height="101.76" rx="2.18"/><rect class="cls-8" x="412.5" y="238.48" width="5.78" height="101.76" rx="2.18" transform="translate(830.78 578.73) rotate(180)"/><rect class="cls-6" x="427.7" y="238.48" width="5.78" height="101.76" rx="2.18"/><rect class="cls-8" x="425.3" y="238.48" width="5.78" height="101.76" rx="2.18" transform="translate(856.38 578.73) rotate(180)"/><rect class="cls-6" x="440.5" y="238.48" width="5.78" height="101.76" rx="2.18"/><rect class="cls-8" x="438.1" y="238.48" width="5.78" height="101.76" rx="2.18" transform="translate(881.98 578.73) rotate(180)"/><rect class="cls-6" x="192.5" y="961.31" width="190.4" height="192" rx="10.85"/><rect class="cls-7" x="286.1" y="961.31" width="192" height="192" rx="10.85"/><path class="cls-6" d="M478.1,970v177.61a5.67,5.67,0,0,1-5.67,5.68h-9.58a1.31,1.31,0,0,1-1.31-1.31V962.61a1.31,1.31,0,0,1,1.31-1.3h6.53A8.71,8.71,0,0,1,478.1,970Z"/><rect class="cls-8" x="377.69" y="971.7" width="11.41" height="37.42" rx="4.29" transform="translate(-607.01 1373.8) rotate(-90)"/><path class="cls-9" d="M372,986.1h3.67A3.87,3.87,0,0,1,379.5,990v2.6a2.15,2.15,0,0,1-2.15,2.15h-7.1a2.15,2.15,0,0,1-2.15-2.15V990A3.87,3.87,0,0,1,372,986.1Z" transform="translate(-616.61 1364.2) rotate(-90)"/><rect class="cls-10" x="346.4" y="981.21" width="11.41" height="18.4" rx="4.29" transform="translate(-638.31 1342.51) rotate(-90)"/><rect class="cls-11" x="350.43" y="982.81" width="3.34" height="15.2" rx="1.1" transform="translate(-638.31 1342.51) rotate(-90)"/><rect class="cls-6" x="309.3" y="1006.48" width="5.78" height="101.76" rx="2.18"/><rect class="cls-8" x="306.9" y="1006.48" width="5.78" height="101.76" rx="2.18" transform="translate(619.58 2114.73) rotate(-180)"/><rect class="cls-6" x="322.1" y="1006.48" width="5.78" height="101.76" rx="2.18"/><rect class="cls-8" x="319.7" y="1006.48" width="5.78" height="101.76" rx="2.18" transform="translate(645.18 2114.73) rotate(180)"/><rect class="cls-6" x="334.9" y="1006.48" width="5.78" height="101.76" rx="2.18"/><rect class="cls-8" x="332.5" y="1006.48" width="5.78" height="101.76" rx="2.18" transform="translate(670.78 2114.73) rotate(180)"/><rect class="cls-6" x="414.9" y="1006.48" width="5.78" height="101.76" rx="2.18"/><rect class="cls-8" x="412.5" y="1006.48" width="5.78" height="101.76" rx="2.18" transform="translate(830.78 2114.73) rotate(180)"/><rect class="cls-6" x="427.7" y="1006.48" width="5.78" height="101.76" rx="2.18"/><rect class="cls-8" x="425.3" y="1006.48" width="5.78" height="101.76" rx="2.18" transform="translate(856.38 2114.73) rotate(180)"/><rect class="cls-6" x="440.5" y="1006.48" width="5.78" height="101.76" rx="2.18"/><rect class="cls-8" x="438.1" y="1006.48" width="5.78" height="101.76" rx="2.18" transform="translate(881.98 2114.73) rotate(180)"/><rect class="cls-6" x="192.5" y="577.31" width="190.4" height="192" rx="10.85"/><rect class="cls-7" x="286.1" y="577.31" width="192" height="192" rx="10.85"/><path class="cls-6" d="M478.1,586V763.63a5.67,5.67,0,0,1-5.67,5.68h-9.58a1.31,1.31,0,0,1-1.31-1.31V578.61a1.31,1.31,0,0,1,1.31-1.3h6.53A8.71,8.71,0,0,1,478.1,586Z"/><rect class="cls-8" x="377.69" y="587.7" width="11.41" height="37.42" rx="4.29" transform="translate(-223.01 989.8) rotate(-90)"/><path class="cls-9" d="M372,602.1h3.67A3.87,3.87,0,0,1,379.5,606v2.6a2.15,2.15,0,0,1-2.15,2.15h-7.1a2.15,2.15,0,0,1-2.15-2.15V606A3.87,3.87,0,0,1,372,602.1Z" transform="translate(-232.61 980.2) rotate(-90)"/><rect class="cls-10" x="346.4" y="597.21" width="11.41" height="18.4" rx="4.29" transform="translate(-254.31 958.51) rotate(-90)"/><rect class="cls-11" x="350.43" y="598.81" width="3.34" height="15.2" rx="1.1" transform="translate(-254.31 958.51) rotate(-90)"/><rect class="cls-6" x="309.3" y="622.48" width="5.78" height="101.76" rx="2.18"/><rect class="cls-8" x="306.9" y="622.48" width="5.78" height="101.76" rx="2.18" transform="translate(619.58 1346.73) rotate(-180)"/><rect class="cls-6" x="322.1" y="622.48" width="5.78" height="101.76" rx="2.18"/><rect class="cls-8" x="319.7" y="622.48" width="5.78" height="101.76" rx="2.18" transform="translate(645.18 1346.73) rotate(180)"/><rect class="cls-6" x="334.9" y="622.48" width="5.78" height="101.76" rx="2.18"/><rect class="cls-8" x="332.5" y="622.48" width="5.78" height="101.76" rx="2.18" transform="translate(670.78 1346.73) rotate(180)"/><rect class="cls-6" x="414.9" y="622.48" width="5.78" height="101.76" rx="2.18"/><rect class="cls-8" x="412.5" y="622.48" width="5.78" height="101.76" rx="2.18" transform="translate(830.78 1346.73) rotate(180)"/><rect class="cls-6" x="427.7" y="622.48" width="5.78" height="101.76" rx="2.18"/><rect class="cls-8" x="425.3" y="622.48" width="5.78" height="101.76" rx="2.18" transform="translate(856.38 1346.73) rotate(180)"/><rect class="cls-6" x="440.5" y="622.48" width="5.78" height="101.76" rx="2.18"/><rect class="cls-8" x="438.1" y="622.48" width="5.78" height="101.76" rx="2.18" transform="translate(881.98 1346.73) rotate(180)"/><rect class="cls-12" x="193" y="1.31" width="190.4" height="192" rx="10.85"/><rect class="cls-13" x="286.6" y="1.31" width="192" height="192" rx="10.85"/><path class="cls-12" d="M479.4,10V187.63a5.67,5.67,0,0,1-5.67,5.68h-9.58a1.31,1.31,0,0,1-1.31-1.31V3.61a2.31,2.31,0,0,1,2.31-2.3h5.53A8.71,8.71,0,0,1,479.4,10Z"/><rect class="cls-10" x="378.19" y="11.7" width="11.41" height="37.42" rx="4.39" transform="translate(353.49 414.3) rotate(-90)"/><path class="cls-14" d="M372.46,26.1h3.67A3.87,3.87,0,0,1,380,30v2.6a2.15,2.15,0,0,1-2.15,2.15h-7.1a2.15,2.15,0,0,1-2.15-2.15V30a3.87,3.87,0,0,1,3.87-3.87Z" transform="translate(343.89 404.7) rotate(-90)"/><rect class="cls-10" x="346.9" y="21.21" width="11.41" height="18.4" rx="4.39" transform="translate(322.19 383.01) rotate(-90)"/><rect class="cls-11" x="350.93" y="22.81" width="3.34" height="15.2" rx="1.1" transform="translate(322.19 383.01) rotate(-90)"/><rect class="cls-12" x="309.8" y="46.48" width="5.78" height="101.76" rx="2.89"/><rect class="cls-14" x="307.4" y="46.48" width="5.78" height="101.76" rx="2.89" transform="translate(620.58 194.73) rotate(-180)"/><rect class="cls-12" x="322.6" y="46.48" width="5.78" height="101.76" rx="2.89"/><rect class="cls-14" x="320.2" y="46.48" width="5.78" height="101.76" rx="2.89" transform="translate(646.18 194.73) rotate(-180)"/><rect class="cls-12" x="335.4" y="46.48" width="5.78" height="101.76" rx="2.89"/><rect class="cls-14" x="333" y="46.48" width="5.78" height="101.76" rx="2.89" transform="translate(671.78 194.73) rotate(-180)"/><rect class="cls-12" x="415.4" y="46.48" width="5.78" height="101.76" rx="2.89"/><rect class="cls-14" x="413" y="46.48" width="5.78" height="101.76" rx="2.89" transform="translate(831.78 194.73) rotate(-180)"/><rect class="cls-12" x="428.2" y="46.48" width="5.78" height="101.76" rx="2.89"/><rect class="cls-14" x="425.8" y="46.48" width="5.78" height="101.76" rx="2.89" transform="translate(857.38 194.73) rotate(180)"/><rect class="cls-12" x="441" y="46.48" width="5.78" height="101.76" rx="2.89"/><rect class="cls-14" x="438.6" y="46.48" width="5.78" height="101.76" rx="2.89" transform="translate(882.98 194.73) rotate(180)"/><rect class="cls-12" x="192" y="769.31" width="190.4" height="192" rx="10.85"/><rect class="cls-13" x="285.6" y="769.31" width="192" height="192" rx="10.85"/><path class="cls-12" d="M478.4,778V955.63a5.67,5.67,0,0,1-5.67,5.68h-9.58a1.31,1.31,0,0,1-1.31-1.31V771.61a2.31,2.31,0,0,1,2.31-2.3h5.53A8.71,8.71,0,0,1,478.4,778Z"/><rect class="cls-10" x="377.19" y="779.7" width="11.41" height="37.42" rx="4.39" transform="translate(-415.51 1181.3) rotate(-90)"/><path class="cls-14" d="M371.46,794.1h3.67A3.87,3.87,0,0,1,379,798v2.6a2.15,2.15,0,0,1-2.15,2.15h-7.1a2.15,2.15,0,0,1-2.15-2.15V798a3.87,3.87,0,0,1,3.87-3.87Z" transform="translate(-425.11 1171.7) rotate(-90)"/><rect class="cls-10" x="345.9" y="789.21" width="11.41" height="18.4" rx="4.39" transform="translate(-446.81 1150.01) rotate(-90)"/><rect class="cls-11" x="349.93" y="790.81" width="3.34" height="15.2" rx="1.1" transform="translate(-446.81 1150.01) rotate(-90)"/><rect class="cls-12" x="308.8" y="814.48" width="5.78" height="101.76" rx="2.89"/><rect class="cls-14" x="306.4" y="814.48" width="5.78" height="101.76" rx="2.89" transform="translate(618.58 1730.73) rotate(180)"/><rect class="cls-12" x="321.6" y="814.48" width="5.78" height="101.76" rx="2.89"/><rect class="cls-14" x="319.2" y="814.48" width="5.78" height="101.76" rx="2.89" transform="translate(644.18 1730.73) rotate(180)"/><rect class="cls-12" x="334.4" y="814.48" width="5.78" height="101.76" rx="2.89"/><rect class="cls-14" x="332" y="814.48" width="5.78" height="101.76" rx="2.89" transform="translate(669.78 1730.73) rotate(180)"/><rect class="cls-12" x="414.4" y="814.48" width="5.78" height="101.76" rx="2.89"/><rect class="cls-14" x="412" y="814.48" width="5.78" height="101.76" rx="2.89" transform="translate(829.78 1730.73) rotate(-180)"/><rect class="cls-12" x="427.2" y="814.48" width="5.78" height="101.76" rx="2.89"/><rect class="cls-14" x="424.8" y="814.48" width="5.78" height="101.76" rx="2.89" transform="translate(855.38 1730.73) rotate(180)"/><rect class="cls-12" x="440" y="814.48" width="5.78" height="101.76" rx="2.89"/><rect class="cls-14" x="437.6" y="814.48" width="5.78" height="101.76" rx="2.89" transform="translate(880.98 1730.73) rotate(-180)"/><rect class="cls-6" x="1536.36" y="1.63" width="192" height="190.4" rx="10.85" transform="translate(1528.02 1728.73) rotate(-89.74)"/><rect class="cls-7" x="1441.96" y="0.4" width="192" height="192" rx="10.85" transform="translate(1434.49 1633.9) rotate(-89.74)"/><path class="cls-6" d="M1442.36,8.68l-.82,177.6a5.67,5.67,0,0,0,5.65,5.7l9.58.05a1.31,1.31,0,0,0,1.31-1.3L1459,1.34a1.31,1.31,0,0,0-1.3-1.31l-6.53,0A8.71,8.71,0,0,0,1442.36,8.68Z"/><rect class="cls-8" x="1531.27" y="10.79" width="11.41" height="37.42" rx="4.29" transform="translate(1500.42 1566.32) rotate(-89.74)"/><path class="cls-9" d="M1543,25.23h7.1a2.15,2.15,0,0,1,2.15,2.15V30a3.87,3.87,0,0,1-3.87,3.87h-3.67a3.87,3.87,0,0,1-3.87-3.87v-2.6a2.15,2.15,0,0,1,2.15-2.15Z" transform="translate(1509.93 1575.96) rotate(-89.74)"/><rect class="cls-10" x="1562.56" y="20.44" width="11.41" height="18.4" rx="4.29" transform="translate(1531.42 1597.75) rotate(-89.74)"/><rect class="cls-11" x="1566.6" y="22.04" width="3.34" height="15.2" rx="1.1" transform="translate(1531.42 1597.75) rotate(-89.74)"/><rect class="cls-6" x="1556.99" y="93.89" width="101.76" height="5.78" rx="2.18" transform="translate(1503.7 1704.18) rotate(-89.74)"/><rect class="cls-8" x="1607.37" y="45.91" width="5.78" height="101.76" rx="2.18" transform="translate(0.46 -7.4) rotate(0.26)"/><rect class="cls-6" x="1544.19" y="93.83" width="101.76" height="5.78" rx="2.18" transform="translate(1491.02 1691.32) rotate(-89.74)"/><rect class="cls-8" x="1594.57" y="45.85" width="5.78" height="101.76" rx="2.18" transform="translate(0.46 -7.34) rotate(0.26)"/><rect class="cls-6" x="1531.39" y="93.77" width="101.76" height="5.78" rx="2.18" transform="translate(1478.33 1678.46) rotate(-89.74)"/><rect class="cls-8" x="1581.77" y="45.79" width="5.78" height="101.76" rx="2.18" transform="translate(0.46 -7.28) rotate(0.26)"/><rect class="cls-6" x="1451.39" y="93.4" width="101.76" height="5.78" rx="2.18" transform="translate(1399.07 1598.1) rotate(-89.74)"/><rect class="cls-8" x="1501.77" y="45.42" width="5.78" height="101.76" rx="2.18" transform="translate(0.46 -6.91) rotate(0.26)"/><rect class="cls-6" x="1438.59" y="93.34" width="101.76" height="5.78" rx="2.18" transform="translate(1386.39 1585.24) rotate(-89.74)"/><rect class="cls-8" x="1488.97" y="45.36" width="5.78" height="101.76" rx="2.18" transform="translate(0.46 -6.86) rotate(0.26)"/><rect class="cls-6" x="1425.79" y="93.28" width="101.76" height="5.78" rx="2.18" transform="translate(1373.71 1572.38) rotate(-89.74)"/><rect class="cls-8" x="1476.17" y="45.31" width="5.78" height="101.76" rx="2.18" transform="translate(0.46 -6.8) rotate(0.26)"/><rect class="cls-6" x="1536.36" y="769.63" width="192" height="190.4" rx="10.85" transform="translate(760.03 2493.2) rotate(-89.74)"/><rect class="cls-7" x="1441.96" y="768.4" width="192" height="192" rx="10.85" transform="translate(666.5 2398.37) rotate(-89.74)"/><path class="cls-6" d="M1442.36,776.68l-.82,177.6a5.67,5.67,0,0,0,5.65,5.7l9.58,0a1.31,1.31,0,0,0,1.31-1.3l.87-189.39a1.31,1.31,0,0,0-1.3-1.31l-6.53,0A8.71,8.71,0,0,0,1442.36,776.68Z"/><rect class="cls-8" x="1531.27" y="778.79" width="11.41" height="37.42" rx="4.29" transform="translate(732.42 2330.79) rotate(-89.74)"/><path class="cls-9" d="M1543,793.23h7.1a2.15,2.15,0,0,1,2.15,2.15V798a3.87,3.87,0,0,1-3.87,3.87h-3.67a3.87,3.87,0,0,1-3.87-3.87v-2.6a2.15,2.15,0,0,1,2.15-2.15Z" transform="translate(741.94 2340.43) rotate(-89.74)"/><rect class="cls-10" x="1562.56" y="788.44" width="11.41" height="18.4" rx="4.29" transform="translate(763.43 2362.22) rotate(-89.74)"/><rect class="cls-11" x="1566.6" y="790.04" width="3.34" height="15.2" rx="1.1" transform="translate(763.43 2362.22) rotate(-89.74)"/><rect class="cls-6" x="1556.99" y="861.89" width="101.76" height="5.78" rx="2.18" transform="matrix(0, -1, 1, 0, 735.71, 2468.65)"/><rect class="cls-8" x="1607.37" y="813.91" width="5.78" height="101.76" rx="2.18" transform="translate(3.99 -7.39) rotate(0.26)"/><rect class="cls-6" x="1544.19" y="861.83" width="101.76" height="5.78" rx="2.18" transform="translate(723.02 2455.79) rotate(-89.74)"/><rect class="cls-8" x="1594.57" y="813.85" width="5.78" height="101.76" rx="2.18" transform="translate(3.99 -7.33) rotate(0.26)"/><rect class="cls-6" x="1531.39" y="861.77" width="101.76" height="5.78" rx="2.18" transform="matrix(0, -1, 1, 0, 710.34, 2442.93)"/><rect class="cls-8" x="1581.77" y="813.79" width="5.78" height="101.76" rx="2.18" transform="translate(3.99 -7.27) rotate(0.26)"/><rect class="cls-6" x="1451.39" y="861.4" width="101.76" height="5.78" rx="2.18" transform="translate(631.08 2362.57) rotate(-89.74)"/><rect class="cls-8" x="1501.77" y="813.42" width="5.78" height="101.76" rx="2.18" transform="translate(3.99 -6.91) rotate(0.26)"/><rect class="cls-6" x="1438.59" y="861.34" width="101.76" height="5.78" rx="2.18" transform="translate(618.4 2349.71) rotate(-89.74)"/><rect class="cls-8" x="1488.97" y="813.36" width="5.78" height="101.76" rx="2.18" transform="translate(3.99 -6.85) rotate(0.26)"/><rect class="cls-6" x="1425.79" y="861.28" width="101.76" height="5.78" rx="2.18" transform="translate(605.71 2336.85) rotate(-89.74)"/><rect class="cls-8" x="1476.17" y="813.31" width="5.78" height="101.76" rx="2.18" transform="translate(3.99 -6.79) rotate(0.26)"/><rect class="cls-12" x="1536.74" y="193.63" width="192" height="190.4" rx="10.85" transform="translate(1336.4 1920.23) rotate(-89.74)"/><rect class="cls-13" x="1442.34" y="192.4" width="192" height="192" rx="10.85" transform="translate(1242.87 1825.4) rotate(-89.74)"/><path class="cls-12" d="M1441.94,200.67l-.81,177.61a5.67,5.67,0,0,0,5.64,5.7l9.58,0a1.29,1.29,0,0,0,1.31-1.29l.87-188.39a2.3,2.3,0,0,0-2.29-2.32l-5.54,0A8.72,8.72,0,0,0,1441.94,200.67Z"/><rect class="cls-10" x="1531.65" y="202.79" width="11.41" height="37.42" rx="4.39" transform="translate(1308.8 1757.82) rotate(-89.74)"/><path class="cls-14" d="M1543.4,217.23h7.1a2.15,2.15,0,0,1,2.15,2.15V222a3.87,3.87,0,0,1-3.87,3.87h-3.67a3.87,3.87,0,0,1-3.87-3.87v-2.6a2.15,2.15,0,0,1,2.15-2.15Z" transform="translate(1318.31 1767.46) rotate(-89.74)"/><rect class="cls-10" x="1562.95" y="212.44" width="11.41" height="18.4" rx="4.39" transform="translate(1339.8 1789.25) rotate(-89.74)"/><rect class="cls-11" x="1566.98" y="214.04" width="3.34" height="15.2" rx="1.1" transform="translate(1339.8 1789.25) rotate(-89.74)"/><rect class="cls-12" x="1557.37" y="285.89" width="101.76" height="5.78" rx="2.89" transform="translate(1312.08 1895.68) rotate(-89.74)"/><rect class="cls-14" x="1607.76" y="237.91" width="5.78" height="101.76" rx="2.89" transform="translate(1.34 -7.4) rotate(0.26)"/><rect class="cls-12" x="1544.57" y="285.83" width="101.76" height="5.78" rx="2.89" transform="translate(1299.4 1882.82) rotate(-89.74)"/><rect class="cls-14" x="1594.96" y="237.85" width="5.78" height="101.76" rx="2.89" transform="translate(1.34 -7.34) rotate(0.26)"/><rect class="cls-12" x="1531.77" y="285.77" width="101.76" height="5.78" rx="2.89" transform="translate(1286.72 1869.96) rotate(-89.74)"/><rect class="cls-14" x="1582.16" y="237.79" width="5.78" height="101.76" rx="2.89" transform="translate(1.34 -7.28) rotate(0.26)"/><rect class="cls-12" x="1451.77" y="285.4" width="101.76" height="5.78" rx="2.89" transform="matrix(0, -1, 1, 0, 1207.45, 1789.6)"/><rect class="cls-14" x="1502.16" y="237.42" width="5.78" height="101.76" rx="2.89" transform="translate(1.34 -6.91) rotate(0.26)"/><rect class="cls-12" x="1438.97" y="285.34" width="101.76" height="5.78" rx="2.89" transform="translate(1194.77 1776.74) rotate(-89.74)"/><rect class="cls-14" x="1489.36" y="237.36" width="5.78" height="101.76" rx="2.89" transform="translate(1.34 -6.86) rotate(0.26)"/><rect class="cls-12" x="1426.17" y="285.28" width="101.76" height="5.78" rx="2.89" transform="translate(1182.09 1763.88) rotate(-89.74)"/><rect class="cls-14" x="1476.56" y="237.31" width="5.78" height="101.76" rx="2.89" transform="matrix(1, 0, 0, 1, 1.34, -6.8)"/><rect class="cls-12" x="1536.74" y="962.63" width="192" height="190.4" rx="10.85" transform="translate(567.41 2685.69) rotate(-89.74)"/><rect class="cls-13" x="1442.34" y="961.4" width="192" height="192" rx="10.85" transform="translate(473.88 2590.86) rotate(-89.74)"/><path class="cls-12" d="M1441.94,969.67l-.81,177.61a5.67,5.67,0,0,0,5.64,5.7l9.58,0a1.29,1.29,0,0,0,1.31-1.29l.87-188.39a2.3,2.3,0,0,0-2.29-2.32l-5.54,0A8.72,8.72,0,0,0,1441.94,969.67Z"/><rect class="cls-10" x="1531.65" y="971.79" width="11.41" height="37.42" rx="4.39" transform="translate(539.81 2523.28) rotate(-89.74)"/><path class="cls-14" d="M1543.4,986.23h7.1a2.15,2.15,0,0,1,2.15,2.15V991a3.87,3.87,0,0,1-3.87,3.87h-3.67a3.87,3.87,0,0,1-3.87-3.87v-2.6a2.15,2.15,0,0,1,2.15-2.15Z" transform="matrix(0, -1, 1, 0, 549.32, 2532.92)"/><rect class="cls-10" x="1562.95" y="981.44" width="11.41" height="18.4" rx="4.39" transform="translate(570.81 2554.72) rotate(-89.74)"/><rect class="cls-11" x="1566.98" y="983.04" width="3.34" height="15.2" rx="1.1" transform="translate(570.81 2554.72) rotate(-89.74)"/><rect class="cls-12" x="1557.37" y="1054.89" width="101.76" height="5.78" rx="2.89" transform="translate(543.09 2661.15) rotate(-89.74)"/><rect class="cls-14" x="1607.76" y="1006.91" width="5.78" height="101.76" rx="2.89" transform="translate(4.88 -7.39) rotate(0.26)"/><rect class="cls-12" x="1544.57" y="1054.83" width="101.76" height="5.78" rx="2.89" transform="translate(530.41 2648.29) rotate(-89.74)"/><rect class="cls-14" x="1594.96" y="1006.85" width="5.78" height="101.76" rx="2.89" transform="translate(4.88 -7.33) rotate(0.26)"/><rect class="cls-12" x="1531.77" y="1054.77" width="101.76" height="5.78" rx="2.89" transform="translate(517.72 2635.43) rotate(-89.74)"/><rect class="cls-14" x="1582.16" y="1006.79" width="5.78" height="101.76" rx="2.89" transform="translate(4.88 -7.27) rotate(0.26)"/><rect class="cls-12" x="1451.77" y="1054.4" width="101.76" height="5.78" rx="2.89" transform="translate(438.46 2555.07) rotate(-89.74)"/><rect class="cls-14" x="1502.16" y="1006.42" width="5.78" height="101.76" rx="2.89" transform="translate(4.88 -6.91) rotate(0.26)"/><rect class="cls-12" x="1438.97" y="1054.34" width="101.76" height="5.78" rx="2.89" transform="translate(425.78 2542.21) rotate(-89.74)"/><rect class="cls-14" x="1489.36" y="1006.36" width="5.78" height="101.76" rx="2.89" transform="translate(4.88 -6.85) rotate(0.26)"/><rect class="cls-12" x="1426.17" y="1054.28" width="101.76" height="5.78" rx="2.89" transform="translate(413.1 2529.35) rotate(-89.74)"/><rect class="cls-14" x="1476.56" y="1006.31" width="5.78" height="101.76" rx="2.89" transform="translate(4.88 -6.79) rotate(0.26)"/><rect class="cls-12" x="1536.74" y="577.63" width="192" height="190.4" rx="10.85" transform="translate(952.41 2302.46) rotate(-89.74)"/><rect class="cls-13" x="1442.34" y="576.4" width="192" height="192" rx="10.85" transform="translate(858.88 2207.63) rotate(-89.74)"/><path class="cls-12" d="M1441.94,584.67l-.81,177.61a5.67,5.67,0,0,0,5.64,5.7l9.58,0a1.29,1.29,0,0,0,1.31-1.29l.87-188.39a2.3,2.3,0,0,0-2.29-2.32l-5.54,0A8.72,8.72,0,0,0,1441.94,584.67Z"/><rect class="cls-10" x="1531.65" y="586.79" width="11.41" height="37.42" rx="4.39" transform="translate(924.8 2140.05) rotate(-89.74)"/><path class="cls-14" d="M1543.4,601.23h7.1a2.15,2.15,0,0,1,2.15,2.15V606a3.87,3.87,0,0,1-3.87,3.87h-3.67a3.87,3.87,0,0,1-3.87-3.87v-2.6A2.15,2.15,0,0,1,1543.4,601.23Z" transform="matrix(0, -1, 1, 0, 934.32, 2149.69)"/><rect class="cls-10" x="1562.95" y="596.44" width="11.41" height="18.4" rx="4.39" transform="translate(955.81 2171.49) rotate(-89.74)"/><rect class="cls-11" x="1566.98" y="598.04" width="3.34" height="15.2" rx="1.1" transform="translate(955.81 2171.49) rotate(-89.74)"/><rect class="cls-12" x="1557.37" y="669.89" width="101.76" height="5.78" rx="2.89" transform="translate(928.09 2277.92) rotate(-89.74)"/><rect class="cls-14" x="1607.76" y="621.91" width="5.78" height="101.76" rx="2.89" transform="translate(3.11 -7.4) rotate(0.26)"/><rect class="cls-12" x="1544.57" y="669.83" width="101.76" height="5.78" rx="2.89" transform="translate(915.4 2265.06) rotate(-89.74)"/><rect class="cls-14" x="1594.96" y="621.85" width="5.78" height="101.76" rx="2.89" transform="translate(3.11 -7.34) rotate(0.26)"/><rect class="cls-12" x="1531.77" y="669.77" width="101.76" height="5.78" rx="2.89" transform="translate(902.72 2252.2) rotate(-89.74)"/><rect class="cls-14" x="1582.16" y="621.79" width="5.78" height="101.76" rx="2.89" transform="matrix(1, 0, 0, 1, 3.11, -7.28)"/><rect class="cls-12" x="1451.77" y="669.4" width="101.76" height="5.78" rx="2.89" transform="matrix(0, -1, 1, 0, 823.46, 2171.84)"/><rect class="cls-14" x="1502.16" y="621.42" width="5.78" height="101.76" rx="2.89" transform="matrix(1, 0, 0, 1, 3.11, -6.91)"/><rect class="cls-12" x="1438.97" y="669.34" width="101.76" height="5.78" rx="2.89" transform="translate(810.78 2158.98) rotate(-89.74)"/><rect class="cls-14" x="1489.36" y="621.36" width="5.78" height="101.76" rx="2.89" transform="translate(3.11 -6.85) rotate(0.26)"/><rect class="cls-12" x="1426.17" y="669.28" width="101.76" height="5.78" rx="2.89" transform="translate(798.09 2146.12) rotate(-89.74)"/><rect class="cls-14" x="1476.56" y="621.31" width="5.78" height="101.76" rx="2.89" transform="translate(3.11 -6.79) rotate(0.26)"/><rect class="cls-3" y="1.31" width="192" height="192"/><path class="cls-3" d="M33.5,577.31H192a0,0,0,0,1,0,0v192a0,0,0,0,1,0,0H0a0,0,0,0,1,0,0V610.81A33.5,33.5,0,0,1,33.5,577.31Z"/><path class="cls-3" d="M0,193.31H192a0,0,0,0,1,0,0v192a0,0,0,0,1,0,0H33.5A33.5,33.5,0,0,1,0,351.81V193.31a0,0,0,0,1,0,0Z"/><path class="cls-3" d="M1761.5,193.31H1920a0,0,0,0,1,0,0v192a0,0,0,0,1,0,0H1728a0,0,0,0,1,0,0V226.81a33.5,33.5,0,0,1,33.5-33.5Z" transform="translate(3648 578.61) rotate(-180)"/><path class="cls-3" d="M1728,577.31h192a0,0,0,0,1,0,0v192a0,0,0,0,1,0,0H1761.5a33.5,33.5,0,0,1-33.5-33.5V577.31A0,0,0,0,1,1728,577.31Z" transform="translate(3648 1346.61) rotate(180)"/><rect class="cls-3" y="769.31" width="192" height="192"/><rect class="cls-3" y="961.31" width="192" height="192"/><rect class="cls-3" x="1728" y="769.31" width="192" height="192"/><rect class="cls-3" x="1728" y="961.31" width="192" height="192"/><rect class="cls-15" x="1786" y="385.31" width="42" height="192" transform="translate(3614 962.61) rotate(-180)"/><polygon class="cls-16" points="1536 384.31 1803 384.31 1803 576.31 1536 575.31 1536 384.31"/><path class="cls-17" d="M1544.63,384.31H1563a0,0,0,0,1,0,0v192a0,0,0,0,1,0,0h-18.37a8.63,8.63,0,0,1-8.63-8.63V392.94A8.63,8.63,0,0,1,1544.63,384.31Z" transform="translate(3099 960.61) rotate(-180)"/><rect class="cls-18" x="1702" y="407.31" width="69" height="150" transform="translate(3473 964.61) rotate(-180)"/><rect class="cls-19" x="1709" y="407.31" width="69" height="150" transform="translate(3487 964.61) rotate(-180)"/><rect class="cls-15" x="92" y="385.31" width="42" height="192" rx="11.26"/><rect class="cls-16" x="116" y="385.31" width="267" height="192" rx="11.96"/><path class="cls-17" d="M368.67,385.31H384a0,0,0,0,1,0,0v192a0,0,0,0,1,0,0H368.67A11.67,11.67,0,0,1,357,565.63V397A11.67,11.67,0,0,1,368.67,385.31Z"/><rect class="cls-18" x="149" y="405.31" width="69" height="150" rx="9.13"/><rect class="cls-19" x="142" y="405.31" width="69" height="150" rx="9.13"/><rect class="cls-20" x="261" y="406.31" width="41" height="22" rx="9.13"/><circle class="cls-17" cx="279" cy="417.31" r="13"/><path class="cls-21" d="M270,418.31s-1-10,10-10"/><rect class="cls-20" x="1634" y="407.31" width="41" height="22" rx="9.13"/><circle class="cls-17" cx="1657" cy="418.31" r="13"/><path class="cls-21" d="M1666,419.31s1-10-10-10"/><rect class="cls-8" x="218" y="475.31" width="26" height="10"/><path class="cls-22" d="M277,457.31a24,24,0,1,1-24,24,24,24,0,0,1,24-24m0-22a46,46,0,1,0,46,46,46,46,0,0,0-46-46Z"/><path class="cls-23" d="M281,457.31a24,24,0,1,1-24,24,24,24,0,0,1,24-24m0-22a46,46,0,1,0,46,46,46,46,0,0,0-46-46Z"/><ellipse class="cls-7" cx="315.33" cy="495.69" rx="3.36" ry="3.33" transform="translate(-241.59 682.69) rotate(-76.1)"/><ellipse class="cls-8" cx="313.67" cy="467.23" rx="3.33" ry="3.36"/><ellipse class="cls-7" cx="284.67" cy="451.77" rx="3.33" ry="3.36"/><ellipse class="cls-8" cx="253.67" cy="449.66" rx="3.33" ry="3.36"/><ellipse class="cls-7" cx="262.33" cy="515.92" rx="3.33" ry="3.36"/><ellipse class="cls-8" cx="295.67" cy="513.95" rx="3.33" ry="3.36"/><path class="cls-24" d="M244.16,477s7.63-5.53,8.54-8c2.34,4.21,4,4.27,4,4.27l3.3.11s-6.83,6.38-11.84,7.87S244.16,477,244.16,477Z"/><path class="cls-24" d="M245.54,485.3s9.19,6.11,10.14,8.62C259,489.9,261,490,261,490l4.17.14s-8.12-6.89-14.32-8.76S245.54,485.3,245.54,485.3Z"/><path class="cls-7" d="M251.65,473.11s1.54,3.36-5.24,8.09S236,470.09,236,470.09s-1.37-8.32,8.38-3A7.08,7.08,0,0,1,251.65,473.11Z"/><path class="cls-7" d="M251.08,489.84s1.76-3.25-4.67-8.43-11.11,10.37-11.11,10.37-1.93,8.2,8.15,3.59C250.06,495.59,251.08,489.84,251.08,489.84Z"/><polygon class="cls-25" points="290.5 438.81 306.5 434.81 308.5 445.81 322.5 450.81 320.5 460.81 332.5 468.81 326.88 478.09 329.5 481.81 324.5 483.81 326.5 500.81 322.67 500.81 325.33 469.01 313.5 456.81 290.5 438.81"/><polygon class="cls-25" points="318.5 504.81 319.5 513.81 310.33 512.99 306.5 527.81 295.67 523.35 294.5 527.81 288 525.98 279.5 531.81 275.49 526.98 301.5 518.81 310.5 508.81 318.5 504.81"/><polygon class="cls-25" points="290.5 437.32 286.5 432.81 281.5 437.81 272.5 432.81 270.5 438.81 286.5 441.81 290.5 437.32"/><polygon class="cls-22" points="256.5 434.81 255.35 440.71 246.5 440.81 248.5 445.2 240.5 449.81 241.5 454.81 235.5 454.81 235.5 463.81 228.5 467.81 233.5 473.81 240.5 456.81 248.5 446.81 264.17 437.31 256.5 434.81 256.5 434.81"/><polygon class="cls-22" points="243.5 510.81 240.5 520.81 256.5 521.81 258.5 526.81 265.67 525.9 254.5 519.81 243.5 510.81 243.5 510.81"/><polygon class="cls-26" points="232 488.31 228 494.31 238 501.31 235 508.31 241 508.31 238 500.31 232 488.31"/><rect class="cls-8" x="1675.5" y="477.31" width="26" height="10" transform="translate(3377 964.61) rotate(-180)"/><path class="cls-22" d="M1642.5,459.31a24,24,0,1,1-24,24,24,24,0,0,1,24-24m0-22a46,46,0,1,0,46,46,46,46,0,0,0-46-46Z"/><path class="cls-23" d="M1638.5,459.31a24,24,0,1,1-24,24,24,24,0,0,1,24-24m0-22a46,46,0,1,0,46,46,46,46,0,0,0-46-46Z"/><ellipse class="cls-7" cx="1604.17" cy="497.69" rx="3.33" ry="3.36" transform="translate(-72.59 399.99) rotate(-13.9)"/><ellipse class="cls-8" cx="1605.83" cy="469.23" rx="3.33" ry="3.36"/><ellipse class="cls-7" cx="1634.83" cy="453.77" rx="3.33" ry="3.36"/><ellipse class="cls-8" cx="1665.83" cy="451.66" rx="3.33" ry="3.36"/><ellipse class="cls-7" cx="1657.17" cy="517.92" rx="3.33" ry="3.36"/><ellipse class="cls-8" cx="1623.83" cy="515.95" rx="3.33" ry="3.36"/><path class="cls-24" d="M1675.34,479s-7.63-5.53-8.54-8c-2.34,4.21-4,4.27-4,4.27l-3.3.11s6.83,6.38,11.84,7.87S1675.34,479,1675.34,479Z"/><path class="cls-24" d="M1674,487.3s-9.19,6.11-10.14,8.62c-3.27-4-5.36-3.95-5.36-3.95l-4.17.14s8.12-6.89,14.32-8.76S1674,487.3,1674,487.3Z"/><path class="cls-7" d="M1667.85,475.11s-1.54,3.36,5.24,8.09,10.37-11.11,10.37-11.11,1.37-8.32-8.38-3A7.08,7.08,0,0,0,1667.85,475.11Z"/><path class="cls-7" d="M1668.42,491.84s-1.76-3.25,4.67-8.43,11.11,10.37,11.11,10.37,1.93,8.2-8.15,3.59C1669.44,497.59,1668.42,491.84,1668.42,491.84Z"/><polygon class="cls-25" points="1629 440.81 1613 436.81 1611 447.81 1597 452.81 1599 462.81 1587 470.81 1592.62 480.09 1590 483.81 1595 485.81 1593 502.81 1596.83 502.81 1594.17 471.01 1606 458.81 1629 440.81"/><polygon class="cls-25" points="1601 506.81 1600 515.81 1609.17 514.99 1613 529.81 1623.83 525.35 1625 529.81 1631.5 527.98 1640 533.81 1644.01 528.98 1618 520.81 1609 510.81 1601 506.81"/><polygon class="cls-25" points="1629 439.32 1633 434.81 1638 439.81 1647 434.81 1649 440.81 1633 443.81 1629 439.32"/><polygon class="cls-22" points="1663 436.81 1655.33 439.31 1671 448.81 1679 458.81 1686 475.81 1691 469.81 1684 465.81 1684 456.81 1678 456.81 1679 451.81 1670.99 447.2 1673 442.81 1664.14 442.71 1663 436.81 1663 436.81"/><polygon class="cls-22" points="1676 512.81 1665 521.81 1653.83 527.9 1661 528.81 1663 523.81 1679 522.81 1676 512.81 1676 512.81"/><polygon class="cls-26" points="1687.5 490.31 1691.5 496.31 1681.5 503.31 1684.5 510.31 1678.5 510.31 1681.5 502.31 1687.5 490.31"/></g></g></svg>