<?xml version="1.0" encoding="utf-8"?>
<!-- Generator: Adobe Illustrator 24.0.2, SVG Export Plug-In . SVG Version: 6.00 Build 0)  -->
<svg version="1.1" id="Capa_1" xmlns="http://www.w3.org/2000/svg" xmlns:xlink="http://www.w3.org/1999/xlink" x="0px" y="0px"
	 viewBox="0 0 1920 1080" style="enable-background:new 0 0 1920 1080;" xml:space="preserve">
<style type="text/css">
	.st0{fill:#656F75;}
	.st1{fill:#818F99;}
	.st2{fill:#E2B083;}
	.st3{fill:#C43A33;}
	.st4{fill:#EFABAB;}
</style>
<g>
	<path class="st0" d="M817.6,641.5L817.6,641.5c-5.5,0-9.9-4.4-9.9-9.9v-46.4c0-5.5,4.4-9.9,9.9-9.9l0,0c5.5,0,9.9,4.4,9.9,9.9v46.4
		C827.5,637.1,823.1,641.5,817.6,641.5z"/>
	<path class="st0" d="M1101.5,641.5L1101.5,641.5c-5.5,0-9.9-4.4-9.9-9.9v-46.4c0-5.5,4.4-9.9,9.9-9.9h0c5.5,0,9.9,4.4,9.9,9.9v46.4
		C1111.4,637.1,1106.9,641.5,1101.5,641.5z"/>
	<path class="st1" d="M817.6,636.2L817.6,636.2c-5.5,0-9.9-4.4-9.9-9.9v-46.4c0-5.5,4.4-9.9,9.9-9.9l0,0c5.5,0,9.9,4.4,9.9,9.9v46.4
		C827.5,631.8,823.1,636.2,817.6,636.2z"/>
	<path class="st1" d="M1101.5,636.2L1101.5,636.2c-5.5,0-9.9-4.4-9.9-9.9v-46.4c0-5.5,4.4-9.9,9.9-9.9h0c5.5,0,9.9,4.4,9.9,9.9v46.4
		C1111.4,631.8,1106.9,636.2,1101.5,636.2z"/>
	<path class="st2" d="M1098.8,586.5H820.2c-6.9,0-12.5-5.6-12.5-12.5v-41.2c0-6.9,5.6-12.5,12.5-12.5h278.6
		c6.9,0,12.5,5.6,12.5,12.5V574C1111.3,580.9,1105.7,586.5,1098.8,586.5z"/>
	<path class="st3" d="M829.1,586.5h-10.7c-5.9,0-10.7-4.8-10.7-10.7V531c0-5.9,4.8-10.7,10.7-10.7l0,0c5.9,0,10.7,4.8,10.7,10.7
		V586.5z"/>
	<path class="st3" d="M1090,586.5h10.7c5.9,0,10.7-4.8,10.7-10.7V531c0-5.9-4.8-10.7-10.7-10.7l0,0c-5.9,0-10.7,4.8-10.7,10.7V586.5
		z"/>
	<path class="st4" d="M1098.8,546.8H820.2c-6.9,0-12.5-5.6-12.5-12.5V460c0-6.9,5.6-12.5,12.5-12.5h278.6c6.9,0,12.5,5.6,12.5,12.5
		v74.3C1111.3,541.2,1105.7,546.8,1098.8,546.8z"/>
	<path class="st3" d="M1098.8,536.9H820.2c-6.9,0-12.5-5.6-12.5-12.5V450c0-6.9,5.6-12.5,12.5-12.5h278.6c6.9,0,12.5,5.6,12.5,12.5
		v74.3C1111.3,531.3,1105.7,536.9,1098.8,536.9z"/>
</g>
</svg>
