<?xml version="1.0" encoding="utf-8"?>
<!-- Generator: Adobe Illustrator 24.0.2, SVG Export Plug-In . SVG Version: 6.00 Build 0)  -->
<svg version="1.1" id="Capa_1" xmlns="http://www.w3.org/2000/svg" xmlns:xlink="http://www.w3.org/1999/xlink" x="0px" y="0px"
	 viewBox="0 0 433 415" style="enable-background:new 0 0 433 415;" xml:space="preserve">
<style type="text/css">
	.st0{fill:#656F75;}
	.st1{fill:#E2B083;}
	.st2{fill:#A8322F;}
	.st3{fill:#818F99;}
	.st4{fill:#C43A33;}
</style>
<g>
	<path class="st0" d="M129.8,295L129.8,295c-4.3,0-7.8-3.5-7.8-7.8v-76.8c0-4.3,3.5-7.8,7.8-7.8h0c4.3,0,7.8,3.5,7.8,7.8v76.8
		C137.6,291.6,134.1,295,129.8,295z"/>
	<path class="st0" d="M303.3,295L303.3,295c-4.3,0-7.8-3.5-7.8-7.8v-76.8c0-4.3,3.5-7.8,7.8-7.8l0,0c4.3,0,7.8,3.5,7.8,7.8v76.8
		C311,291.6,307.6,295,303.3,295z"/>
	<rect x="122" y="232.2" class="st1" width="189" height="8.7"/>
	<path class="st2" d="M298.5,236.4H134.6c-6.9,0-12.5-5.6-12.5-12.5v-53c0-6.9,5.6-12.5,12.5-12.5h163.9c6.9,0,12.5,5.6,12.5,12.5
		v53C311,230.8,305.4,236.4,298.5,236.4z"/>
	<path class="st3" d="M129.8,290.8L129.8,290.8c-4.3,0-7.8-3.5-7.8-7.8v-76.8c0-4.3,3.5-7.8,7.8-7.8h0c4.3,0,7.8,3.5,7.8,7.8V283
		C137.6,287.3,134.1,290.8,129.8,290.8z"/>
	<path class="st3" d="M303.3,290.8L303.3,290.8c-4.3,0-7.8-3.5-7.8-7.8v-76.8c0-4.3,3.5-7.8,7.8-7.8l0,0c4.3,0,7.8,3.5,7.8,7.8V283
		C311,287.3,307.6,290.8,303.3,290.8z"/>
	<path class="st1" d="M298.5,223.8H134.6c-6.9,0-12.5-5.6-12.5-12.5v-53c0-6.9,5.6-12.5,12.5-12.5h163.9c6.9,0,12.5,5.6,12.5,12.5
		v53C311,218.2,305.4,223.8,298.5,223.8z"/>
	<path class="st4" d="M298.5,216H134.6c-6.9,0-12.5-5.6-12.5-12.5v-53c0-6.9,5.6-12.5,12.5-12.5h163.9c6.9,0,12.5,5.6,12.5,12.5v53
		C311,210.4,305.4,216,298.5,216z"/>
</g>
</svg>
